STARTFONT 2.1
FONT -Adobe-Times-Bold-I-Normal--34-240-100-100-P-170-ISO10646-1
SIZE 24 100 100
FONTBOUNDINGBOX 41 52 -6 -15
COMMENT $XFree86$
COMMENT ISO10646-1 extension by Markus Kuhn <mkuhn@acm.org>, 2001-03-20
COMMENT 
COMMENT +
COMMENT  Copyright 1984-1989, 1994 Adobe Systems Incorporated.
COMMENT  Copyright 1988, 1994 Digital Equipment Corporation.
COMMENT
COMMENT  Adobe is a trademark of Adobe Systems Incorporated which may be
COMMENT  registered in certain jurisdictions.
COMMENT  Permission to use these trademarks is hereby granted only in
COMMENT  association with the images described in this file.
COMMENT
COMMENT  Permission to use, copy, modify, distribute and sell this software
COMMENT  and its documentation for any purpose and without fee is hereby
COMMENT  granted, provided that the above copyright notices appear in all
COMMENT  copies and that both those copyright notices and this permission
COMMENT  notice appear in supporting documentation, and that the names of
COMMENT  Adobe Systems and Digital Equipment Corporation not be used in
COMMENT  advertising or publicity pertaining to distribution of the software
COMMENT  without specific, written prior permission.  Adobe Systems and
COMMENT  Digital Equipment Corporation make no representations about the
COMMENT  suitability of this software for any purpose.  It is provided "as
COMMENT  is" without express or implied warranty.
COMMENT -
STARTPROPERTIES 26
FOUNDRY "Adobe"
FAMILY_NAME "Times"
WEIGHT_NAME "Bold"
SLANT "I"
SETWIDTH_NAME "Normal"
ADD_STYLE_NAME ""
PIXEL_SIZE 34
POINT_SIZE 240
RESOLUTION_X 100
RESOLUTION_Y 100
SPACING "P"
AVERAGE_WIDTH 170
CHARSET_REGISTRY "ISO10646"
CHARSET_ENCODING "1"
CAP_HEIGHT 23
X_HEIGHT 15
FONT_ASCENT 27
FONT_DESCENT 7
FACE_NAME "Times Bold Italic"
COPYRIGHT "Copyright (c) 1984, 1987 Adobe Systems Incorporated. All Rights Reserved. Copyright (c) 1988, 1991 Digital Equipment Corporation. All Rights Reserved."

STARTCHAR char0
ENCODING 0
SWIDTH 778 0
DWIDTH 25 0
BBX 27 23 -1 0
BITMAP
AAAAAAA0
00000000
80000020
00000000
80000020
00000000
80000020
00000000
80000020
00000000
80000020
00000000
80000020
00000000
80000020
00000000
80000020
00000000
80000020
00000000
80000020
00000000
AAAAAAA0
ENDCHAR
STARTCHAR space
ENCODING 32
SWIDTH 250 0
DWIDTH 8 0
BBX 1 1 0 0
BITMAP
00
ENDCHAR
STARTCHAR exclam
ENCODING 33
SWIDTH 389 0
DWIDTH 13 0
BBX 10 23 2 0
BITMAP
0380
07C0
07C0
0FC0
0FC0
0F80
0F80
0F00
0F00
0E00
0E00
0C00
0C00
1800
1800
1800
0000
0000
7000
F800
F800
F800
7000
ENDCHAR
STARTCHAR quotedbl
ENCODING 34
SWIDTH 555 0
DWIDTH 19 0
BBX 13 11 5 12
BITMAP
7070
F8F8
F8F8
F8F8
F0F0
F0F0
E0E0
E0E0
C0C0
C0C0
8080
ENDCHAR
STARTCHAR numbersign
ENCODING 35
SWIDTH 500 0
DWIDTH 17 0
BBX 17 23 0 0
BITMAP
030C00
071C00
071C00
071C00
071C00
071C00
071C00
071C00
7FFF80
7FFF80
0E3800
0E3800
0E3800
0E3800
FFFF00
FFFF00
1C7000
1C7000
1C7000
1C7000
1C7000
1C7000
186000
ENDCHAR
STARTCHAR dollar
ENCODING 36
SWIDTH 500 0
DWIDTH 16 0
BBX 16 29 0 -4
BITMAP
0018
0018
01F0
07FC
0E3F
0C67
1C63
1C62
1EE2
1EC0
1FC0
1FC0
0FC0
07E0
03F0
01F8
01F8
037C
433C
433C
C638
E638
E630
3460
1FC0
0C00
0C00
1800
1800
ENDCHAR
STARTCHAR percent
ENCODING 37
SWIDTH 833 0
DWIDTH 27 0
BBX 25 24 1 0
BITMAP
00001000
07C07000
1FF3E000
3E3F6000
7C20C000
7820C000
F8218000
F8630000
F0430000
F0460000
F0C60000
F18C1F00
7B0C7F80
3E18F880
0031F080
0031E080
0063E080
0063E180
00C3C100
00C3C100
0183C300
0303C600
0301EC00
0200F800
ENDCHAR
STARTCHAR ampersand
ENCODING 38
SWIDTH 778 0
DWIDTH 26 0
BBX 22 23 2 0
BITMAP
001F00
007380
00F1C0
00E1C0
01E1C0
01C380
01C380
01C700
01EE00
01F800
01F000
07F1FC
1E7070
3C7860
7878E0
703CC0
F03D80
F03F00
F81F00
7C1F80
7FFFC8
3FE3F8
0F81F0
ENDCHAR
STARTCHAR quotesingle
ENCODING 39
SWIDTH 278 0
DWIDTH 9 0
BBX 5 11 4 12
BITMAP
70
F8
F8
F8
F8
F0
F0
E0
C0
C0
80
ENDCHAR
STARTCHAR parenleft
ENCODING 40
SWIDTH 333 0
DWIDTH 11 0
BBX 10 29 3 -6
BITMAP
00C0
01C0
0380
0700
0E00
0C00
1C00
3800
3800
7800
7000
F000
F000
F000
E000
E000
E000
E000
E000
E000
E000
6000
6000
7000
3000
3000
1800
1800
0800
ENDCHAR
STARTCHAR parenright
ENCODING 41
SWIDTH 333 0
DWIDTH 11 0
BBX 10 29 -2 -6
BITMAP
0400
0600
0200
0300
0300
0380
0180
0180
01C0
01C0
01C0
01C0
01C0
01C0
01C0
03C0
03C0
03C0
0380
0780
0700
0F00
0E00
0C00
1C00
3800
7000
E000
C000
ENDCHAR
STARTCHAR asterisk
ENCODING 42
SWIDTH 500 0
DWIDTH 17 0
BBX 13 14 2 9
BITMAP
0300
0700
0700
E738
F278
7AF0
0F80
0F80
7EF0
F278
E738
0700
0700
0600
ENDCHAR
STARTCHAR plus
ENCODING 43
SWIDTH 570 0
DWIDTH 19 0
BBX 17 17 1 0
BITMAP
01C000
01C000
01C000
01C000
01C000
01C000
01C000
FFFF80
FFFF80
FFFF80
01C000
01C000
01C000
01C000
01C000
01C000
01C000
ENDCHAR
STARTCHAR comma
ENCODING 44
SWIDTH 250 0
DWIDTH 8 0
BBX 6 10 -1 -6
BITMAP
38
7C
7C
7C
3C
18
18
30
60
C0
ENDCHAR
STARTCHAR hyphen
ENCODING 45
SWIDTH 333 0
DWIDTH 11 0
BBX 9 4 1 5
BITMAP
7F80
FF80
FF80
FF00
ENDCHAR
STARTCHAR period
ENCODING 46
SWIDTH 250 0
DWIDTH 8 0
BBX 5 5 -1 0
BITMAP
70
F8
F8
F8
70
ENDCHAR
STARTCHAR slash
ENCODING 47
SWIDTH 278 0
DWIDTH 9 0
BBX 9 23 0 0
BITMAP
0180
0180
0180
0300
0300
0300
0600
0600
0600
0C00
0C00
1C00
1800
1800
3800
3000
3000
7000
6000
6000
E000
C000
C000
ENDCHAR
STARTCHAR zero
ENCODING 48
SWIDTH 500 0
DWIDTH 16 0
BBX 16 23 1 0
BITMAP
01F0
039C
0F0C
0F0E
1E0E
3E1F
3E1F
7C1F
7C1F
7C1F
F83E
F83E
F83E
F83C
F07C
F07C
F0F8
F0F8
E0F0
E1E0
61E0
7380
1F00
ENDCHAR
STARTCHAR one
ENCODING 49
SWIDTH 500 0
DWIDTH 16 0
BBX 14 23 0 0
BITMAP
003C
07F8
00F8
00F8
00F8
00F0
00F0
01F0
01F0
01E0
03E0
03E0
03E0
03C0
07C0
07C0
07C0
0780
0F80
0F80
0F00
1F80
FFF0
ENDCHAR
STARTCHAR two
ENCODING 50
SWIDTH 500 0
DWIDTH 16 0
BBX 17 23 -1 0
BITMAP
007C00
01FF00
01FF00
031F80
060F80
040780
000780
000780
000F00
000F00
001E00
001C00
003800
007000
00E000
01C000
038000
070100
0E0700
1FFE00
3FFE00
7FFC00
FFFC00
ENDCHAR
STARTCHAR three
ENCODING 51
SWIDTH 500 0
DWIDTH 16 0
BBX 15 23 0 0
BITMAP
00F0
03F8
03FC
063E
0C1E
081E
001E
003C
00F8
03E0
0FC0
03E0
01F0
00F0
00F8
0078
0078
0078
00F0
60F0
F1E0
FF80
7E00
ENDCHAR
STARTCHAR four
ENCODING 52
SWIDTH 500 0
DWIDTH 16 0
BBX 17 23 -1 0
BITMAP
000180
000380
000780
000F80
001F80
003700
006F00
00CF00
019F00
031E00
061E00
0C1E00
183E00
303C00
603C00
FFFF00
FFFE00
FFFE00
007800
00F800
00F800
01F000
01F000
ENDCHAR
STARTCHAR five
ENCODING 53
SWIDTH 500 0
DWIDTH 16 0
BBX 15 23 0 0
BITMAP
07FE
07FE
07FC
0FFC
0C00
0C00
1C00
1F80
1FE0
3FF0
07F0
01F8
00F8
0078
0078
0038
0038
0038
0070
6070
F0E0
FF80
7E00
ENDCHAR
STARTCHAR six
ENCODING 54
SWIDTH 500 0
DWIDTH 16 0
BBX 16 23 1 0
BITMAP
0007
003E
00F8
01E0
07C0
0F80
1F00
1F00
3FF0
7E78
7C38
7C3C
F83C
F83C
F87C
F87C
F07C
F078
F0F8
70F0
70F0
39E0
1F80
ENDCHAR
STARTCHAR seven
ENCODING 55
SWIDTH 500 0
DWIDTH 16 0
BBX 15 23 2 0
BITMAP
3FFE
7FFE
7FFC
FFFC
C038
8030
0070
0060
00E0
01C0
01C0
0380
0380
0700
0700
0E00
1C00
1C00
3800
3800
7000
7000
E000
ENDCHAR
STARTCHAR eight
ENCODING 56
SWIDTH 500 0
DWIDTH 16 0
BBX 16 23 0 0
BITMAP
00F8
03DC
0F0E
0E07
1E07
1E07
1F07
1F0F
0F8E
0FDC
07F0
03E0
0FF0
1CF8
787C
703C
F03E
F01E
F01E
703C
783C
3CF8
1FE0
ENDCHAR
STARTCHAR nine
ENCODING 57
SWIDTH 500 0
DWIDTH 16 0
BBX 16 23 0 0
BITMAP
01F8
079C
0F0E
0F0E
1F0F
1E0F
3E0F
3E1F
3E1F
3C1F
3C1F
3C3E
1C3E
1E7E
0FFC
00F8
00F8
01F0
03E0
0780
1F00
7C00
E000
ENDCHAR
STARTCHAR colon
ENCODING 58
SWIDTH 333 0
DWIDTH 11 0
BBX 8 15 2 0
BITMAP
0E
1F
1F
1F
0E
00
00
00
00
00
70
F8
F8
F8
70
ENDCHAR
STARTCHAR semicolon
ENCODING 59
SWIDTH 333 0
DWIDTH 11 0
BBX 9 21 1 -6
BITMAP
0700
0F80
0F80
0F80
0700
0000
0000
0000
0000
0000
0000
3800
7C00
7C00
7C00
3C00
1800
1800
3000
6000
C000
ENDCHAR
STARTCHAR less
ENCODING 60
SWIDTH 570 0
DWIDTH 19 0
BBX 17 17 1 0
BITMAP
000180
000780
001F80
00FF00
03FC00
0FE000
3F8000
FE0000
F00000
FE0000
3F8000
0FE000
03FC00
00FF00
001F80
000780
000180
ENDCHAR
STARTCHAR equal
ENCODING 61
SWIDTH 570 0
DWIDTH 19 0
BBX 15 9 2 4
BITMAP
FFFE
FFFE
FFFE
0000
0000
0000
FFFE
FFFE
FFFE
ENDCHAR
STARTCHAR greater
ENCODING 62
SWIDTH 570 0
DWIDTH 19 0
BBX 17 17 1 0
BITMAP
C00000
F00000
FC0000
7F8000
1FE000
03F800
00FE00
003F80
000780
003F80
00FE00
03F800
1FE000
7F8000
FC0000
F00000
C00000
ENDCHAR
STARTCHAR question
ENCODING 63
SWIDTH 500 0
DWIDTH 16 0
BBX 12 23 3 0
BITMAP
0F80
39E0
30F0
78F0
78F0
30F0
01E0
01E0
03C0
0780
0700
0E00
0800
1800
1000
1000
0000
0000
7000
F800
F800
F800
7000
ENDCHAR
STARTCHAR at
ENCODING 64
SWIDTH 832 0
DWIDTH 28 0
BBX 28 28 0 -5
BITMAP
001FF800
007E1E00
01E00700
03C00180
070000C0
0E000060
1E000060
1C039C30
3C0FDC30
381E7C10
783C3C10
78783810
F0783810
F0F03810
F0F07830
F0F07020
F0F07060
F0F0F0C0
F0F9E180
707FF300
787EFE00
383C7800
3C000000
1C000000
0E000000
03800000
01E01C00
003FF000
ENDCHAR
STARTCHAR A
ENCODING 65
SWIDTH 667 0
DWIDTH 21 0
BBX 21 23 -1 0
BITMAP
000200
000600
000700
000F00
001F00
001F00
003F00
002F00
006F80
004F80
00CF80
018F80
018780
030780
0207C0
07FFC0
0FFFC0
0C07C0
1807C0
1803C0
3003E0
7007E0
FC1FF8
ENDCHAR
STARTCHAR B
ENCODING 66
SWIDTH 667 0
DWIDTH 21 0
BBX 22 23 -1 0
BITMAP
07FFE0
01F1F8
01F07C
01F03C
01F03C
01F03C
03E03C
03E07C
03E0F8
03E1F0
07FF80
07FFC0
07C3F0
07C1F0
0F80F8
0F80F8
0F80F8
0F80F8
1F00F0
1F01F0
1F03E0
3F0F80
FFFE00
ENDCHAR
STARTCHAR C
ENCODING 67
SWIDTH 667 0
DWIDTH 22 0
BBX 21 23 2 0
BITMAP
003FC8
00FFF8
03F078
07C030
0F8030
1F0030
3F0020
3E0020
7E0000
7C0000
7C0000
F80000
F80000
F80000
F80000
F80000
F80000
F80000
7C0040
7C0180
3F0700
0FFC00
03F000
ENDCHAR
STARTCHAR D
ENCODING 68
SWIDTH 722 0
DWIDTH 23 0
BBX 24 23 -1 0
BITMAP
0FFFC0
03F0F0
01F078
01F03C
03E03E
03E01E
03E01F
07E01F
07C01F
07C01F
07C01F
0FC01F
0F801F
0F803E
0F803E
1F807C
1F007C
1F00F8
1F00F0
3F01E0
3E07C0
7F1F00
FFFC00
ENDCHAR
STARTCHAR E
ENCODING 69
SWIDTH 667 0
DWIDTH 22 0
BBX 22 23 -1 0
BITMAP
07FFFC
01F83C
01F01C
01F018
01F018
03E018
03E010
03E080
03E080
07E180
07C780
07FF80
07C700
0F8300
0F8300
0F8200
0F8000
1F0010
1F0030
1F0070
3F00E0
3F03E0
FFFFE0
ENDCHAR
STARTCHAR F
ENCODING 70
SWIDTH 667 0
DWIDTH 22 0
BBX 22 23 0 0
BITMAP
07FFFC
01F83C
01F01C
01F018
01F018
03F018
03E010
03E080
03E080
07E180
07C780
07FF80
07C700
0F8300
0F8300
0F8200
0F8000
1F0000
1F0000
1F0000
3F0000
3F0000
FFC000
ENDCHAR
STARTCHAR G
ENCODING 71
SWIDTH 722 0
DWIDTH 24 0
BBX 23 23 1 0
BITMAP
003FE4
00FCFC
03F03C
07C01C
0F8018
1F0008
3F0008
3E0000
7E0000
7C0000
7C0000
F80000
F803FE
F800F8
F800F8
F800F0
F801F0
7C01F0
7C01E0
3E03E0
3F07C0
0FFFC0
03FF00
ENDCHAR
STARTCHAR H
ENCODING 72
SWIDTH 778 0
DWIDTH 25 0
BBX 27 23 -1 0
BITMAP
07FE7FE0
01F81F80
01F01F00
01F01F00
01F01F00
01E01E00
01E01E00
03E03E00
03E03E00
03C03C00
03FFFC00
03FFFC00
07C07C00
07807800
07807800
0F80F800
0F80F800
0F80F800
0F00F000
1F01F000
1F01F000
3F03F000
FFC7FC00
ENDCHAR
STARTCHAR I
ENCODING 73
SWIDTH 389 0
DWIDTH 13 0
BBX 15 23 -1 0
BITMAP
07FE
01F8
01F8
01F0
01F0
01F0
03E0
03E0
03E0
03E0
07C0
07C0
07C0
07C0
0F80
0F80
0F80
0F80
1F00
1F00
1F00
3F00
FFC0
ENDCHAR
STARTCHAR J
ENCODING 74
SWIDTH 500 0
DWIDTH 17 0
BBX 18 26 0 -3
BITMAP
00FFC0
003F00
003F00
003E00
003E00
003E00
003E00
007C00
007C00
007C00
007C00
00F800
00F800
00F800
00F800
01F000
01F000
01F000
01F000
01E000
61E000
F3E000
F3C000
E3C000
7F8000
3E0000
ENDCHAR
STARTCHAR K
ENCODING 75
SWIDTH 667 0
DWIDTH 22 0
BBX 24 23 -1 0
BITMAP
07FE7F
01F81C
01F018
01F030
01E060
03E0C0
03E180
03C300
03C600
07DC00
07FC00
07FE00
07DE00
0F9F00
0F9F00
0F9F80
0F0F80
1F0FC0
1F07C0
1E07E0
3E03E0
3F03F0
FFCFF8
ENDCHAR
STARTCHAR L
ENCODING 76
SWIDTH 611 0
DWIDTH 20 0
BBX 20 23 -1 0
BITMAP
07FE00
01F800
01F000
01F000
01F000
03E000
03E000
03E000
03E000
07E000
07C000
07C000
07C000
0F8000
0F8000
0F8000
0F8000
1F0010
1F0030
1F0070
3F00E0
3F03E0
FFFFE0
ENDCHAR
STARTCHAR M
ENCODING 77
SWIDTH 889 0
DWIDTH 29 0
BBX 31 23 -1 0
BITMAP
07F001FE
01F001FC
01F003F8
01F003F8
01F807F0
03F80DF0
03F80DF0
03781BF0
02781BE0
067833E0
067867C0
067867C0
0C78C7C0
0C7D87C0
0C7D8F80
0C7F0F80
187F0F80
183E0F80
183C1F00
383C1F00
30381F00
78303F00
FE30FFC0
ENDCHAR
STARTCHAR N
ENCODING 78
SWIDTH 722 0
DWIDTH 24 0
BBX 26 23 -1 0
BITMAP
07E01FC0
03F00F80
01F00700
01F80700
01F80600
037C0600
037C0600
033E0C00
023E0C00
063F0C00
061F0C00
061F1800
0C0F9800
0C0F9800
0C07D000
0C07F000
1803F000
1803F000
1803F000
3801E000
3801E000
7C00E000
FE00E000
ENDCHAR
STARTCHAR O
ENCODING 79
SWIDTH 722 0
DWIDTH 23 0
BBX 22 23 1 0
BITMAP
001F80
00FFE0
01E0F0
03C078
078078
0F007C
1F007C
3E007C
3E007C
3E007C
7C00FC
7C00F8
FC00F8
F801F0
F801F0
F801F0
F803E0
F803C0
780780
780F00
3C1E00
1FFC00
07E000
ENDCHAR
STARTCHAR P
ENCODING 80
SWIDTH 611 0
DWIDTH 20 0
BBX 21 23 -1 0
BITMAP
07FFC0
01FFF0
01F1F8
01F0F8
03E0F8
03E0F8
03E0F8
03E1F0
07C1F0
07C3E0
07CFC0
07FF00
0F8000
0F8000
0F8000
0F8000
0F8000
0F0000
1F0000
1F0000
1F0000
3F8000
FFC000
ENDCHAR
STARTCHAR Q
ENCODING 81
SWIDTH 722 0
DWIDTH 24 0
BBX 22 30 1 -7
BITMAP
001F80
00FFE0
01E0F0
03C078
078078
0F007C
1F007C
3E007C
3E007C
3E007C
7C00FC
7C00F8
FC00F8
F801F0
F801F0
F801F0
F803E0
F803C0
780780
780F00
3C1E00
1FFC00
07E000
030000
060000
0F8008
1FF870
3FFFE0
71FFC0
C01F00
ENDCHAR
STARTCHAR R
ENCODING 82
SWIDTH 667 0
DWIDTH 22 0
BBX 21 23 -1 0
BITMAP
07FFC0
01FFF0
01F1F8
01F0F8
03E0F8
03E0F8
03E0F8
03E1F0
07C1F0
07C3E0
07CFC0
07FF00
0FBE00
0FBF00
0F9F00
0F9F80
0F8F80
0F0F80
1F07C0
1F07C0
1F07E0
3F03E0
FFC3F8
ENDCHAR
STARTCHAR S
ENCODING 83
SWIDTH 556 0
DWIDTH 18 0
BBX 17 23 1 0
BITMAP
03F880
0FFD80
1F0F80
1E0700
3C0300
3E0300
3E0200
3F0000
1FC000
1FE000
0FF000
07F800
03FC00
00FC00
007E00
003E00
801E00
C01E00
C01E00
E03C00
F07C00
FFF800
DFE000
ENDCHAR
STARTCHAR T
ENCODING 84
SWIDTH 611 0
DWIDTH 20 0
BBX 19 23 2 0
BITMAP
3FFFE0
3CF9E0
30F8E0
70F8C0
61F0C0
61F080
41F080
01F000
03E000
03E000
03E000
03E000
07C000
07C000
07C000
078000
0F8000
0F8000
0F8000
1F0000
1F0000
3F8000
FFE000
ENDCHAR
STARTCHAR U
ENCODING 85
SWIDTH 722 0
DWIDTH 24 0
BBX 23 23 2 0
BITMAP
7FE07E
1F803C
1F8018
1F0018
1F0030
3F0030
3E0030
3E0060
3E0060
7E0060
7C00C0
7C00C0
7C00C0
F80180
F80180
F80180
F80300
F80300
F80600
7C0E00
7E1C00
3FF800
0FE000
ENDCHAR
STARTCHAR V
ENCODING 86
SWIDTH 667 0
DWIDTH 22 0
BBX 21 23 2 0
BITMAP
FFC1F8
3F0070
3E0060
3F00E0
1F00C0
1F0180
1F0180
1F0300
1F0300
1F0600
0F0C00
0F8C00
0F9800
0F9800
0FB000
0FE000
0FE000
07C000
07C000
078000
070000
070000
060000
ENDCHAR
STARTCHAR W
ENCODING 87
SWIDTH 889 0
DWIDTH 29 0
BBX 28 23 2 0
BITMAP
FF9FF3F0
3F07C0E0
3E07C0C0
3E07C080
3E07C180
1E07C100
1F0FC300
1F0FC300
1F1BC200
1F1BC600
1F33C400
1F33EC00
0F63E800
0F63F800
0F41F000
0FC1F000
0F81F000
0F81E000
0F01E000
0F01C000
0601C000
06018000
04008000
ENDCHAR
STARTCHAR X
ENCODING 88
SWIDTH 667 0
DWIDTH 22 0
BBX 24 23 -1 0
BITMAP
0FFC7F
03F01C
01F018
01F030
01F060
00F8C0
00F980
00FB00
007E00
007C00
007C00
007C00
007E00
007E00
00FE00
019F00
031F00
061F00
0C0F80
180F80
300F80
780FE0
FC3FF0
ENDCHAR
STARTCHAR Y
ENCODING 89
SWIDTH 611 0
DWIDTH 20 0
BBX 19 23 2 0
BITMAP
FF8FE0
7E03C0
3E0380
3E0300
1E0600
1F0600
1F0C00
0F1800
0F9800
0FB000
0FE000
07C000
07C000
07C000
0F8000
0F8000
0F8000
0F8000
1F0000
1F0000
1F0000
3F0000
FFC000
ENDCHAR
STARTCHAR Z
ENCODING 90
SWIDTH 611 0
DWIDTH 20 0
BBX 20 23 -1 0
BITMAP
0FFFF0
0FC3E0
0E07E0
1C07C0
180F80
101F80
003F00
003E00
007E00
00FC00
00F800
01F800
03F000
03E000
07E000
0FC000
0F8000
1F8040
3F00C0
3E01C0
7E0380
FC1F80
FFFF80
ENDCHAR
STARTCHAR bracketleft
ENCODING 91
SWIDTH 333 0
DWIDTH 11 0
BBX 13 28 1 -5
BITMAP
03F8
03C0
0380
0780
0700
0700
0700
0F00
0F00
0E00
0E00
0E00
1E00
1C00
1C00
1C00
3C00
3C00
3800
3800
7800
7800
7000
7000
7000
F000
F000
FE00
ENDCHAR
STARTCHAR backslash
ENCODING 92
SWIDTH 278 0
DWIDTH 9 0
BBX 15 23 0 0
BITMAP
F000
7000
7800
3800
3C00
1C00
1E00
0E00
0700
0700
0380
0380
01C0
01C0
00E0
00F0
0070
0078
0038
003C
001C
001E
000E
ENDCHAR
STARTCHAR bracketright
ENCODING 93
SWIDTH 333 0
DWIDTH 11 0
BBX 13 28 -3 -5
BITMAP
03F8
0078
0070
0070
0070
00F0
00F0
00E0
00E0
01E0
01E0
01C0
01C0
01C0
03C0
0380
0380
0380
0780
0780
0700
0700
0700
0F00
0E00
0E00
1E00
FE00
ENDCHAR
STARTCHAR asciicircum
ENCODING 94
SWIDTH 570 0
DWIDTH 19 0
BBX 15 13 2 10
BITMAP
07C0
07C0
0FE0
0EE0
1EF0
1C70
3C78
3838
783C
701C
F01E
E00E
E00E
ENDCHAR
STARTCHAR underscore
ENCODING 95
SWIDTH 500 0
DWIDTH 17 0
BBX 17 1 0 -4
BITMAP
FFFF80
ENDCHAR
STARTCHAR grave
ENCODING 96
SWIDTH 333 0
DWIDTH 11 0
BBX 7 6 2 17
BITMAP
E0
F0
F8
3C
0E
06
ENDCHAR
STARTCHAR a
ENCODING 97
SWIDTH 500 0
DWIDTH 16 0
BBX 14 15 0 0
BITMAP
039C
0FDC
1E7C
3C3C
7838
7878
F878
F078
F0F0
F0F0
F0F4
F1EC
7F78
7E70
1C60
ENDCHAR
STARTCHAR b
ENCODING 98
SWIDTH 500 0
DWIDTH 16 0
BBX 14 23 1 0
BITMAP
0F00
3F00
0F00
0E00
0E00
1E00
1E00
1C00
3DE0
3FF8
3E78
3C3C
783C
783C
783C
783C
F078
F078
F0F0
F0E0
F1C0
FF80
7E00
ENDCHAR
STARTCHAR c
ENCODING 99
SWIDTH 444 0
DWIDTH 14 0
BBX 13 15 1 0
BITMAP
01F0
07F8
1E78
3C78
3C30
7800
7800
F000
F000
F000
F020
F060
78C0
7F80
1E00
ENDCHAR
STARTCHAR d
ENCODING 100
SWIDTH 500 0
DWIDTH 16 0
BBX 17 23 0 0
BITMAP
000380
001F80
000780
000780
000700
000F00
000F00
000F00
03DE00
0FFE00
1F3E00
3C1E00
7C1E00
783C00
F83C00
F03C00
F03800
F07800
F07800
F0F600
7FFC00
7F7800
1E3000
ENDCHAR
STARTCHAR e
ENCODING 101
SWIDTH 444 0
DWIDTH 14 0
BBX 12 15 1 0
BITMAP
03E0
0FF0
1E70
3C70
38F0
78E0
71C0
F780
FC00
F000
F020
F060
78C0
7F80
1E00
ENDCHAR
STARTCHAR f
ENCODING 102
SWIDTH 333 0
DWIDTH 11 0
BBX 20 30 -5 -7
BITMAP
0003E0
000770
000E70
000E60
001E00
001C00
003C00
003C00
003C00
01FF80
007C00
007800
007800
007800
00F800
00F000
00F000
00F000
00F000
01E000
01E000
01E000
03C000
03C000
038000
078000
670000
E70000
EE0000
7C0000
ENDCHAR
STARTCHAR g
ENCODING 103
SWIDTH 500 0
DWIDTH 16 0
BBX 18 22 -1 -7
BITMAP
01F800
07FFC0
0F8FC0
0F0700
1F0700
1E0700
1E0E00
1F3E00
0FFC00
07E000
0E0000
1C0000
1F8000
1FF000
0FF800
1FF800
707C00
E01C00
E01C00
F03C00
787800
1FE000
ENDCHAR
STARTCHAR h
ENCODING 104
SWIDTH 556 0
DWIDTH 18 0
BBX 16 23 1 0
BITMAP
0380
3F80
1F80
0780
0F00
0F00
0F00
1F00
1E3C
1E7E
1EDE
3F1E
3E1E
3E3C
3C3C
7C3C
7878
7878
7879
F0F3
F0F6
F0FC
F078
ENDCHAR
STARTCHAR i
ENCODING 105
SWIDTH 278 0
DWIDTH 9 0
BBX 8 23 1 0
BITMAP
06
0F
0F
0F
06
00
00
00
1E
FE
3C
3C
3C
78
78
78
78
F0
F2
F6
FC
F8
70
ENDCHAR
STARTCHAR j
ENCODING 106
SWIDTH 278 0
DWIDTH 9 0
BBX 14 30 -4 -7
BITMAP
0018
003C
003C
003C
0018
0000
0000
0000
0078
03F8
00F0
00F0
00F0
01E0
01E0
01E0
01E0
03C0
03C0
03C0
03C0
07C0
0780
0780
0780
0F00
4F00
EE00
FC00
7800
ENDCHAR
STARTCHAR k
ENCODING 107
SWIDTH 500 0
DWIDTH 16 0
BBX 16 23 1 0
BITMAP
0380
1F80
0F80
0780
0700
0F00
0F00
0F00
0E3F
0E1C
1E38
1E30
1E60
1CC0
3D80
3F80
3FC0
3BC0
79E0
79E2
70F6
F0FC
F078
ENDCHAR
STARTCHAR l
ENCODING 108
SWIDTH 278 0
DWIDTH 9 0
BBX 9 23 1 0
BITMAP
0380
3F80
1F80
0780
0F00
0F00
0F00
1E00
1E00
1E00
1E00
3C00
3C00
3C00
7C00
7800
7800
7800
F200
F600
FC00
F800
7000
ENDCHAR
STARTCHAR m
ENCODING 109
SWIDTH 778 0
DWIDTH 25 0
BBX 23 15 1 0
BITMAP
1C7C7C
FDFDFE
3FBFBE
3F1F1E
3E1E1E
3C3C3C
3C3C3C
3C3C3C
787878
787878
787878
F0F0F2
F0F0F6
F0F0FC
F0F078
ENDCHAR
STARTCHAR n
ENCODING 110
SWIDTH 556 0
DWIDTH 18 0
BBX 15 15 1 0
BITMAP
1E3C
FE7E
1CFE
3D9E
3E1E
3C3C
3C3C
3C3C
7878
7878
7878
F0F2
F0F6
F0FC
F078
ENDCHAR
STARTCHAR o
ENCODING 111
SWIDTH 500 0
DWIDTH 16 0
BBX 15 15 1 0
BITMAP
01F0
073C
1E1C
1C1E
3C1E
7C1E
783E
F83E
F83C
F07C
F078
F070
70F0
79E0
1F80
ENDCHAR
STARTCHAR p
ENCODING 112
SWIDTH 500 0
DWIDTH 16 0
BBX 19 22 -3 -7
BITMAP
01E780
0FEFC0
03EBE0
03F1E0
03E1E0
03C1E0
03C3E0
03C3E0
0783C0
0787C0
078780
078700
0F0E00
0FBC00
0FF000
0F0000
1E0000
1E0000
1E0000
3E0000
3E0000
FF8000
ENDCHAR
STARTCHAR q
ENCODING 113
SWIDTH 500 0
DWIDTH 16 0
BBX 15 22 0 -7
BITMAP
01EE
077E
0E3E
1C3E
3C3C
7C3C
783C
F87C
F878
F078
F0F8
F1F0
73F0
7EF0
1DF0
01E0
01E0
01E0
03E0
03C0
07C0
1FF0
ENDCHAR
STARTCHAR r
ENCODING 114
SWIDTH 389 0
DWIDTH 13 0
BBX 14 15 0 0
BITMAP
0F18
7F3C
1E7C
1EFC
1F98
1F00
1E00
3E00
3C00
3C00
3C00
7800
7800
7800
F800
ENDCHAR
STARTCHAR s
ENCODING 115
SWIDTH 389 0
DWIDTH 13 0
BBX 11 15 1 0
BITMAP
0FA0
1DE0
3860
3C60
3C20
3E00
1F00
1F80
0F80
07C0
87C0
C3C0
C380
F700
BE00
ENDCHAR
STARTCHAR t
ENCODING 116
SWIDTH 278 0
DWIDTH 9 0
BBX 9 20 1 0
BITMAP
0100
0300
0700
0E00
3E00
7F80
FF80
3C00
3C00
3C00
7800
7800
7800
7800
F000
F200
F600
FC00
F800
7000
ENDCHAR
STARTCHAR u
ENCODING 117
SWIDTH 556 0
DWIDTH 18 0
BBX 15 15 1 0
BITMAP
1E1E
FE1E
3C1E
3C3C
3C3C
3C3C
787C
7878
78F8
70F8
F0F0
F1F2
F376
FE7C
7878
ENDCHAR
STARTCHAR v
ENCODING 118
SWIDTH 444 0
DWIDTH 15 0
BBX 14 15 1 0
BITMAP
1C18
FC3C
3C3C
3C18
3C18
3C30
1E30
1E60
1E60
1EC0
1F80
1F00
1E00
1C00
1800
ENDCHAR
STARTCHAR w
ENCODING 119
SWIDTH 667 0
DWIDTH 22 0
BBX 21 15 1 0
BITMAP
1C0830
FC1878
3C1878
3C3838
1E7C30
1E7C60
1EDC60
1EBCC0
1F3D80
1F3D80
1E3F00
1C3E00
1C3C00
183800
183000
ENDCHAR
STARTCHAR x
ENCODING 120
SWIDTH 500 0
DWIDTH 16 0
BBX 16 15 0 0
BITMAP
0F06
3F8F
079F
03B6
03E0
03C0
01C0
01C0
03E0
03E0
06E0
6CF6
F8FC
F0F8
6070
ENDCHAR
STARTCHAR y
ENCODING 121
SWIDTH 444 0
DWIDTH 15 0
BBX 16 22 -2 -7
BITMAP
0386
1F8F
078F
0787
03C3
03C2
03C6
03C4
03CC
01C8
01D8
01F0
01F0
01E0
01E0
01C0
0180
0180
6300
FE00
FC00
7000
ENDCHAR
STARTCHAR z
ENCODING 122
SWIDTH 389 0
DWIDTH 13 0
BBX 14 17 -1 -2
BITMAP
1FFC
1FFC
3FF8
2030
0060
00C0
0180
0300
0600
0C00
1800
3000
7C10
FF38
EFB8
87F0
01E0
ENDCHAR
STARTCHAR braceleft
ENCODING 123
SWIDTH 348 0
DWIDTH 12 0
BBX 12 30 2 -6
BITMAP
0070
01C0
0380
0780
0700
0700
0700
0E00
0E00
0E00
0E00
1C00
3C00
F800
6000
3000
3800
3800
3800
7800
7800
7000
7000
7000
F000
E000
E000
E000
7000
1800
ENDCHAR
STARTCHAR bar
ENCODING 124
SWIDTH 220 0
DWIDTH 7 0
BBX 3 23 2 0
BITMAP
E0
E0
E0
E0
E0
E0
E0
E0
E0
E0
E0
E0
E0
E0
E0
E0
E0
E0
E0
E0
E0
E0
E0
ENDCHAR
STARTCHAR braceright
ENCODING 125
SWIDTH 348 0
DWIDTH 12 0
BBX 12 30 -2 -6
BITMAP
0180
00E0
0070
0070
0070
00F0
00E0
00E0
00E0
01E0
01E0
01C0
01C0
00E0
00F0
01E0
03C0
0380
0380
0700
0700
0700
0700
0E00
0E00
0E00
1E00
1C00
3800
E000
ENDCHAR
STARTCHAR asciitilde
ENCODING 126
SWIDTH 570 0
DWIDTH 19 0
BBX 17 6 1 6
BITMAP
0F0000
3F8300
7FC780
F1FF00
60FE00
007800
ENDCHAR
STARTCHAR space
ENCODING 160
SWIDTH 250 0
DWIDTH 8 0
BBX 1 1 0 0
BITMAP
00
ENDCHAR
STARTCHAR exclamdown
ENCODING 161
SWIDTH 389 0
DWIDTH 13 0
BBX 10 23 1 -7
BITMAP
0380
07C0
07C0
07C0
0380
0000
0000
0600
0600
0600
0C00
0C00
1C00
1C00
3C00
3C00
7C00
7C00
FC00
FC00
F800
F800
7000
ENDCHAR
STARTCHAR cent
ENCODING 162
SWIDTH 500 0
DWIDTH 17 0
BBX 13 24 2 -5
BITMAP
0008
0018
0010
0030
01F0
0738
1E78
1C78
3C78
78C0
7880
F880
F180
F100
F320
FA60
FAC0
7F80
3F00
0400
0C00
0800
0800
0800
ENDCHAR
STARTCHAR sterling
ENCODING 163
SWIDTH 500 0
DWIDTH 17 0
BBX 18 23 -1 0
BITMAP
000F00
003F80
0073C0
0073C0
00E180
00E000
01E000
01E000
01E000
03E000
03E000
1FFC00
1FFC00
03C000
03C000
038000
038000
1F0000
7F0200
C78600
87FC00
CDFC00
787800
ENDCHAR
STARTCHAR currency
ENCODING 164
SWIDTH 500 0
DWIDTH 17 0
BBX 17 16 0 4
BITMAP
67F300
FFFF80
FFFF80
7C1F00
780F00
F00780
F00780
E00380
E00380
F00780
F00780
780F00
7C1F00
FFFF80
FFFF80
67F300
ENDCHAR
STARTCHAR yen
ENCODING 165
SWIDTH 500 0
DWIDTH 17 0
BBX 19 23 1 0
BITMAP
FF8FE0
7E0380
3E0380
3E0300
3E0600
1F0E00
1F0C00
1F1800
0F3800
0FB000
0FE000
0FE000
07C000
7FF800
7FF800
0F8000
0F8000
FFF000
FFF000
1F0000
1F0000
3F0000
FFC000
ENDCHAR
STARTCHAR brokenbar
ENCODING 166
SWIDTH 220 0
DWIDTH 7 0
BBX 3 23 2 0
BITMAP
E0
E0
E0
E0
E0
E0
E0
E0
E0
00
00
00
00
00
E0
E0
E0
E0
E0
E0
E0
E0
E0
ENDCHAR
STARTCHAR section
ENCODING 167
SWIDTH 500 0
DWIDTH 17 0
BBX 13 28 2 -5
BITMAP
07C0
0E60
18F0
18F0
1860
1C00
1E00
0F00
0F80
3FC0
67E0
C3F0
E1F0
F0F8
F878
7C30
7E30
3F60
1FC0
0F00
0780
03C0
01C0
61C0
F1C0
F180
6700
3E00
ENDCHAR
STARTCHAR dieresis
ENCODING 168
SWIDTH 333 0
DWIDTH 11 0
BBX 11 4 2 17
BITMAP
60C0
F1E0
F1E0
60C0
ENDCHAR
STARTCHAR copyright
ENCODING 169
SWIDTH 747 0
DWIDTH 25 0
BBX 23 23 1 0
BITMAP
00FE00
03FF80
0F83E0
1E00F0
3C0078
380038
707E1C
60E70C
E1C10E
C1C106
C38006
C38006
C38006
C38006
C1C006
E1C10E
60E70C
707C1C
380038
1E00F0
0F83E0
03FF80
00FE00
ENDCHAR
STARTCHAR ordfeminine
ENCODING 170
SWIDTH 266 0
DWIDTH 9 0
BBX 11 14 -1 9
BITMAP
0EC0
1FC0
39C0
31C0
71C0
6380
6380
67A0
7FE0
3CC0
0000
0000
FF00
FF00
ENDCHAR
STARTCHAR guillemotleft
ENCODING 171
SWIDTH 500 0
DWIDTH 16 0
BBX 16 13 0 1
BITMAP
0183
0387
070E
0E1C
1C38
3870
70E0
E1C0
70E0
3870
1C38
0E1C
060C
ENDCHAR
STARTCHAR logicalnot
ENCODING 172
SWIDTH 606 0
DWIDTH 20 0
BBX 17 9 1 4
BITMAP
FFFF80
FFFF80
FFFF80
000380
000380
000380
000380
000380
000380
ENDCHAR
STARTCHAR hyphen
ENCODING 173
SWIDTH 333 0
DWIDTH 11 0
BBX 9 4 1 5
BITMAP
7F80
FF80
FF80
FF00
ENDCHAR
STARTCHAR registered
ENCODING 174
SWIDTH 747 0
DWIDTH 25 0
BBX 23 23 1 0
BITMAP
00FE00
03FF80
0F83E0
1E00F0
3C0078
380038
73FC1C
71CE0C
E1C70E
E1C70E
C1C706
C1CE06
C1F806
C1CE06
E1CE0E
E1C70E
71C79C
7BE3DC
3C0038
1E0078
0F81F0
03FFC0
00FF00
ENDCHAR
STARTCHAR macron
ENCODING 175
SWIDTH 333 0
DWIDTH 11 0
BBX 11 2 1 18
BITMAP
FFE0
FFE0
ENDCHAR
STARTCHAR degree
ENCODING 176
SWIDTH 400 0
DWIDTH 13 0
BBX 10 10 2 13
BITMAP
1E00
7F80
7380
E1C0
C0C0
C0C0
E1C0
7380
7F80
1E00
ENDCHAR
STARTCHAR plusminus
ENCODING 177
SWIDTH 570 0
DWIDTH 19 0
BBX 17 23 1 0
BITMAP
01C000
01C000
01C000
01C000
01C000
01C000
01C000
01C000
FFFF80
FFFF80
FFFF80
01C000
01C000
01C000
01C000
01C000
01C000
01C000
000000
000000
FFFF80
FFFF80
FFFF80
ENDCHAR
STARTCHAR twosuperior
ENCODING 178
SWIDTH 300 0
DWIDTH 10 0
BBX 10 14 0 9
BITMAP
0F00
3F80
33C0
61C0
41C0
01C0
0380
0700
0E00
1C00
3840
7040
FFC0
FFC0
ENDCHAR
STARTCHAR threesuperior
ENCODING 179
SWIDTH 300 0
DWIDTH 10 0
BBX 10 14 1 9
BITMAP
0F00
3F80
63C0
41C0
01C0
0380
0F00
0380
01C0
01C0
C1C0
C3C0
6780
3E00
ENDCHAR
STARTCHAR acute
ENCODING 180
SWIDTH 333 0
DWIDTH 11 0
BBX 7 6 3 17
BITMAP
0E
1E
3E
78
E0
C0
ENDCHAR
STARTCHAR mu
ENCODING 181
SWIDTH 576 0
DWIDTH 19 0
BBX 18 22 -1 -7
BITMAP
01C3C0
1FC3C0
0783C0
078780
078780
078780
0F0F80
0F0F00
0F1F00
0E1F00
1E3E00
1E7E40
1EDEC0
1F9F80
1F0F00
100000
300000
600000
600000
E00000
E00000
C00000
ENDCHAR
STARTCHAR paragraph
ENCODING 182
SWIDTH 500 0
DWIDTH 17 0
BBX 17 29 2 -6
BITMAP
03FF80
07FF80
1FCC00
3FCC00
3F8C00
7F9800
7F9800
FF9800
FF1800
FF3000
FF3000
FE3000
7E7000
7E6000
3E6000
0C6000
0CE000
0CC000
1CC000
18C000
198000
198000
398000
318000
330000
330000
630000
670000
660000
ENDCHAR
STARTCHAR periodcentered
ENCODING 183
SWIDTH 250 0
DWIDTH 8 0
BBX 5 5 1 6
BITMAP
70
F8
F8
F8
70
ENDCHAR
STARTCHAR cedilla
ENCODING 184
SWIDTH 333 0
DWIDTH 11 0
BBX 7 7 0 -7
BITMAP
10
30
7C
0E
86
C6
7C
ENDCHAR
STARTCHAR onesuperior
ENCODING 185
SWIDTH 300 0
DWIDTH 10 0
BBX 9 14 0 9
BITMAP
0180
1F80
0700
0700
0700
0E00
0E00
0E00
1E00
1C00
1C00
1C00
3800
FE00
ENDCHAR
STARTCHAR ordmasculine
ENCODING 186
SWIDTH 300 0
DWIDTH 10 0
BBX 10 14 0 9
BITMAP
0F00
1D80
31C0
71C0
71C0
E380
E380
E300
6600
3C00
0000
0000
FF00
FF00
ENDCHAR
STARTCHAR guillemotright
ENCODING 187
SWIDTH 500 0
DWIDTH 16 0
BBX 16 13 -1 1
BITMAP
3060
3870
1C38
0E1C
070E
0387
070E
0E1C
1C38
3870
70E0
E1C0
C180
ENDCHAR
STARTCHAR onequarter
ENCODING 188
SWIDTH 750 0
DWIDTH 25 0
BBX 24 23 0 0
BITMAP
018018
1F8018
070030
070070
070060
0E00C0
0E00C0
0E0180
1E0300
1C0303
1C060F
1C0E1E
380C3E
FE186E
0018CE
00319C
00631C
00661C
00CFFE
018FFE
018038
030070
030070
ENDCHAR
STARTCHAR onehalf
ENCODING 189
SWIDTH 750 0
DWIDTH 25 0
BBX 24 23 0 0
BITMAP
018018
1F8018
070030
070070
070060
0E00C0
0E00C0
0E0180
1E0300
1C033C
1C067E
1C0EFF
380D87
FE1907
001806
00300E
00601C
006038
00C070
0180E2
0181C6
0303FE
0307FE
ENDCHAR
STARTCHAR threequarters
ENCODING 190
SWIDTH 750 0
DWIDTH 25 0
BBX 22 23 1 0
BITMAP
0F0030
3F8070
63C060
41C0C0
01C1C0
038180
0F0300
038300
01C600
00CC0C
C0CC1C
E1D83C
77B87C
3F30DC
00619C
006338
00C638
018C38
019FFC
031FFC
060070
0600E0
0C00E0
ENDCHAR
STARTCHAR questiondown
ENCODING 191
SWIDTH 500 0
DWIDTH 16 0
BBX 12 23 1 -7
BITMAP
00E0
01F0
01F0
01F0
00E0
0000
0000
0080
0080
0180
0100
0700
0E00
1E00
3C00
7800
7800
F0C0
F1E0
F1E0
F0C0
79C0
1F00
ENDCHAR
STARTCHAR Agrave
ENCODING 192
SWIDTH 667 0
DWIDTH 21 0
BBX 21 30 -1 0
BITMAP
007000
007800
007C00
001E00
000700
000300
000000
000200
000600
000700
000F00
001F00
001F00
003F00
002F00
006F80
004F80
00CF80
018F80
018780
030780
0207C0
07FFC0
0FFFC0
0C07C0
1807C0
1803C0
3003E0
7007E0
FC1FF8
ENDCHAR
STARTCHAR Aacute
ENCODING 193
SWIDTH 667 0
DWIDTH 21 0
BBX 21 30 -1 0
BITMAP
000070
0000F0
0001F0
0003C0
000700
000600
000000
000200
000600
000700
000F00
001F00
001F00
003F00
002F00
006F80
004F80
00CF80
018F80
018780
030780
0207C0
07FFC0
0FFFC0
0C07C0
1807C0
1803C0
3003E0
7007E0
FC1FF8
ENDCHAR
STARTCHAR Acircumflex
ENCODING 194
SWIDTH 667 0
DWIDTH 21 0
BBX 21 30 -1 0
BITMAP
000700
000F80
001F80
0039C0
0070C0
006060
000000
000200
000600
000700
000F00
001F00
001F00
003F00
002F00
006F80
004F80
00CF80
018F80
018780
030780
0207C0
07FFC0
0FFFC0
0C07C0
1807C0
1803C0
3003E0
7007E0
FC1FF8
ENDCHAR
STARTCHAR Atilde
ENCODING 195
SWIDTH 667 0
DWIDTH 21 0
BBX 21 28 -1 0
BITMAP
001F18
003FB8
0077F0
0063E0
000000
000200
000600
000700
000F00
001F00
001F00
003F00
002F00
006F80
004F80
00CF80
018F80
018780
030780
0207C0
07FFC0
0FFFC0
0C07C0
1807C0
1803C0
3003E0
7007E0
FC1FF8
ENDCHAR
STARTCHAR Adieresis
ENCODING 196
SWIDTH 667 0
DWIDTH 21 0
BBX 21 29 -1 0
BITMAP
003060
0078F0
0078F0
003060
000000
000000
000200
000600
000700
000F00
001F00
001F00
003F00
002F00
006F80
004F80
00CF80
018F80
018780
030780
0207C0
07FFC0
0FFFC0
0C07C0
1807C0
1803C0
3003E0
7007E0
FC1FF8
ENDCHAR
STARTCHAR Aring
ENCODING 197
SWIDTH 667 0
DWIDTH 21 0
BBX 21 30 -1 0
BITMAP
000700
000F80
001CC0
0018C0
0018C0
001DC0
000F80
000700
000600
000700
000F00
001F00
001F00
003F00
002F00
006F80
004F80
00CF80
018F80
018780
030780
0207C0
07FFC0
0FFFC0
0C07C0
1807C0
1803C0
3003E0
7007E0
FC1FF8
ENDCHAR
STARTCHAR AE
ENCODING 198
SWIDTH 944 0
DWIDTH 31 0
BBX 32 23 -1 0
BITMAP
0007FFFF
0001FE0F
0003FC07
00037C06
00067C06
000EF806
001CF804
0018F820
0038F820
0071F860
0061F0E0
00C1FFE0
01C1F1C0
03FFE0C0
0303E0C0
0703E080
0E03E000
1C07C004
1C07C00C
3807C01C
700FC038
700FC0F8
FC3FFFF8
ENDCHAR
STARTCHAR Ccedilla
ENCODING 199
SWIDTH 667 0
DWIDTH 21 0
BBX 21 30 1 -7
BITMAP
003FC8
00FFF8
03E078
07C030
0F8030
1F0030
3F0020
3E0020
7E0000
7C0000
7C0000
F80000
F80000
F80000
F80000
F80000
F80000
F80000
7C0040
7C0180
3F0700
0FFC00
03F000
018000
030000
07C000
00E000
086000
0C6000
07C000
ENDCHAR
STARTCHAR Egrave
ENCODING 200
SWIDTH 667 0
DWIDTH 22 0
BBX 22 30 -1 0
BITMAP
007000
007800
007C00
001E00
000700
000300
000000
07FFFC
01F83C
01F01C
01F018
01F018
03E018
03E010
03E080
03E080
07E180
07C780
07FF80
07C700
0F8300
0F8300
0F8200
0F8000
1F0010
1F0030
1F0070
3F00E0
3F03E0
FFFFE0
ENDCHAR
STARTCHAR Eacute
ENCODING 201
SWIDTH 667 0
DWIDTH 22 0
BBX 22 30 -1 0
BITMAP
000070
0000F0
0001F0
0003C0
000700
000600
000000
07FFFC
01F83C
01F01C
01F018
01F018
03E018
03E010
03E080
03E080
07E180
07C780
07FF80
07C700
0F8300
0F8300
0F8200
0F8000
1F0010
1F0030
1F0070
3F00E0
3F03E0
FFFFE0
ENDCHAR
STARTCHAR Ecircumflex
ENCODING 202
SWIDTH 667 0
DWIDTH 22 0
BBX 22 30 -1 0
BITMAP
000700
000F80
001F80
0039C0
0070E0
00E070
000000
07FFFC
01F83C
01F01C
01F018
01F018
03E018
03E010
03E080
03E080
07E180
07C780
07FF80
07C700
0F8300
0F8300
0F8200
0F8000
1F0010
1F0030
1F0070
3F00E0
3F03E0
FFFFE0
ENDCHAR
STARTCHAR Edieresis
ENCODING 203
SWIDTH 667 0
DWIDTH 22 0
BBX 22 29 -1 0
BITMAP
003060
0078F0
0078F0
003060
000000
000000
07FFFC
01F83C
01F01C
01F018
01F018
03E018
03E010
03E080
03E080
07E180
07C780
07FF80
07C700
0F8300
0F8300
0F8200
0F8000
1F0010
1F0030
1F0070
3F00E0
3F03E0
FFFFE0
ENDCHAR
STARTCHAR Igrave
ENCODING 204
SWIDTH 389 0
DWIDTH 13 0
BBX 15 30 -1 0
BITMAP
0380
03C0
03E0
00F0
0038
0018
0000
07FE
01F8
01F8
01F0
01F0
01F0
03E0
03E0
03E0
03E0
07C0
07C0
07C0
07C0
0F80
0F80
0F80
0F80
1F00
1F00
1F00
3F00
FFC0
ENDCHAR
STARTCHAR Iacute
ENCODING 205
SWIDTH 389 0
DWIDTH 13 0
BBX 15 30 -1 0
BITMAP
000E
001E
003E
0078
00E0
00C0
0000
07FE
01F8
01F8
01F0
01F0
01F0
03E0
03E0
03E0
03E0
07C0
07C0
07C0
07C0
0F80
0F80
0F80
0F80
1F00
1F00
1F00
3F00
FFC0
ENDCHAR
STARTCHAR Icircumflex
ENCODING 206
SWIDTH 389 0
DWIDTH 13 0
BBX 15 30 -1 0
BITMAP
0070
00F8
01F8
039C
070E
0606
0000
07FE
01F8
01F8
01F0
01F0
01F0
03E0
03E0
03E0
03E0
07C0
07C0
07C0
07C0
0F80
0F80
0F80
0F80
1F00
1F00
1F00
3F00
FFC0
ENDCHAR
STARTCHAR Idieresis
ENCODING 207
SWIDTH 389 0
DWIDTH 13 0
BBX 16 29 -1 0
BITMAP
0306
078F
078F
0306
0000
0000
07FE
01F8
01F8
01F0
01F0
01F0
03E0
03E0
03E0
03E0
07C0
07C0
07C0
07C0
0F80
0F80
0F80
0F80
1F00
1F00
1F00
3F00
FFC0
ENDCHAR
STARTCHAR Eth
ENCODING 208
SWIDTH 722 0
DWIDTH 23 0
BBX 24 23 -1 0
BITMAP
0FFFC0
03F8F0
01F078
01F03C
03E03E
03E01E
03E01E
03E01F
07E01F
07C01F
3FFC1F
3FFC1F
3FFC3F
0F803F
0F803E
0F803E
1F007C
1F00FC
1F00F8
1F01F0
3E03C0
7F0F80
FFFC00
ENDCHAR
STARTCHAR Ntilde
ENCODING 209
SWIDTH 722 0
DWIDTH 24 0
BBX 26 28 -1 0
BITMAP
000F8C00
001FDC00
003BF800
0031F000
00000000
07E01FC0
03F00F80
01F00700
01F80700
01F80600
037C0600
037C0600
033E0C00
023E0C00
063F0C00
061F0C00
061F1800
0C0F9800
0C0F9800
0C07D000
0C07F000
1803F000
1803F000
1803F000
3801E000
3801E000
7C00E000
FE00E000
ENDCHAR
STARTCHAR Ograve
ENCODING 210
SWIDTH 722 0
DWIDTH 23 0
BBX 22 30 1 0
BITMAP
007000
007800
007C00
001E00
000700
000300
000000
001F80
00FFE0
01E0F0
03C078
078078
0F007C
1F007C
3E007C
3E007C
3E007C
7C00FC
7C00F8
FC00F8
F801F0
F801F0
F801F0
F803E0
F803C0
780780
780F00
3C1E00
1FFC00
07E000
ENDCHAR
STARTCHAR Oacute
ENCODING 211
SWIDTH 722 0
DWIDTH 23 0
BBX 22 30 1 0
BITMAP
000070
0000F0
0001F0
0003C0
000700
000600
000000
001F80
00FFE0
01E0F0
03C078
078078
0F007C
1F007C
3E007C
3E007C
3E007C
7C00FC
7C00F8
FC00F8
F801F0
F801F0
F801F0
F803E0
F803C0
780780
780F00
3C1E00
1FFC00
07E000
ENDCHAR
STARTCHAR Ocircumflex
ENCODING 212
SWIDTH 722 0
DWIDTH 23 0
BBX 22 30 1 0
BITMAP
000700
000F80
001F80
0039C0
0070E0
00E070
000000
001F80
00FFE0
01E0F0
03C078
078078
0F007C
1F007C
3E007C
3E007C
3E007C
7C00FC
7C00F8
FC00F8
F801F0
F801F0
F801F0
F803E0
F803C0
780780
780F00
3C1E00
1FFC00
07E000
ENDCHAR
STARTCHAR Otilde
ENCODING 213
SWIDTH 722 0
DWIDTH 23 0
BBX 22 29 1 0
BITMAP
000F8C
001FDC
003BF8
0031F0
000000
000000
001F80
00FFE0
01E0F0
03C078
078078
0F007C
1F007C
3E007C
3E007C
3E007C
7C00FC
7C00F8
FC00F8
F801F0
F801F0
F801F0
F803E0
F803C0
780780
780F00
3C1E00
1FFC00
07E000
ENDCHAR
STARTCHAR Odieresis
ENCODING 214
SWIDTH 722 0
DWIDTH 23 0
BBX 22 29 1 0
BITMAP
003060
0078F0
0078F0
003060
000000
000000
001F80
00FFE0
01E0F0
03C078
078078
0F007C
1F007C
3E007C
3E007C
3E007C
7C00FC
7C00F8
FC00F8
F801F0
F801F0
F801F0
F803E0
F803C0
780780
780F00
3C1E00
1FFC00
07E000
ENDCHAR
STARTCHAR multiply
ENCODING 215
SWIDTH 570 0
DWIDTH 19 0
BBX 17 17 1 0
BITMAP
200200
700700
F80F80
7C1F00
3E3E00
1F7C00
0FF800
07F000
03E000
07F000
0FF800
1F7C00
3E3E00
7C1F00
F80F80
700700
200200
ENDCHAR
STARTCHAR Oslash
ENCODING 216
SWIDTH 722 0
DWIDTH 23 0
BBX 22 30 1 -4
BITMAP
000030
000020
000060
001FC0
00FFE0
01E1F0
03C178
078378
0F027C
1F067C
3E0C7C
3E0C7C
3E187C
7C10FC
7C30F8
FC60F8
F861F0
F8C1F0
F8C1F0
F983E0
F903C0
7B0780
7E0F00
3E1E00
1FFC00
0FE000
180000
100000
300000
200000
ENDCHAR
STARTCHAR Ugrave
ENCODING 217
SWIDTH 722 0
DWIDTH 24 0
BBX 23 30 3 0
BITMAP
007000
007800
007C00
001E00
000700
000300
000000
7FE07E
1F803C
1F8018
1F0018
1F0030
3F0030
3E0030
3E0060
3E0060
7E0060
7C00C0
7C00C0
7C00C0
F80180
F80180
F80180
F80300
F80300
F80600
7C0E00
7E1C00
3FF800
0FE000
ENDCHAR
STARTCHAR Uacute
ENCODING 218
SWIDTH 722 0
DWIDTH 24 0
BBX 23 30 3 0
BITMAP
0001C0
0003C0
0007C0
000F00
001C00
001800
000000
7FE07E
1F803C
1F8018
1F0018
1F0030
3F0030
3E0030
3E0060
3E0060
7E0060
7C00C0
7C00C0
7C00C0
F80180
F80180
F80180
F80300
F80300
F80600
7C0E00
7E1C00
3FF800
0FE000
ENDCHAR
STARTCHAR Ucircumflex
ENCODING 219
SWIDTH 722 0
DWIDTH 24 0
BBX 23 30 3 0
BITMAP
000E00
001F00
003F00
007380
00E1C0
01C0E0
000000
7FE07E
1F803C
1F8018
1F0018
1F0030
3F0030
3E0030
3E0060
3E0060
7E0060
7C00C0
7C00C0
7C00C0
F80180
F80180
F80180
F80300
F80300
F80600
7C0E00
7E1C00
3FF800
0FE000
ENDCHAR
STARTCHAR Udieresis
ENCODING 220
SWIDTH 722 0
DWIDTH 24 0
BBX 23 29 3 0
BITMAP
0060C0
00F1E0
00F1E0
0060C0
000000
000000
7FE07E
1F803C
1F8018
1F0018
1F0030
3F0030
3E0030
3E0060
3E0060
7E0060
7C00C0
7C00C0
7C00C0
F80180
F80180
F80180
F80300
F80300
F80600
7C0E00
7E1C00
3FF800
0FE000
ENDCHAR
STARTCHAR Yacute
ENCODING 221
SWIDTH 611 0
DWIDTH 20 0
BBX 19 30 2 0
BITMAP
000380
000780
000F80
001E00
003800
003000
000000
FF8FE0
7E03C0
3E0380
3E0300
1E0600
1F0600
1F0C00
0F1800
0F9800
0FB000
0FE000
07C000
07C000
07C000
0F8000
0F8000
0F8000
0F8000
1F0000
1F0000
1F0000
3F0000
FFC000
ENDCHAR
STARTCHAR Thorn
ENCODING 222
SWIDTH 611 0
DWIDTH 20 0
BBX 20 23 -1 0
BITMAP
07FE00
01F800
01F000
01F000
03F000
03FF80
03E3E0
03E1E0
07E1F0
07C1F0
07C1F0
07C1F0
0FC1E0
0F83E0
0F87C0
0F8FC0
1FFF00
1F0000
1F0000
1F0000
3E0000
7F0000
FFC000
ENDCHAR
STARTCHAR germandbls
ENCODING 223
SWIDTH 500 0
DWIDTH 16 0
BBX 23 30 -6 -7
BITMAP
0003F0
00073C
000E1E
000E1E
001E1E
001C1E
003C3C
003C38
003C70
003D80
003DC0
0078E0
007870
007878
007838
00F038
00F038
00F038
00F078
01E070
01E0F0
01E1E0
03EFC0
03C000
03C000
038000
678000
E70000
EE0000
7C0000
ENDCHAR
STARTCHAR agrave
ENCODING 224
SWIDTH 500 0
DWIDTH 16 0
BBX 14 24 0 0
BITMAP
0E00
0F00
0F80
03C0
00E0
0060
0000
0000
0000
039C
0FDC
1E7C
3C3C
7838
7878
F878
F078
F0F0
F0F0
F0F4
F1EC
7F78
7E70
1C60
ENDCHAR
STARTCHAR aacute
ENCODING 225
SWIDTH 500 0
DWIDTH 16 0
BBX 15 24 0 0
BITMAP
000E
001E
003E
0078
00E0
00C0
0000
0000
0000
039C
0FDC
1E7C
3C3C
7838
7878
F878
F078
F0F0
F0F0
F0F4
F1EC
7F78
7E70
1C60
ENDCHAR
STARTCHAR acircumflex
ENCODING 226
SWIDTH 500 0
DWIDTH 16 0
BBX 14 24 0 0
BITMAP
00E0
01F0
03F0
0738
0E18
0C0C
0000
0000
0000
039C
0FDC
1E7C
3C3C
7838
7878
F878
F078
F0F0
F0F0
F0F4
F1EC
7F78
7E70
1C60
ENDCHAR
STARTCHAR atilde
ENCODING 227
SWIDTH 500 0
DWIDTH 16 0
BBX 15 21 0 0
BITMAP
0786
0FCE
1CFC
1878
0000
0000
039C
0FDC
1E7C
3C3C
7838
7878
F878
F078
F0F0
F0F0
F0F4
F1EC
7F78
7E70
1C60
ENDCHAR
STARTCHAR adieresis
ENCODING 228
SWIDTH 500 0
DWIDTH 16 0
BBX 15 21 0 0
BITMAP
060C
0F1E
0F1E
060C
0000
0000
039C
0FDC
1E7C
3C3C
7838
7878
F878
F078
F0F0
F0F0
F0F4
F1EC
7F78
7E70
1C60
ENDCHAR
STARTCHAR aring
ENCODING 229
SWIDTH 500 0
DWIDTH 16 0
BBX 14 23 0 0
BITMAP
00E0
01F0
0398
0318
0318
03B8
01F0
00E0
039C
0FDC
1E7C
3C3C
7838
7878
F878
F078
F0F0
F0F0
F0F4
F1EC
7F78
7E70
1C60
ENDCHAR
STARTCHAR ae
ENCODING 230
SWIDTH 722 0
DWIDTH 23 0
BBX 22 15 1 0
BITMAP
01EEF8
077F8C
0E3F1C
1C3E1C
3C3E3C
7C3C38
783CF0
F87FC0
F87E00
F07800
F0F810
F1F830
73BC60
7E3FC0
1C1F80
ENDCHAR
STARTCHAR ccedilla
ENCODING 231
SWIDTH 444 0
DWIDTH 14 0
BBX 13 22 1 -7
BITMAP
01F0
07F8
0E78
1C78
3C30
7800
7800
F000
F000
F000
F020
F060
78C0
7F80
1E00
0800
1800
3E00
0700
4300
6300
3E00
ENDCHAR
STARTCHAR egrave
ENCODING 232
SWIDTH 444 0
DWIDTH 14 0
BBX 12 23 1 0
BITMAP
0E00
0F00
0F80
03C0
00E0
0060
0000
0000
03E0
0FF0
1E70
3C70
38F0
78E0
71C0
F780
FC00
F000
F020
F060
78C0
7F80
1E00
ENDCHAR
STARTCHAR eacute
ENCODING 233
SWIDTH 444 0
DWIDTH 14 0
BBX 13 23 1 0
BITMAP
0038
0078
00F8
01E0
0380
0300
0000
0000
03E0
0FF0
1E70
3C70
38F0
78E0
71C0
F780
FC00
F000
F020
F060
78C0
7F80
1E00
ENDCHAR
STARTCHAR ecircumflex
ENCODING 234
SWIDTH 444 0
DWIDTH 14 0
BBX 14 23 1 0
BITMAP
00E0
01F0
03F0
0738
0E18
0C0C
0000
0000
03E0
0FF0
1E70
3C70
38F0
78E0
71C0
F780
FC00
F000
F020
F060
78C0
7F80
1E00
ENDCHAR
STARTCHAR edieresis
ENCODING 235
SWIDTH 444 0
DWIDTH 14 0
BBX 15 21 1 0
BITMAP
060C
0F1E
0F1E
060C
0000
0000
03E0
0FF0
1E70
3C70
38F0
78E0
71C0
F780
FC00
F000
F020
F060
78C0
7F80
1E00
ENDCHAR
STARTCHAR igrave
ENCODING 236
SWIDTH 278 0
DWIDTH 9 0
BBX 8 22 1 0
BITMAP
70
78
7C
1E
07
03
00
1E
FE
3C
3C
3C
78
78
78
78
F0
F2
F6
FC
F8
70
ENDCHAR
STARTCHAR iacute
ENCODING 237
SWIDTH 278 0
DWIDTH 9 0
BBX 10 22 1 0
BITMAP
01C0
03C0
07C0
0F00
1C00
1800
0000
1E00
FE00
3C00
3C00
3C00
7800
7800
7800
7800
F000
F200
F600
FC00
F800
7000
ENDCHAR
STARTCHAR icircumflex
ENCODING 238
SWIDTH 278 0
DWIDTH 9 0
BBX 11 23 1 0
BITMAP
0700
0F80
1F80
39C0
70C0
6060
0000
0000
1E00
FE00
3C00
3C00
3C00
7800
7800
7800
7800
F000
F200
F600
FC00
F800
7000
ENDCHAR
STARTCHAR idieresis
ENCODING 239
SWIDTH 278 0
DWIDTH 9 0
BBX 10 21 1 0
BITMAP
6180
F3C0
F3C0
6180
0000
0000
1E00
FE00
3C00
3C00
3C00
7800
7800
7800
7800
F000
F200
F600
FC00
F800
7000
ENDCHAR
STARTCHAR eth
ENCODING 240
SWIDTH 500 0
DWIDTH 16 0
BBX 16 22 1 0
BITMAP
0206
070F
07BF
03F8
1FE0
1E70
0C78
01FC
07FC
0F1E
1C1E
3C1E
7C1E
783E
783E
F83C
F07C
F078
F070
70F0
79C0
1F00
ENDCHAR
STARTCHAR ntilde
ENCODING 241
SWIDTH 556 0
DWIDTH 18 0
BBX 16 21 1 0
BITMAP
03C3
07E7
0E7E
0C3C
0000
0000
1E3C
FE7E
1CFE
3D9E
3E1E
3C3C
3C3C
3C3C
7878
7878
7878
F0F2
F0F6
F0FC
F078
ENDCHAR
STARTCHAR ograve
ENCODING 242
SWIDTH 500 0
DWIDTH 16 0
BBX 15 23 1 0
BITMAP
0700
0780
07C0
01E0
0070
0030
0000
0000
01F0
073C
1E1C
1C1E
3C1E
7C1E
783E
F83E
F83C
F07C
F078
F070
70F0
79E0
1F80
ENDCHAR
STARTCHAR oacute
ENCODING 243
SWIDTH 500 0
DWIDTH 16 0
BBX 16 23 1 0
BITMAP
0007
000F
001F
003C
0070
0060
0000
0000
01F0
073C
1E1C
1C1E
3C1E
7C1E
783E
F83E
F83C
F07C
F078
F070
70F0
79E0
1F80
ENDCHAR
STARTCHAR ocircumflex
ENCODING 244
SWIDTH 500 0
DWIDTH 16 0
BBX 16 23 1 0
BITMAP
0038
007C
00FC
01CE
0386
0303
0000
0000
01F0
073C
1E1C
1C1E
3C1E
7C1E
783E
F83E
F83C
F07C
F078
F070
70F0
79E0
1F80
ENDCHAR
STARTCHAR otilde
ENCODING 245
SWIDTH 500 0
DWIDTH 16 0
BBX 17 21 1 0
BITMAP
01E180
03F380
073F00
061E00
000000
000000
01F000
073C00
1E1C00
1C1E00
3C1E00
7C1E00
783E00
F83E00
F83C00
F07C00
F07800
F07000
70F000
79E000
1F8000
ENDCHAR
STARTCHAR odieresis
ENCODING 246
SWIDTH 500 0
DWIDTH 16 0
BBX 16 21 1 0
BITMAP
0306
078F
078F
0306
0000
0000
01F0
073C
1E1C
1C1E
3C1E
7C1E
783E
F83E
F83C
F07C
F078
F070
70F0
79E0
1F80
ENDCHAR
STARTCHAR divide
ENCODING 247
SWIDTH 570 0
DWIDTH 19 0
BBX 17 17 1 0
BITMAP
01C000
03E000
03E000
03E000
01C000
000000
000000
FFFF80
FFFF80
FFFF80
000000
000000
01C000
03E000
03E000
03E000
01C000
ENDCHAR
STARTCHAR oslash
ENCODING 248
SWIDTH 500 0
DWIDTH 17 0
BBX 15 22 1 -4
BITMAP
000C
000C
0018
01F0
073C
0E3C
1C7E
3CDE
7C9E
79BE
F93E
FB3C
F67C
F478
FC70
78E0
79C0
3F00
2000
6000
4000
4000
ENDCHAR
STARTCHAR ugrave
ENCODING 249
SWIDTH 556 0
DWIDTH 18 0
BBX 15 23 1 0
BITMAP
0E00
0F00
0F80
03C0
00E0
0060
0000
0000
1E1E
FE1E
3C1E
3C3C
3C3C
3C3C
787C
7878
78F8
70F8
F1F0
F3F2
F6F6
FCFC
7878
ENDCHAR
STARTCHAR uacute
ENCODING 250
SWIDTH 556 0
DWIDTH 18 0
BBX 15 23 1 0
BITMAP
000E
001E
003E
0078
00E0
00C0
0000
0000
1E1E
FE1E
3C1E
3C3C
3C3C
3C3C
787C
7878
78F8
70F8
F1F0
F3F2
F6F6
FCFC
7878
ENDCHAR
STARTCHAR ucircumflex
ENCODING 251
SWIDTH 556 0
DWIDTH 18 0
BBX 15 23 1 0
BITMAP
00E0
01F0
03F0
0738
0E18
0C0C
0000
0000
1E1E
FE1E
3C1E
3C3C
3C3C
3C3C
787C
7878
78F8
70F8
F1F0
F3F2
F6F6
FCFC
7878
ENDCHAR
STARTCHAR udieresis
ENCODING 252
SWIDTH 556 0
DWIDTH 18 0
BBX 15 21 1 0
BITMAP
060C
0F1E
0F1E
060C
0000
0000
1E1E
FE1E
3C1E
3C3C
3C3C
3C3C
787C
7878
78F8
70F8
F1F0
F3F2
F6F6
FCFC
7878
ENDCHAR
STARTCHAR yacute
ENCODING 253
SWIDTH 444 0
DWIDTH 15 0
BBX 17 30 -2 -7
BITMAP
000380
000780
000F80
001E00
003800
003000
000000
000000
038600
1F8F00
078F00
078700
03C300
03C200
03C600
03C400
03CC00
01E800
01F800
01F000
01F000
01E000
01E000
01C000
018000
018000
630000
FE0000
FC0000
700000
ENDCHAR
STARTCHAR thorn
ENCODING 254
SWIDTH 500 0
DWIDTH 17 0
BBX 18 30 -2 -7
BITMAP
007800
03F800
00F000
00F000
00F000
01E000
01E000
01E000
01EF80
03DF80
03F7C0
03E3C0
03C3C0
0783C0
0783C0
070780
070780
0F0780
0F0F00
0E1E00
0E1E00
1E7C00
1FF000
1E0000
3E0000
3C0000
3C0000
3C0000
7C0000
FF0000
ENDCHAR
STARTCHAR ydieresis
ENCODING 255
SWIDTH 444 0
DWIDTH 15 0
BBX 16 28 -2 -7
BITMAP
0306
078F
078F
0306
0000
0000
0386
1F8F
078F
0787
03C3
03C2
03C6
03C4
03CC
01E8
01F8
01F0
01F0
01E0
01E0
01C0
0180
0180
6300
FE00
FC00
7000
ENDCHAR
STARTCHAR Amacron
ENCODING 256
SWIDTH 667 0
DWIDTH 21 0
BBX 21 26 -1 0
BITMAP
01FFC0
01FFC0
000000
000200
000600
000700
000F00
001F00
001F00
003F00
002F00
006F80
004F80
00CF80
018F80
018780
030780
0207C0
07FFC0
0FFFC0
0C07C0
1807C0
1803C0
3003E0
7007E0
FC1FF8
ENDCHAR
STARTCHAR amacron
ENCODING 257
SWIDTH 500 0
DWIDTH 16 0
BBX 14 18 0 0
BITMAP
1FFC
1FFC
0000
039C
0FDC
1E7C
3C3C
7838
7878
F878
F078
F0F0
F0F0
F0F4
F1EC
7F78
7E70
1C60
ENDCHAR
STARTCHAR Abreve
ENCODING 258
SWIDTH 667 0
DWIDTH 21 0
BBX 21 29 -1 0
BITMAP
00C0C0
00C0C0
00E1C0
007F80
001E00
000000
000200
000600
000700
000F00
001F00
001F00
003F00
002F00
006F80
004F80
00CF80
018F80
018780
030780
0207C0
07FFC0
0FFFC0
0C07C0
1807C0
1803C0
3003E0
7007E0
FC1FF8
ENDCHAR
STARTCHAR abreve
ENCODING 259
SWIDTH 500 0
DWIDTH 16 0
BBX 14 21 0 0
BITMAP
1818
1818
1C38
0FF0
03C0
0000
039C
0FDC
1E7C
3C3C
7838
7878
F878
F078
F0F0
F0F0
F0F4
F1EC
7F78
7E70
1C60
ENDCHAR
STARTCHAR Aogonek
ENCODING 260
SWIDTH 667 0
DWIDTH 21 0
BBX 21 28 -1 -5
BITMAP
000200
000600
000700
000F00
001F00
001F00
003F00
002F00
006F80
004F80
00CF80
018F80
018780
030780
0207C0
07FFC0
0FFFC0
0C07C0
1807C0
1803C0
3003E0
701FE0
FC3FF8
006000
006000
006600
007E00
003C00
ENDCHAR
STARTCHAR aogonek
ENCODING 261
SWIDTH 500 0
DWIDTH 16 0
BBX 14 20 0 -5
BITMAP
039C
0FDC
1E7C
3C3C
7838
7878
F878
F078
F0F0
F0F0
F0F4
F1EC
7F78
7F70
1E60
0C00
0C00
0CC0
0FC0
0780
ENDCHAR
STARTCHAR Cacute
ENCODING 262
SWIDTH 667 0
DWIDTH 22 0
BBX 21 30 2 0
BITMAP
000380
000780
000F80
001E00
003800
003000
000000
003FC8
00FFF8
03F078
07C030
0F8030
1F0030
3F0020
3E0020
7E0000
7C0000
7C0000
F80000
F80000
F80000
F80000
F80000
F80000
F80000
7C0040
7C0180
3F0700
0FFC00
03F000
ENDCHAR
STARTCHAR cacute
ENCODING 263
SWIDTH 444 0
DWIDTH 14 0
BBX 13 22 1 0
BITMAP
0038
0078
00F8
01E0
0380
0300
0000
01F0
07F8
1E78
3C78
3C30
7800
7800
F000
F000
F000
F020
F060
78C0
7F80
1E00
ENDCHAR
STARTCHAR Ccircumflex
ENCODING 264
SWIDTH 667 0
DWIDTH 22 0
BBX 21 30 2 0
BITMAP
001C00
003E00
007E00
00E700
01C300
018180
000000
003FC8
00FFF8
03F078
07C030
0F8030
1F0030
3F0020
3E0020
7E0000
7C0000
7C0000
F80000
F80000
F80000
F80000
F80000
F80000
F80000
7C0040
7C0180
3F0700
0FFC00
03F000
ENDCHAR
STARTCHAR ccircumflex
ENCODING 265
SWIDTH 444 0
DWIDTH 14 0
BBX 13 22 1 0
BITMAP
01C0
03E0
07E0
0E70
1C30
1818
0000
01F0
07F8
1E78
3C78
3C30
7800
7800
F000
F000
F000
F020
F060
78C0
7F80
1E00
ENDCHAR
STARTCHAR Cdotaccent
ENCODING 266
SWIDTH 667 0
DWIDTH 22 0
BBX 21 28 2 0
BITMAP
001800
003C00
003C00
001800
000000
003FC8
00FFF8
03F078
07C030
0F8030
1F0030
3F0020
3E0020
7E0000
7C0000
7C0000
F80000
F80000
F80000
F80000
F80000
F80000
F80000
7C0040
7C0180
3F0700
0FFC00
03F000
ENDCHAR
STARTCHAR cdotaccent
ENCODING 267
SWIDTH 444 0
DWIDTH 14 0
BBX 13 20 1 0
BITMAP
0180
03C0
03C0
0180
0000
01F0
07F8
1E78
3C78
3C30
7800
7800
F000
F000
F000
F020
F060
78C0
7F80
1E00
ENDCHAR
STARTCHAR Ccaron
ENCODING 268
SWIDTH 667 0
DWIDTH 22 0
BBX 21 30 2 0
BITMAP
018180
00C380
00E700
007E00
007C00
003800
000000
003FC8
00FFF8
03F078
07C030
0F8030
1F0030
3F0020
3E0020
7E0000
7C0000
7C0000
F80000
F80000
F80000
F80000
F80000
F80000
F80000
7C0040
7C0180
3F0700
0FFC00
03F000
ENDCHAR
STARTCHAR ccaron
ENCODING 269
SWIDTH 444 0
DWIDTH 14 0
BBX 13 22 1 0
BITMAP
1818
0C38
0E70
07E0
07C0
0380
0000
01F0
07F8
1E78
3C78
3C30
7800
7800
F000
F000
F000
F020
F060
78C0
7F80
1E00
ENDCHAR
STARTCHAR Dcaron
ENCODING 270
SWIDTH 722 0
DWIDTH 23 0
BBX 24 30 -1 0
BITMAP
00C0C0
0061C0
007380
003F00
003E00
001C00
000000
0FFFC0
03F0F0
01F078
01F03C
03E03E
03E01E
03E01F
07E01F
07C01F
07C01F
07C01F
0FC01F
0F801F
0F803E
0F803E
1F807C
1F007C
1F00F8
1F00F0
3F01E0
3E07C0
7F1F00
FFFC00
ENDCHAR
STARTCHAR dcaron
ENCODING 271
SWIDTH 808 0
DWIDTH 26 0
BBX 25 23 0 0
BITMAP
00038700
001F8F80
00078F80
00078F80
00070780
000F0300
000F0300
000F0600
03DE0C00
0FFE1800
1F3E0000
3C1E0000
7C1E0000
783C0000
F83C0000
F03C0000
F0380000
F0780000
F0780000
F0F60000
7FFC0000
7F780000
1E300000
ENDCHAR
STARTCHAR Dcroat
ENCODING 272
SWIDTH 722 0
DWIDTH 23 0
BBX 24 23 -1 0
BITMAP
0FFFC0
03F8F0
01F078
01F03C
03E03E
03E01E
03E01E
03E01F
07E01F
07C01F
3FFC1F
3FFC1F
3FFC3F
0F803F
0F803E
0F803E
1F007C
1F00FC
1F00F8
1F01F0
3E03C0
7F0F80
FFFC00
ENDCHAR
STARTCHAR dcroat
ENCODING 273
SWIDTH 500 0
DWIDTH 16 0
BBX 21 23 0 0
BITMAP
000380
001F80
000780
000780
000700
000F00
03FFF8
000F00
03DE00
0FFE00
1F3E00
3C1E00
7C1E00
783C00
F83C00
F03C00
F03800
F07800
F07800
F0F600
7FFC00
7F7800
1E3000
ENDCHAR
STARTCHAR Emacron
ENCODING 274
SWIDTH 667 0
DWIDTH 22 0
BBX 22 26 -1 0
BITMAP
01FFC0
01FFC0
000000
07FFFC
01F83C
01F01C
01F018
01F018
03E018
03E010
03E080
03E080
07E180
07C780
07FF80
07C700
0F8300
0F8300
0F8200
0F8000
1F0010
1F0030
1F0070
3F00E0
3F03E0
FFFFE0
ENDCHAR
STARTCHAR emacron
ENCODING 275
SWIDTH 444 0
DWIDTH 14 0
BBX 13 18 1 0
BITMAP
3FF8
3FF8
0000
03E0
0FF0
1E70
3C70
38F0
78E0
71C0
F780
FC00
F000
F020
F060
78C0
7F80
1E00
ENDCHAR
STARTCHAR Ebreve
ENCODING 276
SWIDTH 667 0
DWIDTH 22 0
BBX 22 29 -1 0
BITMAP
018180
018180
01C380
00FF00
003C00
000000
07FFFC
01F83C
01F01C
01F018
01F018
03E018
03E010
03E080
03E080
07E180
07C780
07FF80
07C700
0F8300
0F8300
0F8200
0F8000
1F0010
1F0030
1F0070
3F00E0
3F03E0
FFFFE0
ENDCHAR
STARTCHAR ebreve
ENCODING 277
SWIDTH 444 0
DWIDTH 14 0
BBX 12 21 1 0
BITMAP
3030
3030
3870
1FE0
0780
0000
03E0
0FF0
1E70
3C70
38F0
78E0
71C0
F780
FC00
F000
F020
F060
78C0
7F80
1E00
ENDCHAR
STARTCHAR Edotaccent
ENCODING 278
SWIDTH 667 0
DWIDTH 22 0
BBX 22 28 -1 0
BITMAP
001800
003C00
003C00
001800
000000
07FFFC
01F83C
01F01C
01F018
01F018
03E018
03E010
03E080
03E080
07E180
07C780
07FF80
07C700
0F8300
0F8300
0F8200
0F8000
1F0010
1F0030
1F0070
3F00E0
3F03E0
FFFFE0
ENDCHAR
STARTCHAR edotaccent
ENCODING 279
SWIDTH 444 0
DWIDTH 14 0
BBX 12 20 1 0
BITMAP
0300
0780
0780
0300
0000
03E0
0FF0
1E70
3C70
38F0
78E0
71C0
F780
FC00
F000
F020
F060
78C0
7F80
1E00
ENDCHAR
STARTCHAR Eogonek
ENCODING 280
SWIDTH 667 0
DWIDTH 22 0
BBX 22 28 -1 -5
BITMAP
07FFFC
01F83C
01F01C
01F018
01F018
03E018
03E010
03E080
03E080
07E180
07C780
07FF80
07C700
0F8300
0F8300
0F8200
0F8000
1F0010
1F0030
1F0070
3F00E0
3F63E0
FFFFE0
018000
018000
019800
01F800
00F000
ENDCHAR
STARTCHAR eogonek
ENCODING 281
SWIDTH 444 0
DWIDTH 14 0
BBX 12 20 1 -5
BITMAP
03E0
0FF0
1E70
3C70
38F0
78E0
71C0
F780
FC00
F000
F020
F060
78C0
7F80
1E00
1800
1800
1980
1F80
0F00
ENDCHAR
STARTCHAR Ecaron
ENCODING 282
SWIDTH 667 0
DWIDTH 22 0
BBX 22 30 -1 0
BITMAP
00C0C0
0061C0
007380
003F00
003E00
001C00
000000
07FFFC
01F83C
01F01C
01F018
01F018
03E018
03E010
03E080
03E080
07E180
07C780
07FF80
07C700
0F8300
0F8300
0F8200
0F8000
1F0010
1F0030
1F0070
3F00E0
3F03E0
FFFFE0
ENDCHAR
STARTCHAR ecaron
ENCODING 283
SWIDTH 444 0
DWIDTH 14 0
BBX 12 22 1 0
BITMAP
3030
1870
1CE0
0FC0
0F80
0700
0000
03E0
0FF0
1E70
3C70
38F0
78E0
71C0
F780
FC00
F000
F020
F060
78C0
7F80
1E00
ENDCHAR
STARTCHAR Gcircumflex
ENCODING 284
SWIDTH 722 0
DWIDTH 24 0
BBX 23 30 1 0
BITMAP
000E00
001F00
003F00
007380
00E180
00C0C0
000000
003FE4
00FCFC
03F03C
07C01C
0F8018
1F0008
3F0008
3E0000
7E0000
7C0000
7C0000
F80000
F803FE
F800F8
F800F8
F800F0
F801F0
7C01F0
7C01E0
3E03E0
3F07C0
0FFFC0
03FF00
ENDCHAR
STARTCHAR gcircumflex
ENCODING 285
SWIDTH 500 0
DWIDTH 16 0
BBX 18 29 -1 -7
BITMAP
007000
00F800
01F800
039C00
070C00
060600
000000
01F800
07FFC0
0F8FC0
0F0700
1F0700
1E0700
1E0E00
1F3E00
0FFC00
07E000
0E0000
1C0000
1F8000
1FF000
0FF800
1FF800
707C00
E01C00
E01C00
F03C00
787800
1FE000
ENDCHAR
STARTCHAR Gbreve
ENCODING 286
SWIDTH 722 0
DWIDTH 24 0
BBX 23 29 1 0
BITMAP
018180
018180
01C380
00FF00
003C00
000000
003FE4
00FCFC
03F03C
07C01C
0F8018
1F0008
3F0008
3E0000
7E0000
7C0000
7C0000
F80000
F803FE
F800F8
F800F8
F800F0
F801F0
7C01F0
7C01E0
3E03E0
3F07C0
0FFFC0
03FF00
ENDCHAR
STARTCHAR gbreve
ENCODING 287
SWIDTH 500 0
DWIDTH 16 0
BBX 18 28 -1 -7
BITMAP
060600
060600
070E00
03FC00
00F000
000000
01F800
07FFC0
0F8FC0
0F0700
1F0700
1E0700
1E0E00
1F3E00
0FFC00
07E000
0E0000
1C0000
1F8000
1FF000
0FF800
1FF800
707C00
E01C00
E01C00
F03C00
787800
1FE000
ENDCHAR
STARTCHAR Gdotaccent
ENCODING 288
SWIDTH 722 0
DWIDTH 24 0
BBX 23 28 1 0
BITMAP
001800
003C00
003C00
001800
000000
003FE4
00FCFC
03F03C
07C01C
0F8018
1F0008
3F0008
3E0000
7E0000
7C0000
7C0000
F80000
F803FE
F800F8
F800F8
F800F0
F801F0
7C01F0
7C01E0
3E03E0
3F07C0
0FFFC0
03FF00
ENDCHAR
STARTCHAR gdotaccent
ENCODING 289
SWIDTH 500 0
DWIDTH 16 0
BBX 18 27 -1 -7
BITMAP
006000
00F000
00F000
006000
000000
01F800
07FFC0
0F8FC0
0F0700
1F0700
1E0700
1E0E00
1F3E00
0FFC00
07E000
0E0000
1C0000
1F8000
1FF000
0FF800
1FF800
707C00
E01C00
E01C00
F03C00
787800
1FE000
ENDCHAR
STARTCHAR Gcommaaccent
ENCODING 290
SWIDTH 722 0
DWIDTH 24 0
BBX 23 34 1 -11
BITMAP
003FE4
00FCFC
03F03C
07C01C
0F8018
1F0008
3F0008
3E0000
7E0000
7C0000
7C0000
F80000
F803FE
F800F8
F800F8
F800F0
F801F0
7C01F0
7C01E0
3E03E0
3F07C0
0FFFC0
03FF00
000000
007000
00F800
00F800
00F800
007800
003000
003000
006000
00C000
018000
ENDCHAR
STARTCHAR gcommaaccent
ENCODING 291
SWIDTH 500 0
DWIDTH 16 0
BBX 18 33 -1 -7
BITMAP
001800
003000
006000
00C000
00C000
01E000
01F000
01F000
01F000
00E000
000000
01F800
07FFC0
0F8FC0
0F0700
1F0700
1E0700
1E0E00
1F3E00
0FFC00
07E000
0E0000
1C0000
1F8000
1FF000
0FF800
1FF800
707C00
E01C00
E01C00
F03C00
787800
1FE000
ENDCHAR
STARTCHAR Hcircumflex
ENCODING 292
SWIDTH 778 0
DWIDTH 25 0
BBX 27 30 -1 0
BITMAP
00038000
0007C000
000FC000
001CE000
00386000
00303000
00000000
07FE7FE0
01F81F80
01F01F00
01F01F00
01F01F00
01E01E00
01E01E00
03E03E00
03E03E00
03C03C00
03FFFC00
03FFFC00
07C07C00
07807800
07807800
0F80F800
0F80F800
0F80F800
0F00F000
1F01F000
1F01F000
3F03F000
FFC7FC00
ENDCHAR
STARTCHAR hcircumflex
ENCODING 293
SWIDTH 556 0
DWIDTH 18 0
BBX 16 30 1 0
BITMAP
0380
07C0
0FC0
1CE0
3860
3030
0000
0380
3F80
1F80
0780
0F00
0F00
0F00
1F00
1E3C
1E7E
1EDE
3F1E
3E1E
3E3C
3C3C
7C3C
7878
7878
7879
F0F3
F0F6
F0FC
F078
ENDCHAR
STARTCHAR Hbar
ENCODING 294
SWIDTH 778 0
DWIDTH 25 0
BBX 27 23 -1 0
BITMAP
07FE7FE0
01F81F80
01F01F00
01F01F00
01F01F00
01E01E00
01E01E00
FFFFFFE0
03E03E00
03C03C00
03FFFC00
03FFFC00
07C07C00
07807800
07807800
0F80F800
0F80F800
0F80F800
0F00F000
1F01F000
1F01F000
3F03F000
FFC7FC00
ENDCHAR
STARTCHAR hbar
ENCODING 295
SWIDTH 556 0
DWIDTH 18 0
BBX 19 23 -2 0
BITMAP
007000
07F000
03F000
00F000
01E000
01E000
FFFE00
03E000
03C780
03CFC0
03DBC0
07E3C0
07C3C0
07C780
078780
0F8780
0F0F00
0F0F00
0F0F20
1E1E60
1E1EC0
1E1F80
1E0F00
ENDCHAR
STARTCHAR Itilde
ENCODING 296
SWIDTH 389 0
DWIDTH 13 0
BBX 15 28 -1 0
BITMAP
0786
0FCE
1CFC
1878
0000
07FE
01F8
01F8
01F0
01F0
01F0
03E0
03E0
03E0
03E0
07C0
07C0
07C0
07C0
0F80
0F80
0F80
0F80
1F00
1F00
1F00
3F00
FFC0
ENDCHAR
STARTCHAR itilde
ENCODING 297
SWIDTH 278 0
DWIDTH 9 0
BBX 12 20 -1 0
BITMAP
3C30
7E70
E7E0
C3C0
0000
0780
3F80
0F00
0F00
0F00
1E00
1E00
1E00
1E00
3C00
3C80
3D80
3F00
3E00
1C00
ENDCHAR
STARTCHAR Imacron
ENCODING 298
SWIDTH 389 0
DWIDTH 13 0
BBX 15 26 -1 0
BITMAP
0FFE
0FFE
0000
07FE
01F8
01F8
01F0
01F0
01F0
03E0
03E0
03E0
03E0
07C0
07C0
07C0
07C0
0F80
0F80
0F80
0F80
1F00
1F00
1F00
3F00
FFC0
ENDCHAR
STARTCHAR imacron
ENCODING 299
SWIDTH 278 0
DWIDTH 9 0
BBX 11 18 -1 0
BITMAP
FFE0
FFE0
0000
0780
3F80
0F00
0F00
0F00
1E00
1E00
1E00
1E00
3C00
3C80
3D80
3F00
3E00
1C00
ENDCHAR
STARTCHAR Ibreve
ENCODING 300
SWIDTH 389 0
DWIDTH 13 0
BBX 15 29 -1 0
BITMAP
0C0C
0C0C
0E1C
07F8
01E0
0000
07FE
01F8
01F8
01F0
01F0
01F0
03E0
03E0
03E0
03E0
07C0
07C0
07C0
07C0
0F80
0F80
0F80
0F80
1F00
1F00
1F00
3F00
FFC0
ENDCHAR
STARTCHAR ibreve
ENCODING 301
SWIDTH 278 0
DWIDTH 9 0
BBX 10 21 0 0
BITMAP
C0C0
C0C0
E1C0
7F80
1E00
0000
0F00
7F00
1E00
1E00
1E00
3C00
3C00
3C00
3C00
7800
7900
7B00
7E00
7C00
3800
ENDCHAR
STARTCHAR Iogonek
ENCODING 302
SWIDTH 389 0
DWIDTH 13 0
BBX 15 28 -1 -5
BITMAP
07FE
01F8
01F8
01F0
01F0
01F0
03E0
03E0
03E0
03E0
07C0
07C0
07C0
07C0
0F80
0F80
0F80
0F80
1F00
1F00
1F00
3F00
FFC0
1800
1800
1980
1F80
0F00
ENDCHAR
STARTCHAR iogonek
ENCODING 303
SWIDTH 278 0
DWIDTH 9 0
BBX 8 28 1 -5
BITMAP
06
0F
0F
0F
06
00
00
00
1E
FE
3C
3C
3C
78
78
78
78
F0
F2
F6
FC
F8
70
60
60
66
7E
3C
ENDCHAR
STARTCHAR Idotaccent
ENCODING 304
SWIDTH 389 0
DWIDTH 13 0
BBX 15 28 -1 0
BITMAP
00C0
01E0
01E0
00C0
0000
07FE
01F8
01F8
01F0
01F0
01F0
03E0
03E0
03E0
03E0
07C0
07C0
07C0
07C0
0F80
0F80
0F80
0F80
1F00
1F00
1F00
3F00
FFC0
ENDCHAR
STARTCHAR dotlessi
ENCODING 305
SWIDTH 278 0
DWIDTH 9 0
BBX 7 15 1 0
BITMAP
1E
FE
3C
3C
3C
78
78
78
78
F0
F2
F6
FC
F8
70
ENDCHAR
STARTCHAR IJ
ENCODING 306
SWIDTH 870 0
DWIDTH 29 0
BBX 31 26 -1 -3
BITMAP
07FE07FE
01F801F8
01F801F8
01F001F0
01F001F0
01F001F0
03E001F0
03E003E0
03E003E0
03E003E0
07C003E0
07C007C0
07C007C0
07C007C0
0F8007C0
0F800F80
0F800F80
0F800F80
1F000F80
1F000F00
1F030F00
3F079F00
FFC79E00
00071E00
0003FC00
0001F000
ENDCHAR
STARTCHAR ij
ENCODING 307
SWIDTH 542 0
DWIDTH 18 0
BBX 18 30 1 -7
BITMAP
060180
0F03C0
0F03C0
0F03C0
060180
000000
000000
000000
1E0780
FE3F80
3C0F00
3C0F00
3C0F00
781E00
781E00
781E00
781E00
F03C00
F23C00
F63C00
FC3C00
F87C00
707800
007800
007800
00F000
04F000
0EE000
0FC000
078000
ENDCHAR
STARTCHAR Jcircumflex
ENCODING 308
SWIDTH 500 0
DWIDTH 17 0
BBX 18 33 0 -3
BITMAP
001C00
003E00
007E00
00E700
01C300
018180
000000
00FFC0
003F00
003F00
003E00
003E00
003E00
003E00
007C00
007C00
007C00
007C00
00F800
00F800
00F800
00F800
01F000
01F000
01F000
01F000
01E000
61E000
F3E000
F3C000
E3C000
7F8000
3E0000
ENDCHAR
STARTCHAR jcircumflex
ENCODING 309
SWIDTH 278 0
DWIDTH 9 0
BBX 14 29 -4 -7
BITMAP
00E0
01F0
03F0
0738
0E18
0C0C
0000
0078
03F8
00F0
00F0
00F0
01E0
01E0
01E0
01E0
03C0
03C0
03C0
03C0
07C0
0780
0780
0780
0F00
4F00
EE00
FC00
7800
ENDCHAR
STARTCHAR Kcommaaccent
ENCODING 310
SWIDTH 667 0
DWIDTH 22 0
BBX 24 34 -1 -11
BITMAP
07FE7F
01F81C
01F018
01F030
01E060
03E0C0
03E180
03C300
03C600
07DC00
07FC00
07FE00
07DE00
0F9F00
0F9F00
0F9F80
0F0F80
1F0FC0
1F07C0
1E07E0
3E03E0
3F03F0
FFCFF8
000000
003800
007C00
007C00
007C00
003C00
001800
001800
003000
006000
00C000
ENDCHAR
STARTCHAR kcommaaccent
ENCODING 311
SWIDTH 500 0
DWIDTH 16 0
BBX 16 34 1 -11
BITMAP
0380
1F80
0F80
0780
0700
0F00
0F00
0F00
0E3F
0E1C
1E38
1E30
1E60
1CC0
3D80
3F80
3FC0
3BC0
79E0
79E2
70F6
F0FC
F078
0000
0380
07C0
07C0
07C0
03C0
0180
0180
0300
0600
0C00
ENDCHAR
STARTCHAR kgreenlandic
ENCODING 312
SWIDTH 500 0
DWIDTH 16 0
BBX 16 15 1 0
BITMAP
0E3F
0E1C
1E38
1E30
1E60
1CC0
3D80
3F80
3FC0
3BC0
79E0
79E2
70F6
F0FC
F078
ENDCHAR
STARTCHAR Lacute
ENCODING 313
SWIDTH 611 0
DWIDTH 20 0
BBX 20 30 -1 0
BITMAP
000E00
001E00
003E00
007800
00E000
00C000
000000
07FE00
01F800
01F000
01F000
01F000
03E000
03E000
03E000
03E000
07E000
07C000
07C000
07C000
0F8000
0F8000
0F8000
0F8000
1F0010
1F0030
1F0070
3F00E0
3F03E0
FFFFE0
ENDCHAR
STARTCHAR lacute
ENCODING 314
SWIDTH 278 0
DWIDTH 9 0
BBX 11 30 1 0
BITMAP
00E0
01E0
03E0
0780
0E00
0C00
0000
0380
3F80
1F80
0780
0F00
0F00
0F00
1E00
1E00
1E00
1E00
3C00
3C00
3C00
7C00
7800
7800
7800
F200
F600
FC00
F800
7000
ENDCHAR
STARTCHAR Lcommaaccent
ENCODING 315
SWIDTH 611 0
DWIDTH 20 0
BBX 20 34 -1 -11
BITMAP
07FE00
01F800
01F000
01F000
01F000
03E000
03E000
03E000
03E000
07E000
07C000
07C000
07C000
0F8000
0F8000
0F8000
0F8000
1F0010
1F0030
1F0070
3F00E0
3F03E0
FFFFE0
000000
00E000
01F000
01F000
01F000
00F000
006000
006000
00C000
018000
030000
ENDCHAR
STARTCHAR lcommaaccent
ENCODING 316
SWIDTH 278 0
DWIDTH 9 0
BBX 9 34 1 -11
BITMAP
0380
3F80
1F80
0780
0F00
0F00
0F00
1E00
1E00
1E00
1E00
3C00
3C00
3C00
7C00
7800
7800
7800
F200
F600
FC00
F800
7000
0000
3800
7C00
7C00
7C00
3C00
1800
1800
3000
6000
C000
ENDCHAR
STARTCHAR Lcaron
ENCODING 317
SWIDTH 913 0
DWIDTH 30 0
BBX 30 23 -1 0
BITMAP
07FE0038
01F8007C
01F0007C
01F0007C
01F0003C
03E00018
03E00018
03E00030
03E00060
07E000C0
07C00000
07C00000
07C00000
0F800000
0F800000
0F800000
0F800000
1F001000
1F003000
1F007000
3F00E000
3F03E000
FFFFE000
ENDCHAR
STARTCHAR lcaron
ENCODING 318
SWIDTH 597 0
DWIDTH 20 0
BBX 18 23 1 0
BITMAP
038380
3F87C0
1F87C0
0787C0
0F03C0
0F0180
0F0180
1E0300
1E0600
1E0C00
1E0000
3C0000
3C0000
3C0000
7C0000
780000
780000
780000
F20000
F60000
FC0000
F80000
700000
ENDCHAR
STARTCHAR Ldot
ENCODING 319
SWIDTH 830 0
DWIDTH 27 0
BBX 26 23 -1 0
BITMAP
07FE0000
01F80000
01F00000
01F00000
01F00000
03E00000
03E00000
03E00000
03E00000
07E00000
07C00000
07C00000
07C00380
0F8007C0
0F8007C0
0F8007C0
0F800380
1F001000
1F003000
1F007000
3F00E000
3F03E000
FFFFE000
ENDCHAR
STARTCHAR ldot
ENCODING 320
SWIDTH 514 0
DWIDTH 17 0
BBX 14 23 1 0
BITMAP
0380
3F80
1F80
0780
0F00
0F00
0F00
1E00
1E00
1E00
1E00
3C00
3C38
3C7C
7C7C
787C
7838
7800
F200
F600
FC00
F800
7000
ENDCHAR
STARTCHAR Lslash
ENCODING 321
SWIDTH 611 0
DWIDTH 20 0
BBX 20 23 -1 0
BITMAP
07FE00
01F800
01F000
01F000
01F000
03E000
03E000
03E600
03EE00
07FC00
07F800
0FE000
3FC000
7F8000
6F8000
0F8000
0F8000
1F0010
1F0030
1F0070
3F00E0
3F03E0
FFFFE0
ENDCHAR
STARTCHAR lslash
ENCODING 322
SWIDTH 278 0
DWIDTH 9 0
BBX 11 23 0 0
BITMAP
01C0
0FC0
07C0
07C0
0780
0780
0780
0F00
0F60
1FC0
1F80
7F00
FE00
1E00
3E00
3C00
3C00
3C00
7900
7B00
7E00
7C00
3800
ENDCHAR
STARTCHAR Nacute
ENCODING 323
SWIDTH 722 0
DWIDTH 24 0
BBX 26 30 -1 0
BITMAP
0000E000
0001E000
0003E000
00078000
000E0000
000C0000
00000000
07E01FC0
03F00F80
01F00700
01F80700
01F80600
037C0600
037C0600
033E0C00
023E0C00
063F0C00
061F0C00
061F1800
0C0F9800
0C0F9800
0C07D000
0C07F000
1803F000
1803F000
1803F000
3801E000
3801E000
7C00E000
FE00E000
ENDCHAR
STARTCHAR nacute
ENCODING 324
SWIDTH 556 0
DWIDTH 18 0
BBX 15 22 1 0
BITMAP
0038
0078
00F8
01E0
0380
0300
0000
1E3C
FE7E
1CFE
3D9E
3E1E
3C3C
3C3C
3C3C
7878
7878
7878
F0F2
F0F6
F0FC
F078
ENDCHAR
STARTCHAR Ncommaaccent
ENCODING 325
SWIDTH 722 0
DWIDTH 24 0
BBX 26 34 -1 -11
BITMAP
07E01FC0
03F00F80
01F00700
01F80700
01F80600
037C0600
037C0600
033E0C00
023E0C00
063F0C00
061F0C00
061F1800
0C0F9800
0C0F9800
0C07D000
0C07F000
1803F000
1803F000
1803F000
3801E000
3801E000
7C00E000
FE00E000
00000000
00380000
007C0000
007C0000
007C0000
003C0000
00180000
00180000
00300000
00600000
00C00000
ENDCHAR
STARTCHAR ncommaaccent
ENCODING 326
SWIDTH 556 0
DWIDTH 18 0
BBX 15 26 1 -11
BITMAP
1E3C
FE7E
1CFE
3D9E
3E1E
3C3C
3C3C
3C3C
7878
7878
7878
F0F2
F0F6
F0FC
F078
0000
0380
07C0
07C0
07C0
03C0
0180
0180
0300
0600
0C00
ENDCHAR
STARTCHAR Ncaron
ENCODING 327
SWIDTH 722 0
DWIDTH 24 0
BBX 26 30 -1 0
BITMAP
00606000
0030E000
0039C000
001F8000
001F0000
000E0000
00000000
07E01FC0
03F00F80
01F00700
01F80700
01F80600
037C0600
037C0600
033E0C00
023E0C00
063F0C00
061F0C00
061F1800
0C0F9800
0C0F9800
0C07D000
0C07F000
1803F000
1803F000
1803F000
3801E000
3801E000
7C00E000
FE00E000
ENDCHAR
STARTCHAR ncaron
ENCODING 328
SWIDTH 556 0
DWIDTH 18 0
BBX 15 22 1 0
BITMAP
1818
0C38
0E70
07E0
07C0
0380
0000
1E3C
FE7E
1CFE
3D9E
3E1E
3C3C
3C3C
3C3C
7878
7878
7878
F0F2
F0F6
F0FC
F078
ENDCHAR
STARTCHAR napostrophe
ENCODING 329
SWIDTH 872 0
DWIDTH 28 0
BBX 22 23 4 0
BITMAP
380000
7C0000
7C0000
7C0000
3C0000
180000
180000
300000
603C78
C1FCFC
0039FC
007B3C
007C3C
007878
007878
007878
00F0F0
00F0F0
00F0F0
01E1E4
01E1EC
01E1F8
01E0F0
ENDCHAR
STARTCHAR Eng
ENCODING 330
SWIDTH 722 0
DWIDTH 24 0
BBX 26 30 -1 -7
BITMAP
07E01FC0
03F00F80
01F00700
01F80700
01F80600
037C0600
037C0600
033E0C00
023E0C00
063F0C00
061F0C00
061F1800
0C0F9800
0C0F9800
0C07D000
0C07F000
1803F000
1803F000
1803F000
3801F000
3801F000
7C01F000
FE01E000
0001E000
0001E000
0003C000
0013C000
003B8000
003F0000
001E0000
ENDCHAR
STARTCHAR eng
ENCODING 331
SWIDTH 556 0
DWIDTH 18 0
BBX 15 22 1 -7
BITMAP
1E3C
FE7E
1CFE
3D9E
3E1E
3C3C
3C3C
3C3C
7878
7878
7878
F078
F078
F0F8
F0F0
00F0
00F0
01E0
09E0
1DC0
1F80
0F00
ENDCHAR
STARTCHAR Omacron
ENCODING 332
SWIDTH 722 0
DWIDTH 23 0
BBX 22 26 1 0
BITMAP
01FFC0
01FFC0
000000
001F80
00FFE0
01E0F0
03C078
078078
0F007C
1F007C
3E007C
3E007C
3E007C
7C00FC
7C00F8
FC00F8
F801F0
F801F0
F801F0
F803E0
F803C0
780780
780F00
3C1E00
1FFC00
07E000
ENDCHAR
STARTCHAR omacron
ENCODING 333
SWIDTH 500 0
DWIDTH 16 0
BBX 15 18 1 0
BITMAP
1FFC
1FFC
0000
01F0
073C
1E1C
1C1E
3C1E
7C1E
783E
F83E
F83C
F07C
F078
F070
70F0
79E0
1F80
ENDCHAR
STARTCHAR Obreve
ENCODING 334
SWIDTH 722 0
DWIDTH 23 0
BBX 22 29 1 0
BITMAP
00C0C0
00C0C0
00E1C0
007F80
001E00
000000
001F80
00FFE0
01E0F0
03C078
078078
0F007C
1F007C
3E007C
3E007C
3E007C
7C00FC
7C00F8
FC00F8
F801F0
F801F0
F801F0
F803E0
F803C0
780780
780F00
3C1E00
1FFC00
07E000
ENDCHAR
STARTCHAR obreve
ENCODING 335
SWIDTH 500 0
DWIDTH 16 0
BBX 15 21 1 0
BITMAP
0C0C
0C0C
0E1C
07F8
01E0
0000
01F0
073C
1E1C
1C1E
3C1E
7C1E
783E
F83E
F83C
F07C
F078
F070
70F0
79E0
1F80
ENDCHAR
STARTCHAR Ohungarumlaut
ENCODING 336
SWIDTH 722 0
DWIDTH 23 0
BBX 22 31 1 0
BITMAP
0038E0
0038E0
0071C0
0071C0
006180
00E380
00C300
000000
001F80
00FFE0
01E0F0
03C078
078078
0F007C
1F007C
3E007C
3E007C
3E007C
7C00FC
7C00F8
FC00F8
F801F0
F801F0
F801F0
F803E0
F803C0
780780
780F00
3C1E00
1FFC00
07E000
ENDCHAR
STARTCHAR ohungarumlaut
ENCODING 337
SWIDTH 500 0
DWIDTH 16 0
BBX 15 23 1 0
BITMAP
038E
038E
071C
071C
0618
0E38
0C30
0000
01F0
073C
1E1C
1C1E
3C1E
7C1E
783E
F83E
F83C
F07C
F078
F070
70F0
79E0
1F80
ENDCHAR
STARTCHAR OE
ENCODING 338
SWIDTH 944 0
DWIDTH 31 0
BBX 31 23 0 0
BITMAP
003FFFFE
00F1FC1E
01E0F80E
03C0F80C
0780F80C
0F01F00C
1F01F008
3E01F040
3E01F040
7E03F0C0
7C03E3C0
7C03FFC0
FC03E380
FC07C180
F807C180
F807C100
F807C000
F80F8008
780F8018
780F8038
3C1F8070
1E1F81F0
07FFFFF0
ENDCHAR
STARTCHAR oe
ENCODING 339
SWIDTH 722 0
DWIDTH 24 0
BBX 22 15 1 0
BITMAP
03F0F8
073B9C
0E1F1C
1C1E1C
3C1E38
783E38
783CF0
783FC0
F03E00
F07800
F03810
F07830
707C60
79FFC0
1F0F80
ENDCHAR
STARTCHAR Racute
ENCODING 340
SWIDTH 667 0
DWIDTH 22 0
BBX 21 30 -1 0
BITMAP
000380
000780
000F80
001E00
003800
003000
000000
07FFC0
01FFF0
01F1F8
01F0F8
03E0F8
03E0F8
03E0F8
03E1F0
07C1F0
07C3E0
07CFC0
07FF00
0FBE00
0FBF00
0F9F00
0F9F80
0F8F80
0F0F80
1F07C0
1F07C0
1F07E0
3F03E0
FFC3F8
ENDCHAR
STARTCHAR racute
ENCODING 341
SWIDTH 389 0
DWIDTH 13 0
BBX 14 22 0 0
BITMAP
0038
0078
00F8
01E0
0380
0300
0000
0F18
7F3C
1E7C
1EFC
1F98
1F00
1E00
3E00
3C00
3C00
3C00
7800
7800
7800
F800
ENDCHAR
STARTCHAR Rcommaaccent
ENCODING 342
SWIDTH 667 0
DWIDTH 22 0
BBX 21 34 -1 -11
BITMAP
07FFC0
01FFF0
01F1F8
01F0F8
03E0F8
03E0F8
03E0F8
03E1F0
07C1F0
07C3E0
07CFC0
07FF00
0FBE00
0FBF00
0F9F00
0F9F80
0F8F80
0F0F80
1F07C0
1F07C0
1F07E0
3F03E0
FFC3F8
000000
007000
00F800
00F800
00F800
007800
003000
003000
006000
00C000
018000
ENDCHAR
STARTCHAR rcommaaccent
ENCODING 343
SWIDTH 389 0
DWIDTH 13 0
BBX 14 26 0 -11
BITMAP
0F18
7F3C
1E7C
1EFC
1F98
1F00
1E00
3E00
3C00
3C00
3C00
7800
7800
7800
F800
0000
1C00
3E00
3E00
3E00
1E00
0C00
0C00
1800
3000
6000
ENDCHAR
STARTCHAR Rcaron
ENCODING 344
SWIDTH 667 0
DWIDTH 22 0
BBX 21 30 -1 0
BITMAP
00C0C0
0061C0
007380
003F00
003E00
001C00
000000
07FFC0
01FFF0
01F1F8
01F0F8
03E0F8
03E0F8
03E0F8
03E1F0
07C1F0
07C3E0
07CFC0
07FF00
0FBE00
0FBF00
0F9F00
0F9F80
0F8F80
0F0F80
1F07C0
1F07C0
1F07E0
3F03E0
FFC3F8
ENDCHAR
STARTCHAR rcaron
ENCODING 345
SWIDTH 389 0
DWIDTH 13 0
BBX 14 22 0 0
BITMAP
1818
0C38
0E70
07E0
07C0
0380
0000
0F18
7F3C
1E7C
1EFC
1F98
1F00
1E00
3E00
3C00
3C00
3C00
7800
7800
7800
F800
ENDCHAR
STARTCHAR Sacute
ENCODING 346
SWIDTH 556 0
DWIDTH 18 0
BBX 17 30 1 0
BITMAP
001C00
003C00
007C00
00F000
01C000
018000
000000
03F880
0FFD80
1F0F80
1E0700
3C0300
3E0300
3E0200
3F0000
1FC000
1FE000
0FF000
07F800
03FC00
00FC00
007E00
003E00
801E00
C01E00
C01E00
E03C00
F07C00
FFF800
DFE000
ENDCHAR
STARTCHAR sacute
ENCODING 347
SWIDTH 389 0
DWIDTH 13 0
BBX 11 22 1 0
BITMAP
00E0
01E0
03E0
0780
0E00
0C00
0000
0FA0
1DE0
3860
3C60
3C20
3E00
1F00
1F80
0F80
07C0
87C0
C3C0
C380
F700
BE00
ENDCHAR
STARTCHAR Scircumflex
ENCODING 348
SWIDTH 556 0
DWIDTH 18 0
BBX 17 30 1 0
BITMAP
00E000
01F000
03F000
073800
0E1800
0C0C00
000000
03F880
0FFD80
1F0F80
1E0700
3C0300
3E0300
3E0200
3F0000
1FC000
1FE000
0FF000
07F800
03FC00
00FC00
007E00
003E00
801E00
C01E00
C01E00
E03C00
F07C00
FFF800
DFE000
ENDCHAR
STARTCHAR scircumflex
ENCODING 349
SWIDTH 389 0
DWIDTH 13 0
BBX 12 22 1 0
BITMAP
0380
07C0
0FC0
1CE0
3860
3030
0000
0FA0
1DE0
3860
3C60
3C20
3E00
1F00
1F80
0F80
07C0
87C0
C3C0
C380
F700
BE00
ENDCHAR
STARTCHAR Scedilla
ENCODING 350
SWIDTH 556 0
DWIDTH 18 0
BBX 17 30 1 -7
BITMAP
03F880
0FFD80
1F0F80
1E0700
3C0300
3E0300
3E0200
3F0000
1FC000
1FE000
0FF000
07F800
03FC00
00FC00
007E00
003E00
801E00
C01E00
C01E00
E03C00
F07C00
FFF800
DFE000
010000
030000
07C000
00E000
086000
0C6000
07C000
ENDCHAR
STARTCHAR scedilla
ENCODING 351
SWIDTH 389 0
DWIDTH 13 0
BBX 11 22 1 -7
BITMAP
0FA0
1DE0
3860
3C60
3C20
3E00
1F00
1F80
0F80
07C0
87C0
C3C0
C380
F700
BE00
0400
0C00
1F00
0380
2180
3180
1F00
ENDCHAR
STARTCHAR Scaron
ENCODING 352
SWIDTH 556 0
DWIDTH 18 0
BBX 17 27 1 0
BITMAP
181800
0C3800
0E7000
07E000
07C000
038000
000000
000000
03F880
0FFD80
1F0F80
1E0700
3C0300
3E0300
3E0200
1FC000
0FF000
03F800
007C00
003E00
801E00
C01E00
C01E00
E03C00
F07C00
FFF800
DFE000
ENDCHAR
STARTCHAR scaron
ENCODING 353
SWIDTH 389 0
DWIDTH 13 0
BBX 11 23 1 0
BITMAP
C0C0
61C0
7380
3F00
3E00
1C00
0000
0000
0FA0
19E0
3860
3860
3C20
3C00
1E00
1F00
0F00
0780
8780
C380
C380
F700
BE00
ENDCHAR
STARTCHAR Tcommaaccent
ENCODING 354
SWIDTH 611 0
DWIDTH 20 0
BBX 19 30 2 -7
BITMAP
3FFFE0
3CF9E0
30F8E0
70F8C0
61F0C0
61F080
41F080
01F000
03E000
03E000
03E000
03E000
07C000
07C000
07C000
078000
0F8000
0F8000
0F8000
1F0000
1F0000
3F8000
FFE000
010000
030000
07C000
00E000
086000
0C6000
07C000
ENDCHAR
STARTCHAR tcommaaccent
ENCODING 355
SWIDTH 278 0
DWIDTH 9 0
BBX 9 27 1 -7
BITMAP
0100
0300
0700
0E00
3E00
7F80
FF80
3C00
3C00
3C00
7800
7800
7800
7800
F000
F200
F600
FC00
F800
7000
1000
3000
7C00
0E00
8600
C600
7C00
ENDCHAR
STARTCHAR Tcaron
ENCODING 356
SWIDTH 611 0
DWIDTH 20 0
BBX 19 30 2 0
BITMAP
060600
030E00
039C00
01F800
01F000
00E000
000000
3FFFE0
3CF9E0
30F8E0
70F8C0
61F0C0
61F080
41F080
01F000
03E000
03E000
03E000
03E000
07C000
07C000
07C000
078000
0F8000
0F8000
0F8000
1F0000
1F0000
3F8000
FFE000
ENDCHAR
STARTCHAR tcaron
ENCODING 357
SWIDTH 597 0
DWIDTH 20 0
BBX 18 23 1 0
BITMAP
000380
0007C0
0007C0
0107C0
0303C0
070180
0E0180
3E0300
7F8600
FF8C00
3C0000
3C0000
3C0000
780000
780000
780000
780000
F00000
F20000
F60000
FC0000
F80000
700000
ENDCHAR
STARTCHAR Tbar
ENCODING 358
SWIDTH 611 0
DWIDTH 20 0
BBX 19 23 2 0
BITMAP
3FFFE0
3CF9E0
30F8E0
70F8C0
61F0C0
61F080
41F080
01F000
03E000
03E000
03E000
3FFF80
07C000
07C000
07C000
078000
0F8000
0F8000
0F8000
1F0000
1F0000
3F8000
FFE000
ENDCHAR
STARTCHAR tbar
ENCODING 359
SWIDTH 278 0
DWIDTH 9 0
BBX 15 20 -2 0
BITMAP
0020
0060
00E0
01C0
07C0
0FF0
1FF0
0780
0780
0780
0F00
0F00
FFFE
0F00
1E00
1E40
1EC0
1F80
1F00
0E00
ENDCHAR
STARTCHAR Utilde
ENCODING 360
SWIDTH 722 0
DWIDTH 24 0
BBX 23 28 2 0
BITMAP
01E180
03F380
073F00
061E00
000000
7FE07E
1F803C
1F8018
1F0018
1F0030
3F0030
3E0030
3E0060
3E0060
7E0060
7C00C0
7C00C0
7C00C0
F80180
F80180
F80180
F80300
F80300
F80600
7C0E00
7E1C00
3FF800
0FE000
ENDCHAR
STARTCHAR utilde
ENCODING 361
SWIDTH 556 0
DWIDTH 18 0
BBX 15 20 1 0
BITMAP
0F0C
1F9C
39F8
30F0
0000
1E1E
FE1E
3C1E
3C3C
3C3C
3C3C
787C
7878
78F8
70F8
F0F0
F1F2
F376
FE7C
7878
ENDCHAR
STARTCHAR Umacron
ENCODING 362
SWIDTH 722 0
DWIDTH 24 0
BBX 23 26 2 0
BITMAP
07FF00
07FF00
000000
7FE07E
1F803C
1F8018
1F0018
1F0030
3F0030
3E0030
3E0060
3E0060
7E0060
7C00C0
7C00C0
7C00C0
F80180
F80180
F80180
F80300
F80300
F80600
7C0E00
7E1C00
3FF800
0FE000
ENDCHAR
STARTCHAR umacron
ENCODING 363
SWIDTH 556 0
DWIDTH 18 0
BBX 15 18 1 0
BITMAP
3FF8
3FF8
0000
1E1E
FE1E
3C1E
3C3C
3C3C
3C3C
787C
7878
78F8
70F8
F0F0
F1F2
F376
FE7C
7878
ENDCHAR
STARTCHAR Ubreve
ENCODING 364
SWIDTH 722 0
DWIDTH 24 0
BBX 23 29 2 0
BITMAP
030300
030300
038700
01FE00
007800
000000
7FE07E
1F803C
1F8018
1F0018
1F0030
3F0030
3E0030
3E0060
3E0060
7E0060
7C00C0
7C00C0
7C00C0
F80180
F80180
F80180
F80300
F80300
F80600
7C0E00
7E1C00
3FF800
0FE000
ENDCHAR
STARTCHAR ubreve
ENCODING 365
SWIDTH 556 0
DWIDTH 18 0
BBX 15 21 1 0
BITMAP
1818
1818
1C38
0FF0
03C0
0000
1E1E
FE1E
3C1E
3C3C
3C3C
3C3C
787C
7878
78F8
70F8
F0F0
F1F2
F376
FE7C
7878
ENDCHAR
STARTCHAR Uring
ENCODING 366
SWIDTH 722 0
DWIDTH 24 0
BBX 23 32 2 0
BITMAP
007000
00F800
01CC00
018C00
018C00
01DC00
00F800
007000
000000
7FE07E
1F803C
1F8018
1F0018
1F0030
3F0030
3E0030
3E0060
3E0060
7E0060
7C00C0
7C00C0
7C00C0
F80180
F80180
F80180
F80300
F80300
F80600
7C0E00
7E1C00
3FF800
0FE000
ENDCHAR
STARTCHAR uring
ENCODING 367
SWIDTH 556 0
DWIDTH 18 0
BBX 15 24 1 0
BITMAP
0380
07C0
0E60
0C60
0C60
0EE0
07C0
0380
0000
1E1E
FE1E
3C1E
3C3C
3C3C
3C3C
787C
7878
78F8
70F8
F0F0
F1F2
F376
FE7C
7878
ENDCHAR
STARTCHAR Uhungarumlaut
ENCODING 368
SWIDTH 722 0
DWIDTH 24 0
BBX 23 31 2 0
BITMAP
00E380
00E380
01C700
01C700
018600
038E00
030C00
000000
7FE07E
1F803C
1F8018
1F0018
1F0030
3F0030
3E0030
3E0060
3E0060
7E0060
7C00C0
7C00C0
7C00C0
F80180
F80180
F80180
F80300
F80300
F80600
7C0E00
7E1C00
3FF800
0FE000
ENDCHAR
STARTCHAR uhungarumlaut
ENCODING 369
SWIDTH 556 0
DWIDTH 18 0
BBX 15 23 1 0
BITMAP
071C
071C
0E38
0E38
0C30
1C70
1860
0000
1E1E
FE1E
3C1E
3C3C
3C3C
3C3C
787C
7878
78F8
70F8
F0F0
F1F2
F376
FE7C
7878
ENDCHAR
STARTCHAR Uogonek
ENCODING 370
SWIDTH 722 0
DWIDTH 24 0
BBX 23 28 2 -5
BITMAP
7FE07E
1F803C
1F8018
1F0018
1F0030
3F0030
3E0030
3E0060
3E0060
7E0060
7C00C0
7C00C0
7C00C0
F80180
F80180
F80180
F80300
F80300
F80600
7C0E00
7E1C00
3FF800
0FE000
030000
030000
033000
03F000
01E000
ENDCHAR
STARTCHAR uogonek
ENCODING 371
SWIDTH 556 0
DWIDTH 18 0
BBX 15 20 1 -5
BITMAP
1E1E
FE1E
3C1E
3C3C
3C3C
3C3C
787C
7878
78F8
70F8
F0F0
F1F2
F376
FFFC
7B78
0600
0600
0660
07E0
03C0
ENDCHAR
STARTCHAR Wcircumflex
ENCODING 372
SWIDTH 889 0
DWIDTH 29 0
BBX 28 30 2 0
BITMAP
000E0000
001F0000
003F0000
00738000
00E18000
00C0C000
00000000
FF9FF3F0
3F07C0E0
3E07C0C0
3E07C080
3E07C180
1E07C100
1F0FC300
1F0FC300
1F1BC200
1F1BC600
1F33C400
1F33EC00
0F63E800
0F63F800
0F41F000
0FC1F000
0F81F000
0F81E000
0F01E000
0F01C000
0601C000
06018000
04008000
ENDCHAR
STARTCHAR wcircumflex
ENCODING 373
SWIDTH 667 0
DWIDTH 22 0
BBX 21 22 1 0
BITMAP
003800
007C00
00FC00
01CE00
038600
030300
000000
1C0830
FC1878
3C1878
3C3838
1E7C30
1E7C60
1EDC60
1EBCC0
1F3D80
1F3D80
1E3F00
1C3E00
1C3C00
183800
183000
ENDCHAR
STARTCHAR Ycircumflex
ENCODING 374
SWIDTH 611 0
DWIDTH 20 0
BBX 19 30 2 0
BITMAP
00E000
01F000
03F000
073800
0E1800
0C0C00
000000
FF8FE0
7E03C0
3E0380
3E0300
1E0600
1F0600
1F0C00
0F1800
0F9800
0FB000
0FE000
07C000
07C000
07C000
0F8000
0F8000
0F8000
0F8000
1F0000
1F0000
1F0000
3F0000
FFC000
ENDCHAR
STARTCHAR ycircumflex
ENCODING 375
SWIDTH 444 0
DWIDTH 15 0
BBX 16 29 -2 -7
BITMAP
0070
00F8
01F8
039C
070C
0606
0000
0386
1F8F
078F
0787
03C3
03C2
03C6
03C4
03CC
01C8
01D8
01F0
01F0
01E0
01E0
01C0
0180
0180
6300
FE00
FC00
7000
ENDCHAR
STARTCHAR Ydieresis
ENCODING 376
SWIDTH 611 0
DWIDTH 20 0
BBX 19 25 2 0
BITMAP
060C00
0F1E00
0F1E00
060C00
000000
000000
FF8FE0
7E03C0
3E0380
3E0300
1E0600
1F0C00
0F9800
07B000
07E000
07C000
0F8000
0F8000
0F8000
0F8000
1F0000
1F0000
1F0000
3F0000
FFC000
ENDCHAR
STARTCHAR Zacute
ENCODING 377
SWIDTH 611 0
DWIDTH 20 0
BBX 20 30 -1 0
BITMAP
000700
000F00
001F00
003C00
007000
006000
000000
0FFFF0
0FC3E0
0E07E0
1C07C0
180F80
101F80
003F00
003E00
007E00
00FC00
00F800
01F800
03F000
03E000
07E000
0FC000
0F8000
1F8040
3F00C0
3E01C0
7E0380
FC1F80
FFFF80
ENDCHAR
STARTCHAR zacute
ENCODING 378
SWIDTH 389 0
DWIDTH 13 0
BBX 14 24 -1 -2
BITMAP
0038
0078
00F8
01E0
0380
0300
0000
1FFC
1FFC
3FF8
2030
0060
00C0
0180
0300
0600
0C00
1800
3000
7C10
FF38
EFB8
87F0
01E0
ENDCHAR
STARTCHAR Zdotaccent
ENCODING 379
SWIDTH 611 0
DWIDTH 20 0
BBX 20 28 -1 0
BITMAP
003000
007800
007800
003000
000000
0FFFF0
0FC3E0
0E07E0
1C07C0
180F80
101F80
003F00
003E00
007E00
00FC00
00F800
01F800
03F000
03E000
07E000
0FC000
0F8000
1F8040
3F00C0
3E01C0
7E0380
FC1F80
FFFF80
ENDCHAR
STARTCHAR zdotaccent
ENCODING 380
SWIDTH 389 0
DWIDTH 13 0
BBX 14 22 -1 -2
BITMAP
0180
03C0
03C0
0180
0000
1FFC
1FFC
3FF8
2030
0060
00C0
0180
0300
0600
0C00
1800
3000
7C10
FF38
EFB8
87F0
01E0
ENDCHAR
STARTCHAR Zcaron
ENCODING 381
SWIDTH 611 0
DWIDTH 20 0
BBX 20 27 -1 0
BITMAP
060600
030E00
039C00
01F800
01F000
00E000
000000
000000
0FFFF0
0F83E0
0E07E0
1C07C0
180F80
101F00
003E00
007C00
00F800
01F000
01E000
03C000
07C000
0F8040
1F00C0
3E01C0
7C0380
F80F80
FFFF80
ENDCHAR
STARTCHAR zcaron
ENCODING 382
SWIDTH 389 0
DWIDTH 13 0
BBX 14 25 -1 -2
BITMAP
3030
1870
1CE0
0FC0
0F80
0700
0000
0000
1FFC
1FFC
3FF8
2038
0070
00E0
01C0
0380
0700
0E00
1C00
3800
7E10
FF38
EFB8
83F0
01E0
ENDCHAR
STARTCHAR uni0186
ENCODING 390
SWIDTH 667 0
DWIDTH 22 0
BBX 21 23 2 0
BITMAP
007E00
01FF80
0707E0
0C01F0
1001F0
0000F8
0000F8
0000F8
0000F8
0000F8
0000F8
0000F8
0001F0
0001F0
0003F0
2003E0
2007E0
6007C0
600F80
601F00
F07E00
FFF800
9FE000
ENDCHAR
STARTCHAR uni0189
ENCODING 393
SWIDTH 722 0
DWIDTH 23 0
BBX 24 23 -1 0
BITMAP
0FFFC0
03F8F0
01F078
01F03C
03E03E
03E01E
03E01E
03E01F
07E01F
07C01F
3FFC1F
3FFC1F
3FFC3F
0F803F
0F803E
0F803E
1F007C
1F00FC
1F00F8
1F01F0
3E03C0
7F0F80
FFFC00
ENDCHAR
STARTCHAR uni018E
ENCODING 398
SWIDTH 667 0
DWIDTH 22 0
BBX 22 23 -1 0
BITMAP
1FFFFC
1F03F0
1C03F0
3803E0
3003E0
2003E0
0007C0
0107C0
0307C0
0307C0
038F80
07FF80
078F80
061F80
041F00
041F00
201F00
601F00
603E00
603E00
E03E00
F07E00
FFFF80
ENDCHAR
STARTCHAR florin
ENCODING 402
SWIDTH 500 0
DWIDTH 17 0
BBX 20 28 -3 -5
BITMAP
0001E0
000730
000E70
000E70
001E70
003C00
003C00
003C00
003C00
03FF80
007C00
007800
007800
00F800
00F800
00F800
00F000
00F000
01F000
01F000
01E000
01E000
01E000
63C000
F3C000
F78000
670000
3C0000
ENDCHAR
STARTCHAR uni0197
ENCODING 407
SWIDTH 389 0
DWIDTH 13 0
BBX 15 23 -1 0
BITMAP
07FE
01F8
01F8
01F0
01F0
01F0
03E0
03E0
03E0
03E0
07C0
FFFE
07C0
07C0
0F80
0F80
0F80
0F80
1F00
1F00
1F00
3F00
FFC0
ENDCHAR
STARTCHAR uni019A
ENCODING 410
SWIDTH 278 0
DWIDTH 9 0
BBX 15 23 -2 0
BITMAP
0070
07F0
03F0
00F0
01E0
01E0
01E0
03C0
03C0
03C0
03C0
FFFE
0780
0780
0F80
0F00
0F00
0F00
1E40
1EC0
1F80
1F00
0E00
ENDCHAR
STARTCHAR uni019D
ENCODING 413
SWIDTH 722 0
DWIDTH 24 0
BBX 29 30 -4 -7
BITMAP
00FC03F8
007E01F0
003E00E0
003F00E0
003F00C0
006F80C0
006F80C0
0067C180
0047C180
00C7E180
00C3E180
00C3E300
0181F300
0181F300
0180FA00
0180FE00
03007E00
03C07E00
03C07E00
03C03C00
03C03C00
07C01C00
07801C00
07800000
07800000
0F000000
4F000000
EE000000
FC000000
78000000
ENDCHAR
STARTCHAR uni019F
ENCODING 415
SWIDTH 722 0
DWIDTH 23 0
BBX 22 23 1 0
BITMAP
001F80
00FFE0
01E0F0
03C078
078078
0F007C
1F007C
3E007C
3E007C
3E007C
7C00FC
FFFFFC
FC00F8
F801F0
F801F0
F801F0
F803E0
F803C0
780780
780F00
3C1E00
1FFC00
07E000
ENDCHAR
STARTCHAR Ohorn
ENCODING 416
SWIDTH 722 0
DWIDTH 23 0
BBX 26 23 1 0
BITMAP
001F8380
00FFE7C0
01E0F7C0
03C07FC0
07807BC0
0F007D80
1F007D80
3E007F00
3E007E00
3E007C00
7C00FC00
7C00F800
FC00F800
F801F000
F801F000
F801F000
F803E000
F803C000
78078000
780F0000
3C1E0000
1FFC0000
07E00000
ENDCHAR
STARTCHAR ohorn
ENCODING 417
SWIDTH 500 0
DWIDTH 16 0
BBX 20 15 1 0
BITMAP
01F0E0
073DF0
1E1DF0
1C1FF0
3C1EF0
7C1E60
783E60
F83EC0
F83D80
F07F00
F07800
F07000
70F000
79E000
1F8000
ENDCHAR
STARTCHAR Uhorn
ENCODING 431
SWIDTH 722 0
DWIDTH 24 0
BBX 27 23 2 0
BITMAP
7FE07FC0
1F803FE0
1F801BE0
1F001BE0
1F0031E0
3F0030C0
3E0030C0
3E006180
3E006300
7E006600
7C00C000
7C00C000
7C00C000
F8018000
F8018000
F8018000
F8030000
F8030000
F8060000
7C0E0000
7E1C0000
3FF80000
0FE00000
ENDCHAR
STARTCHAR uhorn
ENCODING 432
SWIDTH 556 0
DWIDTH 18 0
BBX 20 15 1 0
BITMAP
1E1EE0
FE1FF0
3C1FF0
3C3DF0
3C3CF0
3C3C60
787C60
7878C0
78F980
70FB00
F0F000
F1F200
F37600
FE7C00
787800
ENDCHAR
STARTCHAR uni01B5
ENCODING 437
SWIDTH 611 0
DWIDTH 20 0
BBX 20 23 -1 0
BITMAP
0FFFF0
0FC3E0
0E07E0
1C07C0
180F80
101F80
003F00
003E00
007E00
00FC00
00F800
1FFFC0
03F000
03E000
07E000
0FC000
0F8000
1F8040
3F00C0
3E01C0
7E0380
FC1F80
FFFF80
ENDCHAR
STARTCHAR uni01B6
ENCODING 438
SWIDTH 389 0
DWIDTH 13 0
BBX 15 17 -1 -2
BITMAP
1FFC
1FFC
3FF8
2030
0060
00C0
0180
0300
FFFE
0C00
1800
3000
7C10
FF38
EFB8
87F0
01E0
ENDCHAR
STARTCHAR uni01BB
ENCODING 443
SWIDTH 500 0
DWIDTH 16 0
BBX 17 23 -1 0
BITMAP
007C00
01FF00
01FF00
031F80
060F80
040780
000780
000780
000F00
000F00
001E00
FFFF80
003800
007000
00E000
01C000
038000
070100
0E0700
1FFE00
3FFE00
7FFC00
FFFC00
ENDCHAR
STARTCHAR uni01BC
ENCODING 444
SWIDTH 500 0
DWIDTH 16 0
BBX 15 23 0 0
BITMAP
07FE
07FE
07FC
0FFC
0C00
0C00
1C00
1F80
1FE0
3FF0
07F0
01F8
00F8
0078
0078
0038
0038
0038
0070
6070
F0E0
FF80
7E00
ENDCHAR
STARTCHAR uni01C0
ENCODING 448
SWIDTH 220 0
DWIDTH 7 0
BBX 3 23 2 0
BITMAP
E0
E0
E0
E0
E0
E0
E0
E0
E0
E0
E0
E0
E0
E0
E0
E0
E0
E0
E0
E0
E0
E0
E0
ENDCHAR
STARTCHAR uni01C2
ENCODING 450
SWIDTH 570 0
DWIDTH 19 0
BBX 15 23 2 -3
BITMAP
0380
0380
0380
0380
0380
0380
0380
FFFE
FFFE
FFFE
0380
0380
0380
FFFE
FFFE
FFFE
0380
0380
0380
0380
0380
0380
0380
ENDCHAR
STARTCHAR uni01C3
ENCODING 451
SWIDTH 389 0
DWIDTH 13 0
BBX 10 23 2 0
BITMAP
0380
07C0
07C0
0FC0
0FC0
0F80
0F80
0F00
0F00
0E00
0E00
0C00
0C00
1800
1800
1800
0000
0000
7000
F800
F800
F800
7000
ENDCHAR
STARTCHAR uni01CD
ENCODING 461
SWIDTH 667 0
DWIDTH 21 0
BBX 21 30 -1 0
BITMAP
00C0C0
0061C0
007380
003F00
003E00
001C00
000000
000200
000600
000700
000F00
001F00
001F00
003F00
002F00
006F80
004F80
00CF80
018F80
018780
030780
0207C0
07FFC0
0FFFC0
0C07C0
1807C0
1803C0
3003E0
7007E0
FC1FF8
ENDCHAR
STARTCHAR uni01CE
ENCODING 462
SWIDTH 500 0
DWIDTH 16 0
BBX 14 22 0 0
BITMAP
0C0C
061C
0738
03F0
03E0
01C0
0000
039C
0FDC
1E7C
3C3C
7838
7878
F878
F078
F0F0
F0F0
F0F4
F1EC
7F78
7E70
1C60
ENDCHAR
STARTCHAR uni01CF
ENCODING 463
SWIDTH 389 0
DWIDTH 13 0
BBX 15 30 -1 0
BITMAP
0C0C
061C
0738
03F0
03E0
01C0
0000
07FE
01F8
01F8
01F0
01F0
01F0
03E0
03E0
03E0
03E0
07C0
07C0
07C0
07C0
0F80
0F80
0F80
0F80
1F00
1F00
1F00
3F00
FFC0
ENDCHAR
STARTCHAR uni01D0
ENCODING 464
SWIDTH 278 0
DWIDTH 9 0
BBX 10 22 0 0
BITMAP
C0C0
61C0
7380
3F00
3E00
1C00
0000
0F00
7F00
1E00
1E00
1E00
3C00
3C00
3C00
3C00
7800
7900
7B00
7E00
7C00
3800
ENDCHAR
STARTCHAR uni01D1
ENCODING 465
SWIDTH 722 0
DWIDTH 23 0
BBX 22 30 1 0
BITMAP
00C0C0
0061C0
007380
003F00
003E00
001C00
000000
001F80
00FFE0
01E0F0
03C078
078078
0F007C
1F007C
3E007C
3E007C
3E007C
7C00FC
7C00F8
FC00F8
F801F0
F801F0
F801F0
F803E0
F803C0
780780
780F00
3C1E00
1FFC00
07E000
ENDCHAR
STARTCHAR uni01D2
ENCODING 466
SWIDTH 500 0
DWIDTH 16 0
BBX 15 22 1 0
BITMAP
0C0C
061C
0738
03F0
03E0
01C0
0000
01F0
073C
1E1C
1C1E
3C1E
7C1E
783E
F83E
F83C
F07C
F078
F070
70F0
79E0
1F80
ENDCHAR
STARTCHAR uni01D3
ENCODING 467
SWIDTH 722 0
DWIDTH 24 0
BBX 23 30 2 0
BITMAP
030300
018700
01CE00
00FC00
00F800
007000
000000
7FE07E
1F803C
1F8018
1F0018
1F0030
3F0030
3E0030
3E0060
3E0060
7E0060
7C00C0
7C00C0
7C00C0
F80180
F80180
F80180
F80300
F80300
F80600
7C0E00
7E1C00
3FF800
0FE000
ENDCHAR
STARTCHAR uni01D4
ENCODING 468
SWIDTH 556 0
DWIDTH 18 0
BBX 15 22 1 0
BITMAP
1818
0C38
0E70
07E0
07C0
0380
0000
1E1E
FE1E
3C1E
3C3C
3C3C
3C3C
787C
7878
78F8
70F8
F0F0
F1F2
F376
FE7C
7878
ENDCHAR
STARTCHAR uni01D5
ENCODING 469
SWIDTH 722 0
DWIDTH 24 0
BBX 23 32 3 0
BITMAP
01FFC0
01FFC0
000000
0060C0
00F1E0
00F1E0
0060C0
000000
000000
7FE07E
1F803C
1F8018
1F0018
1F0030
3F0030
3E0030
3E0060
3E0060
7E0060
7C00C0
7C00C0
7C00C0
F80180
F80180
F80180
F80300
F80300
F80600
7C0E00
7E1C00
3FF800
0FE000
ENDCHAR
STARTCHAR uni01D6
ENCODING 470
SWIDTH 556 0
DWIDTH 18 0
BBX 15 24 1 0
BITMAP
1FFC
1FFC
0000
060C
0F1E
0F1E
060C
0000
0000
1E1E
FE1E
3C1E
3C3C
3C3C
3C3C
787C
7878
78F8
70F8
F1F0
F3F2
F6F6
FCFC
7878
ENDCHAR
STARTCHAR uni01D7
ENCODING 471
SWIDTH 722 0
DWIDTH 24 0
BBX 23 36 3 0
BITMAP
000380
000780
000F80
001E00
003800
003000
000000
0060C0
00F1E0
00F1E0
0060C0
000000
000000
7FE07E
1F803C
1F8018
1F0018
1F0030
3F0030
3E0030
3E0060
3E0060
7E0060
7C00C0
7C00C0
7C00C0
F80180
F80180
F80180
F80300
F80300
F80600
7C0E00
7E1C00
3FF800
0FE000
ENDCHAR
STARTCHAR uni01D8
ENCODING 472
SWIDTH 556 0
DWIDTH 18 0
BBX 15 28 1 0
BITMAP
001C
003C
007C
00F0
01C0
0180
0000
060C
0F1E
0F1E
060C
0000
0000
1E1E
FE1E
3C1E
3C3C
3C3C
3C3C
787C
7878
78F8
70F8
F1F0
F3F2
F6F6
FCFC
7878
ENDCHAR
STARTCHAR uni01D9
ENCODING 473
SWIDTH 722 0
DWIDTH 24 0
BBX 23 36 3 0
BITMAP
018180
00C380
00E700
007E00
007C00
003800
000000
0060C0
00F1E0
00F1E0
0060C0
000000
000000
7FE07E
1F803C
1F8018
1F0018
1F0030
3F0030
3E0030
3E0060
3E0060
7E0060
7C00C0
7C00C0
7C00C0
F80180
F80180
F80180
F80300
F80300
F80600
7C0E00
7E1C00
3FF800
0FE000
ENDCHAR
STARTCHAR uni01DA
ENCODING 474
SWIDTH 556 0
DWIDTH 18 0
BBX 15 28 1 0
BITMAP
0C0C
061C
0738
03F0
03E0
01C0
0000
060C
0F1E
0F1E
060C
0000
0000
1E1E
FE1E
3C1E
3C3C
3C3C
3C3C
787C
7878
78F8
70F8
F1F0
F3F2
F6F6
FCFC
7878
ENDCHAR
STARTCHAR uni01DB
ENCODING 475
SWIDTH 722 0
DWIDTH 24 0
BBX 23 36 3 0
BITMAP
01C000
01E000
01F000
007800
001C00
000C00
000000
0060C0
00F1E0
00F1E0
0060C0
000000
000000
7FE07E
1F803C
1F8018
1F0018
1F0030
3F0030
3E0030
3E0060
3E0060
7E0060
7C00C0
7C00C0
7C00C0
F80180
F80180
F80180
F80300
F80300
F80600
7C0E00
7E1C00
3FF800
0FE000
ENDCHAR
STARTCHAR uni01DC
ENCODING 476
SWIDTH 556 0
DWIDTH 18 0
BBX 15 28 1 0
BITMAP
0E00
0F00
0F80
03C0
00E0
0060
0000
060C
0F1E
0F1E
060C
0000
0000
1E1E
FE1E
3C1E
3C3C
3C3C
3C3C
787C
7878
78F8
70F8
F1F0
F3F2
F6F6
FCFC
7878
ENDCHAR
STARTCHAR uni01DD
ENCODING 477
SWIDTH 444 0
DWIDTH 14 0
BBX 12 15 1 0
BITMAP
0780
1FE0
31E0
60F0
40F0
00F0
03F0
1EF0
38E0
71E0
F1C0
E3C0
E780
FF00
7C00
ENDCHAR
STARTCHAR uni01DE
ENCODING 478
SWIDTH 667 0
DWIDTH 21 0
BBX 21 32 -1 0
BITMAP
00FFE0
00FFE0
000000
003060
0078F0
0078F0
003060
000000
000000
000200
000600
000700
000F00
001F00
001F00
003F00
002F00
006F80
004F80
00CF80
018F80
018780
030780
0207C0
07FFC0
0FFFC0
0C07C0
1807C0
1803C0
3003E0
7007E0
FC1FF8
ENDCHAR
STARTCHAR uni01DF
ENCODING 479
SWIDTH 500 0
DWIDTH 16 0
BBX 15 24 0 0
BITMAP
1FFC
1FFC
0000
060C
0F1E
0F1E
060C
0000
0000
039C
0FDC
1E7C
3C3C
7838
7878
F878
F078
F0F0
F0F0
F0F4
F1EC
7F78
7E70
1C60
ENDCHAR
STARTCHAR uni01E0
ENCODING 480
SWIDTH 667 0
DWIDTH 21 0
BBX 21 31 -1 0
BITMAP
01FFC0
01FFC0
000000
000C00
001E00
001E00
000C00
000000
000200
000600
000700
000F00
001F00
001F00
003F00
002F00
006F80
004F80
00CF80
018F80
018780
030780
0207C0
07FFC0
0FFFC0
0C07C0
1807C0
1803C0
3003E0
7007E0
FC1FF8
ENDCHAR
STARTCHAR uni01E1
ENCODING 481
SWIDTH 500 0
DWIDTH 16 0
BBX 14 23 0 0
BITMAP
1FFC
1FFC
0000
0180
03C0
03C0
0180
0000
039C
0FDC
1E7C
3C3C
7838
7878
F878
F078
F0F0
F0F0
F0F4
F1EC
7F78
7E70
1C60
ENDCHAR
STARTCHAR uni01E2
ENCODING 482
SWIDTH 944 0
DWIDTH 31 0
BBX 32 26 -1 0
BITMAP
0003FF80
0003FF80
00000000
0007FFFF
0001FE0F
0003FC07
00037C06
00067C06
000EF806
001CF804
0018F820
0038F820
0071F860
0061F0E0
00C1FFE0
01C1F1C0
03FFE0C0
0303E0C0
0703E080
0E03E000
1C07C004
1C07C00C
3807C01C
700FC038
700FC0F8
FC3FFFF8
ENDCHAR
STARTCHAR uni01E3
ENCODING 483
SWIDTH 722 0
DWIDTH 23 0
BBX 22 18 1 0
BITMAP
01FFC0
01FFC0
000000
01EEF8
077F8C
0E3F1C
1C3E1C
3C3E3C
7C3C38
783CF0
F87FC0
F87E00
F07800
F0F810
F1F830
73BC60
7E3FC0
1C1F80
ENDCHAR
STARTCHAR uni01E4
ENCODING 484
SWIDTH 722 0
DWIDTH 24 0
BBX 28 23 1 0
BITMAP
003FE400
00FCFC00
03F03C00
07C01C00
0F801800
1F000800
3F000800
3E000000
7E000000
7C000000
7C000000
F8000000
F803FE00
F800F800
F800F800
F800F000
F801F000
7C01F000
7C07FFF0
3E03E000
3F07C000
0FFFC000
03FF0000
ENDCHAR
STARTCHAR uni01E5
ENCODING 485
SWIDTH 500 0
DWIDTH 16 0
BBX 18 22 -1 -7
BITMAP
01F800
07FFC0
0F8FC0
0F0700
1F0700
1E0700
1E0E00
1F3E00
0FFC00
07E000
0E0000
1C0000
1F8000
1FF000
0FF800
1FF800
707C00
FFFFC0
E01C00
F03C00
787800
1FE000
ENDCHAR
STARTCHAR Gcaron
ENCODING 486
SWIDTH 722 0
DWIDTH 24 0
BBX 23 30 1 0
BITMAP
00C0C0
0061C0
007380
003F00
003E00
001C00
000000
003FE4
00FCFC
03F03C
07C01C
0F8018
1F0008
3F0008
3E0000
7E0000
7C0000
7C0000
F80000
F803FE
F800F8
F800F8
F800F0
F801F0
7C01F0
7C01E0
3E03E0
3F07C0
0FFFC0
03FF00
ENDCHAR
STARTCHAR gcaron
ENCODING 487
SWIDTH 500 0
DWIDTH 16 0
BBX 18 29 -1 -7
BITMAP
060600
030E00
039C00
01F800
01F000
00E000
000000
01F800
07FFC0
0F8FC0
0F0700
1F0700
1E0700
1E0E00
1F3E00
0FFC00
07E000
0E0000
1C0000
1F8000
1FF000
0FF800
1FF800
707C00
E01C00
E01C00
F03C00
787800
1FE000
ENDCHAR
STARTCHAR uni01E8
ENCODING 488
SWIDTH 667 0
DWIDTH 22 0
BBX 24 30 -1 0
BITMAP
00C0C0
0061C0
007380
003F00
003E00
001C00
000000
07FE7F
01F81C
01F018
01F030
01E060
03E0C0
03E180
03C300
03C600
07DC00
07FC00
07FE00
07DE00
0F9F00
0F9F00
0F9F80
0F0F80
1F0FC0
1F07C0
1E07E0
3E03E0
3F03F0
FFCFF8
ENDCHAR
STARTCHAR uni01E9
ENCODING 489
SWIDTH 500 0
DWIDTH 16 0
BBX 16 30 1 0
BITMAP
3030
1870
1CE0
0FC0
0F80
0700
0000
0380
1F80
0F80
0780
0700
0F00
0F00
0F00
0E3F
0E1C
1E38
1E30
1E60
1CC0
3D80
3F80
3FC0
3BC0
79E0
79E2
70F6
F0FC
F078
ENDCHAR
STARTCHAR uni01EA
ENCODING 490
SWIDTH 722 0
DWIDTH 23 0
BBX 22 28 1 -5
BITMAP
001F80
00FFE0
01E0F0
03C078
078078
0F007C
1F007C
3E007C
3E007C
3E007C
7C00FC
7C00F8
FC00F8
F801F0
F801F0
F801F0
F803E0
F803C0
780780
780F00
3C1E00
1FFC00
07E000
018000
018000
019800
01F800
00F000
ENDCHAR
STARTCHAR uni01EB
ENCODING 491
SWIDTH 500 0
DWIDTH 16 0
BBX 15 20 1 -5
BITMAP
01F0
073C
1E1C
1C1E
3C1E
7C1E
783E
F83E
F83C
F07C
F078
F070
70F0
7BE0
1F80
0C00
0C00
0CC0
0FC0
0780
ENDCHAR
STARTCHAR uni01EC
ENCODING 492
SWIDTH 722 0
DWIDTH 23 0
BBX 22 31 1 -5
BITMAP
01FFC0
01FFC0
000000
001F80
00FFE0
01E0F0
03C078
078078
0F007C
1F007C
3E007C
3E007C
3E007C
7C00FC
7C00F8
FC00F8
F801F0
F801F0
F801F0
F803E0
F803C0
780780
780F00
3C1E00
1FFC00
07E000
018000
018000
019800
01F800
00F000
ENDCHAR
STARTCHAR uni01ED
ENCODING 493
SWIDTH 500 0
DWIDTH 16 0
BBX 15 23 1 -5
BITMAP
1FFC
1FFC
0000
01F0
073C
1E1C
1C1E
3C1E
7C1E
783E
F83E
F83C
F07C
F078
F070
70F0
7BE0
1F80
0C00
0C00
0CC0
0FC0
0780
ENDCHAR
STARTCHAR uni01F0
ENCODING 496
SWIDTH 278 0
DWIDTH 9 0
BBX 14 29 -4 -7
BITMAP
0C0C
061C
0738
03F0
03E0
01C0
0000
0078
03F8
00F0
00F0
00F0
01E0
01E0
01E0
01E0
03C0
03C0
03C0
03C0
07C0
0780
0780
0780
0F00
4F00
EE00
FC00
7800
ENDCHAR
STARTCHAR uni01F4
ENCODING 500
SWIDTH 722 0
DWIDTH 24 0
BBX 23 30 1 0
BITMAP
000380
000780
000F80
001E00
003800
003000
000000
003FE4
00FCFC
03F03C
07C01C
0F8018
1F0008
3F0008
3E0000
7E0000
7C0000
7C0000
F80000
F803FE
F800F8
F800F8
F800F0
F801F0
7C01F0
7C01E0
3E03E0
3F07C0
0FFFC0
03FF00
ENDCHAR
STARTCHAR uni01F5
ENCODING 501
SWIDTH 500 0
DWIDTH 16 0
BBX 18 29 -1 -7
BITMAP
000E00
001E00
003E00
007800
00E000
00C000
000000
01F800
07FFC0
0F8FC0
0F0700
1F0700
1E0700
1E0E00
1F3E00
0FFC00
07E000
0E0000
1C0000
1F8000
1FF000
0FF800
1FF800
707C00
E01C00
E01C00
F03C00
787800
1FE000
ENDCHAR
STARTCHAR uni01F8
ENCODING 504
SWIDTH 722 0
DWIDTH 24 0
BBX 26 30 -1 0
BITMAP
00700000
00780000
007C0000
001E0000
00070000
00030000
00000000
07E01FC0
03F00F80
01F00700
01F80700
01F80600
037C0600
037C0600
033E0C00
023E0C00
063F0C00
061F0C00
061F1800
0C0F9800
0C0F9800
0C07D000
0C07F000
1803F000
1803F000
1803F000
3801E000
3801E000
7C00E000
FE00E000
ENDCHAR
STARTCHAR uni01F9
ENCODING 505
SWIDTH 556 0
DWIDTH 18 0
BBX 15 22 1 0
BITMAP
1C00
1E00
1F00
0780
01C0
00C0
0000
1E3C
FE7E
1CFE
3D9E
3E1E
3C3C
3C3C
3C3C
7878
7878
7878
F0F2
F0F6
F0FC
F078
ENDCHAR
STARTCHAR Aringacute
ENCODING 506
SWIDTH 667 0
DWIDTH 21 0
BBX 21 37 -1 0
BITMAP
0001C0
0003C0
0007C0
000F00
001C00
001800
000000
000700
000F80
001CC0
0018C0
0018C0
001DC0
000F80
000700
000600
000700
000F00
001F00
001F00
003F00
002F00
006F80
004F80
00CF80
018F80
018780
030780
0207C0
07FFC0
0FFFC0
0C07C0
1807C0
1803C0
3003E0
7007E0
FC1FF8
ENDCHAR
STARTCHAR aringacute
ENCODING 507
SWIDTH 500 0
DWIDTH 16 0
BBX 14 30 0 0
BITMAP
001C
003C
007C
00F0
01C0
0180
0000
00E0
01F0
0398
0318
0318
03B8
01F0
00E0
039C
0FDC
1E7C
3C3C
7838
7878
F878
F078
F0F0
F0F0
F0F4
F1EC
7F78
7E70
1C60
ENDCHAR
STARTCHAR AEacute
ENCODING 508
SWIDTH 944 0
DWIDTH 31 0
BBX 32 30 -1 0
BITMAP
00000380
00000780
00000F80
00001E00
00003800
00003000
00000000
0007FFFF
0001FE0F
0003FC07
00037C06
00067C06
000EF806
001CF804
0018F820
0038F820
0071F860
0061F0E0
00C1FFE0
01C1F1C0
03FFE0C0
0303E0C0
0703E080
0E03E000
1C07C004
1C07C00C
3807C01C
700FC038
700FC0F8
FC3FFFF8
ENDCHAR
STARTCHAR aeacute
ENCODING 509
SWIDTH 722 0
DWIDTH 23 0
BBX 22 22 1 0
BITMAP
000380
000780
000F80
001E00
003800
003000
000000
01EEF8
077F8C
0E3F1C
1C3E1C
3C3E3C
7C3C38
783CF0
F87FC0
F87E00
F07800
F0F810
F1F830
73BC60
7E3FC0
1C1F80
ENDCHAR
STARTCHAR Oslashacute
ENCODING 510
SWIDTH 722 0
DWIDTH 23 0
BBX 22 37 1 -4
BITMAP
0001C0
0003C0
0007C0
000F00
001C00
001800
000000
000030
000020
000060
001FC0
00FFE0
01E1F0
03C178
078378
0F027C
1F067C
3E0C7C
3E0C7C
3E187C
7C10FC
7C30F8
FC60F8
F861F0
F8C1F0
F8C1F0
F983E0
F903C0
7B0780
7E0F00
3E1E00
1FFC00
0FE000
180000
100000
300000
200000
ENDCHAR
STARTCHAR oslashacute
ENCODING 511
SWIDTH 500 0
DWIDTH 17 0
BBX 15 29 1 -4
BITMAP
001C
003C
007C
00F0
01C0
0180
0000
000C
000C
0018
01F0
073C
0E3C
1C7E
3CDE
7C9E
79BE
F93E
FB3C
F67C
F478
FC70
78E0
79C0
3F00
2000
6000
4000
4000
ENDCHAR
STARTCHAR Scommaaccent
ENCODING 536
SWIDTH 556 0
DWIDTH 18 0
BBX 17 34 1 -11
BITMAP
03F880
0FFD80
1F0F80
1E0700
3C0300
3E0300
3E0200
3F0000
1FC000
1FE000
0FF000
07F800
03FC00
00FC00
007E00
003E00
801E00
C01E00
C01E00
E03C00
F07C00
FFF800
DFE000
000000
038000
07C000
07C000
07C000
03C000
018000
018000
030000
060000
0C0000
ENDCHAR
STARTCHAR scommaaccent
ENCODING 537
SWIDTH 389 0
DWIDTH 13 0
BBX 11 26 1 -11
BITMAP
0FA0
1DE0
3860
3C60
3C20
3E00
1F00
1F80
0F80
07C0
87C0
C3C0
C380
F700
BE00
0000
0E00
1F00
1F00
1F00
0F00
0600
0600
0C00
1800
3000
ENDCHAR
STARTCHAR Tcommaaccent
ENCODING 538
SWIDTH 611 0
DWIDTH 20 0
BBX 19 34 2 -11
BITMAP
3FFFE0
3CF9E0
30F8E0
70F8C0
61F0C0
61F080
41F080
01F000
03E000
03E000
03E000
03E000
07C000
07C000
07C000
078000
0F8000
0F8000
0F8000
1F0000
1F0000
3F8000
FFE000
000000
038000
07C000
07C000
07C000
03C000
018000
018000
030000
060000
0C0000
ENDCHAR
STARTCHAR tcommaaccent
ENCODING 539
SWIDTH 278 0
DWIDTH 9 0
BBX 9 31 1 -11
BITMAP
0100
0300
0700
0E00
3E00
7F80
FF80
3C00
3C00
3C00
7800
7800
7800
7800
F000
F200
F600
FC00
F800
7000
0000
3800
7C00
7C00
7C00
3C00
1800
1800
3000
6000
C000
ENDCHAR
STARTCHAR uni021E
ENCODING 542
SWIDTH 778 0
DWIDTH 25 0
BBX 27 30 -1 0
BITMAP
00303000
00187000
001CE000
000FC000
000F8000
00070000
00000000
07FE7FE0
01F81F80
01F01F00
01F01F00
01F01F00
01E01E00
01E01E00
03E03E00
03E03E00
03C03C00
03FFFC00
03FFFC00
07C07C00
07807800
07807800
0F80F800
0F80F800
0F80F800
0F00F000
1F01F000
1F01F000
3F03F000
FFC7FC00
ENDCHAR
STARTCHAR uni021F
ENCODING 543
SWIDTH 556 0
DWIDTH 18 0
BBX 16 30 1 0
BITMAP
3030
1870
1CE0
0FC0
0F80
0700
0000
0380
3F80
1F80
0780
0F00
0F00
0F00
1F00
1E3C
1E7E
1EDE
3F1E
3E1E
3E3C
3C3C
7C3C
7878
7878
7879
F0F3
F0F6
F0FC
F078
ENDCHAR
STARTCHAR uni0226
ENCODING 550
SWIDTH 667 0
DWIDTH 21 0
BBX 21 28 -1 0
BITMAP
000C00
001E00
001E00
000C00
000000
000200
000600
000700
000F00
001F00
001F00
003F00
002F00
006F80
004F80
00CF80
018F80
018780
030780
0207C0
07FFC0
0FFFC0
0C07C0
1807C0
1803C0
3003E0
7007E0
FC1FF8
ENDCHAR
STARTCHAR uni0227
ENCODING 551
SWIDTH 500 0
DWIDTH 16 0
BBX 14 20 0 0
BITMAP
0180
03C0
03C0
0180
0000
039C
0FDC
1E7C
3C3C
7838
7878
F878
F078
F0F0
F0F0
F0F4
F1EC
7F78
7E70
1C60
ENDCHAR
STARTCHAR uni0228
ENCODING 552
SWIDTH 667 0
DWIDTH 22 0
BBX 22 30 -1 -7
BITMAP
07FFFC
01F83C
01F01C
01F018
01F018
03E018
03E010
03E080
03E080
07E180
07C780
07FF80
07C700
0F8300
0F8300
0F8200
0F8000
1F0010
1F0030
1F0070
3F00E0
3F03E0
FFFFE0
002000
006000
00F800
001C00
010C00
018C00
00F800
ENDCHAR
STARTCHAR uni0229
ENCODING 553
SWIDTH 444 0
DWIDTH 14 0
BBX 12 22 1 -7
BITMAP
03E0
0FF0
1E70
3C70
38F0
78E0
71C0
F780
FC00
F000
F020
F060
78C0
7F80
1E00
0400
0C00
1F00
0380
2180
3180
1F00
ENDCHAR
STARTCHAR uni022A
ENCODING 554
SWIDTH 722 0
DWIDTH 23 0
BBX 22 32 1 0
BITMAP
00FFE0
00FFE0
000000
003060
0078F0
0078F0
003060
000000
000000
001F80
00FFE0
01E0F0
03C078
078078
0F007C
1F007C
3E007C
3E007C
3E007C
7C00FC
7C00F8
FC00F8
F801F0
F801F0
F801F0
F803E0
F803C0
780780
780F00
3C1E00
1FFC00
07E000
ENDCHAR
STARTCHAR uni022B
ENCODING 555
SWIDTH 500 0
DWIDTH 16 0
BBX 16 24 1 0
BITMAP
0FFE
0FFE
0000
0306
078F
078F
0306
0000
0000
01F0
073C
1E1C
1C1E
3C1E
7C1E
783E
F83E
F83C
F07C
F078
F070
70F0
79E0
1F80
ENDCHAR
STARTCHAR uni022C
ENCODING 556
SWIDTH 722 0
DWIDTH 23 0
BBX 22 32 1 0
BITMAP
00FFE0
00FFE0
000000
000F8C
001FDC
003BF8
0031F0
000000
000000
001F80
00FFE0
01E0F0
03C078
078078
0F007C
1F007C
3E007C
3E007C
3E007C
7C00FC
7C00F8
FC00F8
F801F0
F801F0
F801F0
F803E0
F803C0
780780
780F00
3C1E00
1FFC00
07E000
ENDCHAR
STARTCHAR uni022D
ENCODING 557
SWIDTH 500 0
DWIDTH 16 0
BBX 17 24 1 0
BITMAP
07FF00
07FF00
000000
01E180
03F380
073F00
061E00
000000
000000
01F000
073C00
1E1C00
1C1E00
3C1E00
7C1E00
783E00
F83E00
F83C00
F07C00
F07800
F07000
70F000
79E000
1F8000
ENDCHAR
STARTCHAR uni022E
ENCODING 558
SWIDTH 722 0
DWIDTH 23 0
BBX 22 28 1 0
BITMAP
000C00
001E00
001E00
000C00
000000
001F80
00FFE0
01E0F0
03C078
078078
0F007C
1F007C
3E007C
3E007C
3E007C
7C00FC
7C00F8
FC00F8
F801F0
F801F0
F801F0
F803E0
F803C0
780780
780F00
3C1E00
1FFC00
07E000
ENDCHAR
STARTCHAR uni022F
ENCODING 559
SWIDTH 500 0
DWIDTH 16 0
BBX 15 20 1 0
BITMAP
00C0
01E0
01E0
00C0
0000
01F0
073C
1E1C
1C1E
3C1E
7C1E
783E
F83E
F83C
F07C
F078
F070
70F0
79E0
1F80
ENDCHAR
STARTCHAR uni0230
ENCODING 560
SWIDTH 722 0
DWIDTH 23 0
BBX 22 31 1 0
BITMAP
01FFC0
01FFC0
000000
000C00
001E00
001E00
000C00
000000
001F80
00FFE0
01E0F0
03C078
078078
0F007C
1F007C
3E007C
3E007C
3E007C
7C00FC
7C00F8
FC00F8
F801F0
F801F0
F801F0
F803E0
F803C0
780780
780F00
3C1E00
1FFC00
07E000
ENDCHAR
STARTCHAR uni0231
ENCODING 561
SWIDTH 500 0
DWIDTH 16 0
BBX 15 23 1 0
BITMAP
1FFC
1FFC
0000
00C0
01E0
01E0
00C0
0000
01F0
073C
1E1C
1C1E
3C1E
7C1E
783E
F83E
F83C
F07C
F078
F070
70F0
79E0
1F80
ENDCHAR
STARTCHAR uni0232
ENCODING 562
SWIDTH 611 0
DWIDTH 20 0
BBX 19 26 2 0
BITMAP
1FFC00
1FFC00
000000
FF8FE0
7E03C0
3E0380
3E0300
1E0600
1F0600
1F0C00
0F1800
0F9800
0FB000
0FE000
07C000
07C000
07C000
0F8000
0F8000
0F8000
0F8000
1F0000
1F0000
1F0000
3F0000
FFC000
ENDCHAR
STARTCHAR uni0233
ENCODING 563
SWIDTH 444 0
DWIDTH 15 0
BBX 16 25 -2 -7
BITMAP
0FFE
0FFE
0000
0386
1F8F
078F
0787
03C3
03C2
03C6
03C4
03CC
01C8
01D8
01F0
01F0
01E0
01E0
01C0
0180
0180
6300
FE00
FC00
7000
ENDCHAR
STARTCHAR uni0250
ENCODING 592
SWIDTH 500 0
DWIDTH 16 0
BBX 14 15 0 0
BITMAP
18E0
39F8
7BF8
DE3C
BC3C
3C3C
3C3C
783C
787C
7878
7078
F0F0
F9E0
EFC0
E700
ENDCHAR
STARTCHAR uni0259
ENCODING 601
SWIDTH 444 0
DWIDTH 14 0
BBX 12 15 1 0
BITMAP
0780
1FE0
31E0
60F0
40F0
00F0
03F0
1EF0
38E0
71E0
F1C0
E3C0
E780
FF00
7C00
ENDCHAR
STARTCHAR uni025F
ENCODING 607
SWIDTH 333 0
DWIDTH 11 0
BBX 20 30 -5 -15
BITMAP
0003E0
000770
000E70
000E60
001E00
001C00
003C00
003C00
007800
007800
007800
00F000
00F000
00F000
00F000
01F000
01E000
01E000
01E000
03E000
1FF800
03C000
03C000
03C000
038000
078000
670000
E70000
EE0000
7C0000
ENDCHAR
STARTCHAR uni0265
ENCODING 613
SWIDTH 556 0
DWIDTH 18 0
BBX 16 23 1 -8
BITMAP
1E0F
3F0F
6F0F
CF0F
9E1E
1E1E
1E1E
3C3E
3C3C
3C7C
787C
78FC
7B78
7E78
3C78
00F8
00F0
00F0
00F0
01E0
01F8
01FC
01C0
ENDCHAR
STARTCHAR uni0275
ENCODING 629
SWIDTH 500 0
DWIDTH 16 0
BBX 15 15 1 0
BITMAP
01F0
073C
1E1C
1C1E
3C1E
7C1E
783E
FFFE
F83C
F07C
F078
F070
70F0
79E0
1F80
ENDCHAR
STARTCHAR uni0279
ENCODING 633
SWIDTH 389 0
DWIDTH 13 0
BBX 14 15 0 0
BITMAP
007C
0078
0078
0078
00F0
00F0
00F0
01F0
01E0
03E0
67E0
FDE0
F9E0
F3F8
63C0
ENDCHAR
STARTCHAR uni0287
ENCODING 647
SWIDTH 278 0
DWIDTH 9 0
BBX 9 20 1 0
BITMAP
0700
0F80
1F80
3780
2780
0780
0F00
0F00
0F00
0F00
1E00
1E00
1E00
FF80
FF00
3E00
3800
7000
6000
4000
ENDCHAR
STARTCHAR uni0289
ENCODING 649
SWIDTH 556 0
DWIDTH 18 0
BBX 15 15 1 0
BITMAP
1E1E
FE1E
3C1E
3C3C
3C3C
3C3C
787C
FFFE
78F8
70F8
F0F0
F1F2
F376
FE7C
7878
ENDCHAR
STARTCHAR uni028C
ENCODING 652
SWIDTH 444 0
DWIDTH 15 0
BBX 14 15 1 0
BITMAP
0060
00E0
01E0
03E0
07E0
0DE0
19E0
19E0
31E0
30F0
60F0
60F0
F0F0
F0FC
60E0
ENDCHAR
STARTCHAR uni028D
ENCODING 653
SWIDTH 667 0
DWIDTH 22 0
BBX 21 15 1 0
BITMAP
0060C0
00E0C0
01E1C0
03E1C0
07E3C0
0DE7C0
0DE7C0
19EBC0
31DBC0
31F3C0
61F3C0
E0E1E0
F0C1E0
F0C1F8
6081C0
ENDCHAR
STARTCHAR uni028E
ENCODING 654
SWIDTH 444 0
DWIDTH 15 0
BBX 16 22 -2 0
BITMAP
000E
003F
007F
00C6
0180
0180
0380
0780
0780
0F80
0F80
1B80
1380
33C0
23C0
63C0
43C0
C3C0
E1E0
F1E0
F1F8
61C0
ENDCHAR
STARTCHAR uni029E
ENCODING 670
SWIDTH 500 0
DWIDTH 16 0
BBX 16 23 1 -8
BITMAP
1E0F
3F0F
6F0E
479E
079E
03DC
03FC
01FC
01BC
0338
0678
0C78
1C78
3870
FC70
00F0
00F0
00F0
00E0
01E0
01F0
01F8
01C0
ENDCHAR
STARTCHAR uni02BB
ENCODING 699
SWIDTH 333 0
DWIDTH 11 0
BBX 6 10 4 13
BITMAP
0C
18
30
60
60
F0
F8
F8
F8
70
ENDCHAR
STARTCHAR afii57929
ENCODING 700
SWIDTH 333 0
DWIDTH 11 0
BBX 6 10 4 13
BITMAP
38
7C
7C
7C
3C
18
18
30
60
C0
ENDCHAR
STARTCHAR afii64937
ENCODING 701
SWIDTH 333 0
DWIDTH 11 0
BBX 6 10 4 13
BITMAP
70
F8
F8
F8
F0
60
60
30
18
0C
ENDCHAR
STARTCHAR circumflex
ENCODING 710
SWIDTH 333 0
DWIDTH 11 0
BBX 10 6 3 17
BITMAP
0E00
1F00
3F00
7380
E180
C0C0
ENDCHAR
STARTCHAR caron
ENCODING 711
SWIDTH 333 0
DWIDTH 11 0
BBX 10 6 1 17
BITMAP
C0C0
61C0
7380
3F00
3E00
1C00
ENDCHAR
STARTCHAR uni02C8
ENCODING 712
SWIDTH 278 0
DWIDTH 9 0
BBX 5 11 4 12
BITMAP
70
F8
F8
F8
F8
F0
F0
E0
C0
C0
80
ENDCHAR
STARTCHAR macron
ENCODING 713
SWIDTH 333 0
DWIDTH 11 0
BBX 11 2 1 18
BITMAP
FFE0
FFE0
ENDCHAR
STARTCHAR uni02CA
ENCODING 714
SWIDTH 333 0
DWIDTH 11 0
BBX 7 6 3 17
BITMAP
0E
1E
3E
78
E0
C0
ENDCHAR
STARTCHAR uni02CB
ENCODING 715
SWIDTH 333 0
DWIDTH 11 0
BBX 7 6 2 17
BITMAP
E0
F0
F8
3C
0E
06
ENDCHAR
STARTCHAR uni02CD
ENCODING 717
SWIDTH 333 0
DWIDTH 11 0
BBX 11 2 1 -3
BITMAP
FFE0
FFE0
ENDCHAR
STARTCHAR uni02CE
ENCODING 718
SWIDTH 333 0
DWIDTH 11 0
BBX 7 6 2 -7
BITMAP
E0
F0
F8
3C
0E
06
ENDCHAR
STARTCHAR uni02CF
ENCODING 719
SWIDTH 333 0
DWIDTH 11 0
BBX 7 6 3 -7
BITMAP
0E
1E
3E
78
E0
C0
ENDCHAR
STARTCHAR breve
ENCODING 728
SWIDTH 333 0
DWIDTH 11 0
BBX 10 5 1 18
BITMAP
C0C0
C0C0
E1C0
7F80
1E00
ENDCHAR
STARTCHAR dotaccent
ENCODING 729
SWIDTH 333 0
DWIDTH 11 0
BBX 4 4 3 17
BITMAP
60
F0
F0
60
ENDCHAR
STARTCHAR ring
ENCODING 730
SWIDTH 333 0
DWIDTH 11 0
BBX 7 8 2 15
BITMAP
38
7C
E6
C6
C6
EE
7C
38
ENDCHAR
STARTCHAR ogonek
ENCODING 731
SWIDTH 333 0
DWIDTH 11 0
BBX 6 7 3 -5
BITMAP
30
60
C0
C0
CC
FC
78
ENDCHAR
STARTCHAR tilde
ENCODING 732
SWIDTH 333 0
DWIDTH 11 0
BBX 12 4 0 18
BITMAP
3C30
7E70
E7E0
C3C0
ENDCHAR
STARTCHAR hungarumlaut
ENCODING 733
SWIDTH 333 0
DWIDTH 11 0
BBX 11 7 0 18
BITMAP
38E0
38E0
71C0
71C0
6180
E380
C300
ENDCHAR
STARTCHAR uni02EE
ENCODING 750
SWIDTH 500 0
DWIDTH 17 0
BBX 14 10 3 13
BITMAP
3838
7C7C
7C7C
7C7C
3C3C
1818
1818
3030
6060
C0C0
ENDCHAR
STARTCHAR uni037E
ENCODING 894
SWIDTH 333 0
DWIDTH 11 0
BBX 9 21 1 -6
BITMAP
0700
0F80
0F80
0F80
0700
0000
0000
0000
0000
0000
0000
3800
7C00
7C00
7C00
3C00
1800
1800
3000
6000
C000
ENDCHAR
STARTCHAR tonos
ENCODING 900
SWIDTH 333 0
DWIDTH 11 0
BBX 7 6 3 17
BITMAP
0E
1E
3E
78
E0
C0
ENDCHAR
STARTCHAR dieresistonos
ENCODING 901
SWIDTH 333 0
DWIDTH 11 0
BBX 11 11 2 17
BITMAP
01C0
03C0
07C0
0F00
1C00
1800
0000
60C0
F1E0
F1E0
60C0
ENDCHAR
STARTCHAR anoteleia
ENCODING 903
SWIDTH 250 0
DWIDTH 8 0
BBX 5 5 1 6
BITMAP
70
F8
F8
F8
70
ENDCHAR
STARTCHAR mu
ENCODING 956
SWIDTH 576 0
DWIDTH 19 0
BBX 18 22 -1 -7
BITMAP
01C3C0
1FC3C0
0783C0
078780
078780
078780
0F0F80
0F0F00
0F1F00
0E1F00
1E3E00
1E7E40
1EDEC0
1F9F80
1F0F00
100000
300000
600000
600000
E00000
E00000
C00000
ENDCHAR
STARTCHAR uni1E00
ENCODING 7680
SWIDTH 667 0
DWIDTH 21 0
BBX 21 32 -1 -9
BITMAP
000200
000600
000700
000F00
001F00
001F00
003F00
002F00
006F80
004F80
00CF80
018F80
018780
030780
0207C0
07FFC0
0FFFC0
0C07C0
1807C0
1803C0
3003E0
7007E0
FC1FF8
000000
003800
007C00
00E600
00C600
00C600
00EE00
007C00
003800
ENDCHAR
STARTCHAR uni1E01
ENCODING 7681
SWIDTH 500 0
DWIDTH 16 0
BBX 14 24 0 -9
BITMAP
039C
0FDC
1E7C
3C3C
7838
7878
F878
F078
F0F0
F0F0
F0F4
F1EC
7F78
7E70
1C60
0000
0700
0F80
1CC0
18C0
18C0
1DC0
0F80
0700
ENDCHAR
STARTCHAR uni1E02
ENCODING 7682
SWIDTH 667 0
DWIDTH 21 0
BBX 22 28 -1 0
BITMAP
000C00
001E00
001E00
000C00
000000
07FFE0
01F1F8
01F07C
01F03C
01F03C
01F03C
03E03C
03E07C
03E0F8
03E1F0
07FF80
07FFC0
07C3F0
07C1F0
0F80F8
0F80F8
0F80F8
0F80F8
1F00F0
1F01F0
1F03E0
3F0F80
FFFE00
ENDCHAR
STARTCHAR uni1E03
ENCODING 7683
SWIDTH 500 0
DWIDTH 16 0
BBX 14 28 1 0
BITMAP
0600
0F00
0F00
0600
0000
0F00
3F00
0F00
0E00
0E00
1E00
1E00
1C00
3DE0
3FF8
3E78
3C3C
783C
783C
783C
783C
F078
F078
F0F0
F0E0
F1C0
FF80
7E00
ENDCHAR
STARTCHAR uni1E04
ENCODING 7684
SWIDTH 667 0
DWIDTH 21 0
BBX 22 28 -1 -5
BITMAP
07FFE0
01F1F8
01F07C
01F03C
01F03C
01F03C
03E03C
03E07C
03E0F8
03E1F0
07FF80
07FFC0
07C3F0
07C1F0
0F80F8
0F80F8
0F80F8
0F80F8
1F00F0
1F01F0
1F03E0
3F0F80
FFFE00
000000
006000
00F000
00F000
006000
ENDCHAR
STARTCHAR uni1E05
ENCODING 7685
SWIDTH 500 0
DWIDTH 16 0
BBX 14 28 1 -5
BITMAP
0F00
3F00
0F00
0E00
0E00
1E00
1E00
1C00
3DE0
3FF8
3E78
3C3C
783C
783C
783C
783C
F078
F078
F0F0
F0E0
F1C0
FF80
7E00
0000
0600
0F00
0F00
0600
ENDCHAR
STARTCHAR uni1E06
ENCODING 7686
SWIDTH 667 0
DWIDTH 21 0
BBX 22 26 -1 -3
BITMAP
07FFE0
01F1F8
01F07C
01F03C
01F03C
01F03C
03E03C
03E07C
03E0F8
03E1F0
07FF80
07FFC0
07C3F0
07C1F0
0F80F8
0F80F8
0F80F8
0F80F8
1F00F0
1F01F0
1F03E0
3F0F80
FFFE00
000000
07FF00
07FF00
ENDCHAR
STARTCHAR uni1E07
ENCODING 7687
SWIDTH 500 0
DWIDTH 16 0
BBX 14 26 1 -3
BITMAP
0F00
3F00
0F00
0E00
0E00
1E00
1E00
1C00
3DE0
3FF8
3E78
3C3C
783C
783C
783C
783C
F078
F078
F0F0
F0E0
F1C0
FF80
7E00
0000
FFE0
FFE0
ENDCHAR
STARTCHAR uni1E08
ENCODING 7688
SWIDTH 667 0
DWIDTH 21 0
BBX 21 37 1 -7
BITMAP
000700
000F00
001F00
003C00
007000
006000
000000
003FC8
00FFF8
03E078
07C030
0F8030
1F0030
3F0020
3E0020
7E0000
7C0000
7C0000
F80000
F80000
F80000
F80000
F80000
F80000
F80000
7C0040
7C0180
3F0700
0FFC00
03F000
018000
030000
07C000
00E000
086000
0C6000
07C000
ENDCHAR
STARTCHAR uni1E09
ENCODING 7689
SWIDTH 444 0
DWIDTH 14 0
BBX 13 29 1 -7
BITMAP
0070
00F0
01F0
03C0
0700
0600
0000
01F0
07F8
0E78
1C78
3C30
7800
7800
F000
F000
F000
F020
F060
78C0
7F80
1E00
0800
1800
3E00
0700
4300
6300
3E00
ENDCHAR
STARTCHAR uni1E0A
ENCODING 7690
SWIDTH 722 0
DWIDTH 23 0
BBX 24 28 -1 0
BITMAP
000C00
001E00
001E00
000C00
000000
0FFFC0
03F0F0
01F078
01F03C
03E03E
03E01E
03E01F
07E01F
07C01F
07C01F
07C01F
0FC01F
0F801F
0F803E
0F803E
1F807C
1F007C
1F00F8
1F00F0
3F01E0
3E07C0
7F1F00
FFFC00
ENDCHAR
STARTCHAR uni1E0B
ENCODING 7691
SWIDTH 500 0
DWIDTH 16 0
BBX 17 28 0 0
BITMAP
000C00
001E00
001E00
000C00
000000
000380
001F80
000780
000780
000700
000F00
000F00
000F00
03DE00
0FFE00
1F3E00
3C1E00
7C1E00
783C00
F83C00
F03C00
F03800
F07800
F07800
F0F600
7FFC00
7F7800
1E3000
ENDCHAR
STARTCHAR uni1E0C
ENCODING 7692
SWIDTH 722 0
DWIDTH 23 0
BBX 24 28 -1 -5
BITMAP
0FFFC0
03F0F0
01F078
01F03C
03E03E
03E01E
03E01F
07E01F
07C01F
07C01F
07C01F
0FC01F
0F801F
0F803E
0F803E
1F807C
1F007C
1F00F8
1F00F0
3F01E0
3E07C0
7F1F00
FFFC00
000000
006000
00F000
00F000
006000
ENDCHAR
STARTCHAR uni1E0D
ENCODING 7693
SWIDTH 500 0
DWIDTH 16 0
BBX 17 28 0 -5
BITMAP
000380
001F80
000780
000780
000700
000F00
000F00
000F00
03DE00
0FFE00
1F3E00
3C1E00
7C1E00
783C00
F83C00
F03C00
F03800
F07800
F07800
F0F600
7FFC00
7F7800
1E3000
000000
018000
03C000
03C000
018000
ENDCHAR
STARTCHAR uni1E0E
ENCODING 7694
SWIDTH 722 0
DWIDTH 23 0
BBX 24 26 -1 -3
BITMAP
0FFFC0
03F0F0
01F078
01F03C
03E03E
03E01E
03E01F
07E01F
07C01F
07C01F
07C01F
0FC01F
0F801F
0F803E
0F803E
1F807C
1F007C
1F00F8
1F00F0
3F01E0
3E07C0
7F1F00
FFFC00
000000
07FF00
07FF00
ENDCHAR
STARTCHAR uni1E0F
ENCODING 7695
SWIDTH 500 0
DWIDTH 16 0
BBX 17 26 0 -3
BITMAP
000380
001F80
000780
000780
000700
000F00
000F00
000F00
03DE00
0FFE00
1F3E00
3C1E00
7C1E00
783C00
F83C00
F03C00
F03800
F07800
F07800
F0F600
7FFC00
7F7800
1E3000
000000
3FF800
3FF800
ENDCHAR
STARTCHAR uni1E10
ENCODING 7696
SWIDTH 722 0
DWIDTH 23 0
BBX 24 30 -1 -7
BITMAP
0FFFC0
03F0F0
01F078
01F03C
03E03E
03E01E
03E01F
07E01F
07C01F
07C01F
07C01F
0FC01F
0F801F
0F803E
0F803E
1F807C
1F007C
1F00F8
1F00F0
3F01E0
3E07C0
7F1F00
FFFC00
002000
006000
00F800
001C00
010C00
018C00
00F800
ENDCHAR
STARTCHAR uni1E11
ENCODING 7697
SWIDTH 500 0
DWIDTH 16 0
BBX 17 30 0 -7
BITMAP
000380
001F80
000780
000780
000700
000F00
000F00
000F00
03DE00
0FFE00
1F3E00
3C1E00
7C1E00
783C00
F83C00
F03C00
F03800
F07800
F07800
F0F600
7FFC00
7F7800
1E3000
010000
030000
07C000
00E000
086000
0C6000
07C000
ENDCHAR
STARTCHAR uni1E12
ENCODING 7698
SWIDTH 722 0
DWIDTH 23 0
BBX 24 30 -1 -7
BITMAP
0FFFC0
03F0F0
01F078
01F03C
03E03E
03E01E
03E01F
07E01F
07C01F
07C01F
07C01F
0FC01F
0F801F
0F803E
0F803E
1F807C
1F007C
1F00F8
1F00F0
3F01E0
3E07C0
7F1F00
FFFC00
000000
007000
00F800
01F800
039C00
070C00
060600
ENDCHAR
STARTCHAR uni1E13
ENCODING 7699
SWIDTH 500 0
DWIDTH 16 0
BBX 17 30 0 -7
BITMAP
000380
001F80
000780
000780
000700
000F00
000F00
000F00
03DE00
0FFE00
1F3E00
3C1E00
7C1E00
783C00
F83C00
F03C00
F03800
F07800
F07800
F0F600
7FFC00
7F7800
1E3000
000000
038000
07C000
0FC000
1CE000
386000
303000
ENDCHAR
STARTCHAR uni1E14
ENCODING 7700
SWIDTH 667 0
DWIDTH 22 0
BBX 22 33 -1 0
BITMAP
01C000
01E000
01F000
007800
001C00
000C00
000000
01FFC0
01FFC0
000000
07FFFC
01F83C
01F01C
01F018
01F018
03E018
03E010
03E080
03E080
07E180
07C780
07FF80
07C700
0F8300
0F8300
0F8200
0F8000
1F0010
1F0030
1F0070
3F00E0
3F03E0
FFFFE0
ENDCHAR
STARTCHAR uni1E15
ENCODING 7701
SWIDTH 444 0
DWIDTH 14 0
BBX 13 25 1 0
BITMAP
3800
3C00
3E00
0F00
0380
0180
0000
3FF8
3FF8
0000
03E0
0FF0
1E70
3C70
38F0
78E0
71C0
F780
FC00
F000
F020
F060
78C0
7F80
1E00
ENDCHAR
STARTCHAR uni1E16
ENCODING 7702
SWIDTH 667 0
DWIDTH 22 0
BBX 22 33 -1 0
BITMAP
000380
000780
000F80
001E00
003800
003000
000000
01FFC0
01FFC0
000000
07FFFC
01F83C
01F01C
01F018
01F018
03E018
03E010
03E080
03E080
07E180
07C780
07FF80
07C700
0F8300
0F8300
0F8200
0F8000
1F0010
1F0030
1F0070
3F00E0
3F03E0
FFFFE0
ENDCHAR
STARTCHAR uni1E17
ENCODING 7703
SWIDTH 444 0
DWIDTH 14 0
BBX 13 25 1 0
BITMAP
0070
00F0
01F0
03C0
0700
0600
0000
3FF8
3FF8
0000
03E0
0FF0
1E70
3C70
38F0
78E0
71C0
F780
FC00
F000
F020
F060
78C0
7F80
1E00
ENDCHAR
STARTCHAR uni1E18
ENCODING 7704
SWIDTH 667 0
DWIDTH 22 0
BBX 22 30 -1 -7
BITMAP
07FFFC
01F83C
01F01C
01F018
01F018
03E018
03E010
03E080
03E080
07E180
07C780
07FF80
07C700
0F8300
0F8300
0F8200
0F8000
1F0010
1F0030
1F0070
3F00E0
3F03E0
FFFFE0
000000
007000
00F800
01F800
039C00
070C00
060600
ENDCHAR
STARTCHAR uni1E19
ENCODING 7705
SWIDTH 444 0
DWIDTH 14 0
BBX 12 22 1 -7
BITMAP
03E0
0FF0
1E70
3C70
38F0
78E0
71C0
F780
FC00
F000
F020
F060
78C0
7F80
1E00
0000
0E00
1F00
3F00
7380
E180
C0C0
ENDCHAR
STARTCHAR uni1E1A
ENCODING 7706
SWIDTH 667 0
DWIDTH 22 0
BBX 22 28 -1 -5
BITMAP
07FFFC
01F83C
01F01C
01F018
01F018
03E018
03E010
03E080
03E080
07E180
07C780
07FF80
07C700
0F8300
0F8300
0F8200
0F8000
1F0010
1F0030
1F0070
3F00E0
3F03E0
FFFFE0
000000
03C300
07E700
0E7E00
0C3C00
ENDCHAR
STARTCHAR uni1E1B
ENCODING 7707
SWIDTH 444 0
DWIDTH 14 0
BBX 13 20 0 -5
BITMAP
01F0
07F8
0F38
1E38
1C78
3C70
38E0
7BC0
7E00
7800
7810
7830
3C60
3FC0
0F00
0000
3C30
7E70
E7E0
C3C0
ENDCHAR
STARTCHAR uni1E1C
ENCODING 7708
SWIDTH 667 0
DWIDTH 22 0
BBX 22 36 -1 -7
BITMAP
018180
018180
01C380
00FF00
003C00
000000
07FFFC
01F83C
01F01C
01F018
01F018
03E018
03E010
03E080
03E080
07E180
07C780
07FF80
07C700
0F8300
0F8300
0F8200
0F8000
1F0010
1F0030
1F0070
3F00E0
3F03E0
FFFFE0
002000
006000
00F800
001C00
010C00
018C00
00F800
ENDCHAR
STARTCHAR uni1E1D
ENCODING 7709
SWIDTH 444 0
DWIDTH 14 0
BBX 12 28 1 -7
BITMAP
3030
3030
3870
1FE0
0780
0000
03E0
0FF0
1E70
3C70
38F0
78E0
71C0
F780
FC00
F000
F020
F060
78C0
7F80
1E00
0400
0C00
1F00
0380
2180
3180
1F00
ENDCHAR
STARTCHAR uni1E1E
ENCODING 7710
SWIDTH 667 0
DWIDTH 22 0
BBX 22 28 0 0
BITMAP
001800
003C00
003C00
001800
000000
07FFFC
01F83C
01F01C
01F018
01F018
03F018
03E010
03E080
03E080
07E180
07C780
07FF80
07C700
0F8300
0F8300
0F8200
0F8000
1F0000
1F0000
1F0000
3F0000
3F0000
FFC000
ENDCHAR
STARTCHAR uni1E1F
ENCODING 7711
SWIDTH 333 0
DWIDTH 11 0
BBX 20 35 -5 -7
BITMAP
000C00
001E00
001E00
000C00
000000
0003E0
000770
000E70
000E60
001E00
001C00
003C00
003C00
003C00
01FF80
007C00
007800
007800
007800
00F800
00F000
00F000
00F000
00F000
01E000
01E000
01E000
03C000
03C000
038000
078000
670000
E70000
EE0000
7C0000
ENDCHAR
STARTCHAR uni1E20
ENCODING 7712
SWIDTH 722 0
DWIDTH 24 0
BBX 23 26 1 0
BITMAP
01FFC0
01FFC0
000000
003FE4
00FCFC
03F03C
07C01C
0F8018
1F0008
3F0008
3E0000
7E0000
7C0000
7C0000
F80000
F803FE
F800F8
F800F8
F800F0
F801F0
7C01F0
7C01E0
3E03E0
3F07C0
0FFFC0
03FF00
ENDCHAR
STARTCHAR uni1E21
ENCODING 7713
SWIDTH 500 0
DWIDTH 16 0
BBX 18 25 -1 -7
BITMAP
0FFE00
0FFE00
000000
01F800
07FFC0
0F8FC0
0F0700
1F0700
1E0700
1E0E00
1F3E00
0FFC00
07E000
0E0000
1C0000
1F8000
1FF000
0FF800
1FF800
707C00
E01C00
E01C00
F03C00
787800
1FE000
ENDCHAR
STARTCHAR uni1E22
ENCODING 7714
SWIDTH 778 0
DWIDTH 25 0
BBX 27 28 -1 0
BITMAP
00030000
00078000
00078000
00030000
00000000
07FE7FE0
01F81F80
01F01F00
01F01F00
01F01F00
01E01E00
01E01E00
03E03E00
03E03E00
03C03C00
03FFFC00
03FFFC00
07C07C00
07807800
07807800
0F80F800
0F80F800
0F80F800
0F00F000
1F01F000
1F01F000
3F03F000
FFC7FC00
ENDCHAR
STARTCHAR uni1E23
ENCODING 7715
SWIDTH 556 0
DWIDTH 18 0
BBX 16 28 1 0
BITMAP
0300
0780
0780
0300
0000
0380
3F80
1F80
0780
0F00
0F00
0F00
1F00
1E3C
1E7E
1EDE
3F1E
3E1E
3E3C
3C3C
7C3C
7878
7878
7879
F0F3
F0F6
F0FC
F078
ENDCHAR
STARTCHAR uni1E24
ENCODING 7716
SWIDTH 778 0
DWIDTH 25 0
BBX 27 28 -1 -5
BITMAP
07FE7FE0
01F81F80
01F01F00
01F01F00
01F01F00
01E01E00
01E01E00
03E03E00
03E03E00
03C03C00
03FFFC00
03FFFC00
07C07C00
07807800
07807800
0F80F800
0F80F800
0F80F800
0F00F000
1F01F000
1F01F000
3F03F000
FFC7FC00
00000000
00180000
003C0000
003C0000
00180000
ENDCHAR
STARTCHAR uni1E25
ENCODING 7717
SWIDTH 556 0
DWIDTH 18 0
BBX 16 28 1 -5
BITMAP
0380
3F80
1F80
0780
0F00
0F00
0F00
1F00
1E3C
1E7E
1EDE
3F1E
3E1E
3E3C
3C3C
7C3C
7878
7878
7879
F0F3
F0F6
F0FC
F078
0000
0180
03C0
03C0
0180
ENDCHAR
STARTCHAR uni1E26
ENCODING 7718
SWIDTH 778 0
DWIDTH 25 0
BBX 27 28 -1 0
BITMAP
00306000
0078F000
0078F000
00306000
00000000
07FE7FE0
01F81F80
01F01F00
01F01F00
01F01F00
01E01E00
01E01E00
03E03E00
03E03E00
03C03C00
03FFFC00
03FFFC00
07C07C00
07807800
07807800
0F80F800
0F80F800
0F80F800
0F00F000
1F01F000
1F01F000
3F03F000
FFC7FC00
ENDCHAR
STARTCHAR uni1E27
ENCODING 7719
SWIDTH 556 0
DWIDTH 18 0
BBX 16 28 1 0
BITMAP
3060
78F0
78F0
3060
0000
0380
3F80
1F80
0780
0F00
0F00
0F00
1F00
1E3C
1E7E
1EDE
3F1E
3E1E
3E3C
3C3C
7C3C
7878
7878
7879
F0F3
F0F6
F0FC
F078
ENDCHAR
STARTCHAR uni1E28
ENCODING 7720
SWIDTH 778 0
DWIDTH 25 0
BBX 27 30 -1 -7
BITMAP
07FE7FE0
01F81F80
01F01F00
01F01F00
01F01F00
01E01E00
01E01E00
03E03E00
03E03E00
03C03C00
03FFFC00
03FFFC00
07C07C00
07807800
07807800
0F80F800
0F80F800
0F80F800
0F00F000
1F01F000
1F01F000
3F03F000
FFC7FC00
00080000
00180000
003E0000
00070000
00430000
00630000
003E0000
ENDCHAR
STARTCHAR uni1E29
ENCODING 7721
SWIDTH 556 0
DWIDTH 18 0
BBX 16 30 1 -7
BITMAP
0380
3F80
1F80
0780
0F00
0F00
0F00
1F00
1E3C
1E7E
1EDE
3F1E
3E1E
3E3C
3C3C
7C3C
7878
7878
7879
F0F3
F0F6
F0FC
F078
0100
0300
07C0
00E0
0860
0C60
07C0
ENDCHAR
STARTCHAR uni1E2A
ENCODING 7722
SWIDTH 778 0
DWIDTH 25 0
BBX 27 29 -1 -6
BITMAP
07FE7FE0
01F81F80
01F01F00
01F01F00
01F01F00
01E01E00
01E01E00
03E03E00
03E03E00
03C03C00
03FFFC00
03FFFC00
07C07C00
07807800
07807800
0F80F800
0F80F800
0F80F800
0F00F000
1F01F000
1F01F000
3F03F000
FFC7FC00
00000000
01818000
01818000
01C38000
00FF0000
003C0000
ENDCHAR
STARTCHAR uni1E2B
ENCODING 7723
SWIDTH 556 0
DWIDTH 18 0
BBX 16 29 1 -6
BITMAP
0380
3F80
1F80
0780
0F00
0F00
0F00
1F00
1E3C
1E7E
1EDE
3F1E
3E1E
3E3C
3C3C
7C3C
7878
7878
7879
F0F3
F0F6
F0FC
F078
0000
1818
1818
1C38
0FF0
03C0
ENDCHAR
STARTCHAR uni1E2C
ENCODING 7724
SWIDTH 389 0
DWIDTH 13 0
BBX 15 28 -1 -5
BITMAP
07FE
01F8
01F8
01F0
01F0
01F0
03E0
03E0
03E0
03E0
07C0
07C0
07C0
07C0
0F80
0F80
0F80
0F80
1F00
1F00
1F00
3F00
FFC0
0000
3C30
7E70
E7E0
C3C0
ENDCHAR
STARTCHAR uni1E2D
ENCODING 7725
SWIDTH 278 0
DWIDTH 9 0
BBX 12 28 -2 -5
BITMAP
00C0
01E0
01E0
01E0
00C0
0000
0000
0000
03C0
1FC0
0780
0780
0780
0F00
0F00
0F00
0F00
1E00
1E40
1EC0
1F80
1F00
0E00
0000
3C30
7E70
E7E0
C3C0
ENDCHAR
STARTCHAR uni1E2E
ENCODING 7726
SWIDTH 389 0
DWIDTH 13 0
BBX 16 36 -1 0
BITMAP
000E
001E
003E
0078
00E0
00C0
0000
0306
078F
078F
0306
0000
0000
07FE
01F8
01F8
01F0
01F0
01F0
03E0
03E0
03E0
03E0
07C0
07C0
07C0
07C0
0F80
0F80
0F80
0F80
1F00
1F00
1F00
3F00
FFC0
ENDCHAR
STARTCHAR uni1E2F
ENCODING 7727
SWIDTH 278 0
DWIDTH 9 0
BBX 10 28 1 0
BITMAP
01C0
03C0
07C0
0F00
1C00
1800
0000
6180
F3C0
F3C0
6180
0000
0000
1E00
FE00
3C00
3C00
3C00
7800
7800
7800
7800
F000
F200
F600
FC00
F800
7000
ENDCHAR
STARTCHAR uni1E30
ENCODING 7728
SWIDTH 667 0
DWIDTH 22 0
BBX 24 30 -1 0
BITMAP
0001C0
0003C0
0007C0
000F00
001C00
001800
000000
07FE7F
01F81C
01F018
01F030
01E060
03E0C0
03E180
03C300
03C600
07DC00
07FC00
07FE00
07DE00
0F9F00
0F9F00
0F9F80
0F0F80
1F0FC0
1F07C0
1E07E0
3E03E0
3F03F0
FFCFF8
ENDCHAR
STARTCHAR uni1E31
ENCODING 7729
SWIDTH 500 0
DWIDTH 16 0
BBX 16 30 1 0
BITMAP
0070
00F0
01F0
03C0
0700
0600
0000
0380
1F80
0F80
0780
0700
0F00
0F00
0F00
0E3F
0E1C
1E38
1E30
1E60
1CC0
3D80
3F80
3FC0
3BC0
79E0
79E2
70F6
F0FC
F078
ENDCHAR
STARTCHAR uni1E32
ENCODING 7730
SWIDTH 667 0
DWIDTH 22 0
BBX 24 28 -1 -5
BITMAP
07FE7F
01F81C
01F018
01F030
01E060
03E0C0
03E180
03C300
03C600
07DC00
07FC00
07FE00
07DE00
0F9F00
0F9F00
0F9F80
0F0F80
1F0FC0
1F07C0
1E07E0
3E03E0
3F03F0
FFCFF8
000000
003000
007800
007800
003000
ENDCHAR
STARTCHAR uni1E33
ENCODING 7731
SWIDTH 500 0
DWIDTH 16 0
BBX 16 28 1 -5
BITMAP
0380
1F80
0F80
0780
0700
0F00
0F00
0F00
0E3F
0E1C
1E38
1E30
1E60
1CC0
3D80
3F80
3FC0
3BC0
79E0
79E2
70F6
F0FC
F078
0000
0300
0780
0780
0300
ENDCHAR
STARTCHAR uni1E34
ENCODING 7732
SWIDTH 667 0
DWIDTH 22 0
BBX 24 26 -1 -3
BITMAP
07FE7F
01F81C
01F018
01F030
01E060
03E0C0
03E180
03C300
03C600
07DC00
07FC00
07FE00
07DE00
0F9F00
0F9F00
0F9F80
0F0F80
1F0FC0
1F07C0
1E07E0
3E03E0
3F03F0
FFCFF8
000000
03FF80
03FF80
ENDCHAR
STARTCHAR uni1E35
ENCODING 7733
SWIDTH 500 0
DWIDTH 16 0
BBX 16 26 1 -3
BITMAP
0380
1F80
0F80
0780
0700
0F00
0F00
0F00
0E3F
0E1C
1E38
1E30
1E60
1CC0
3D80
3F80
3FC0
3BC0
79E0
79E2
70F6
F0FC
F078
0000
3FF8
3FF8
ENDCHAR
STARTCHAR uni1E36
ENCODING 7734
SWIDTH 611 0
DWIDTH 20 0
BBX 20 28 -1 -5
BITMAP
07FE00
01F800
01F000
01F000
01F000
03E000
03E000
03E000
03E000
07E000
07C000
07C000
07C000
0F8000
0F8000
0F8000
0F8000
1F0010
1F0030
1F0070
3F00E0
3F03E0
FFFFE0
000000
006000
00F000
00F000
006000
ENDCHAR
STARTCHAR uni1E37
ENCODING 7735
SWIDTH 278 0
DWIDTH 9 0
BBX 9 28 1 -5
BITMAP
0380
3F80
1F80
0780
0F00
0F00
0F00
1E00
1E00
1E00
1E00
3C00
3C00
3C00
7C00
7800
7800
7800
F200
F600
FC00
F800
7000
0000
3000
7800
7800
3000
ENDCHAR
STARTCHAR uni1E38
ENCODING 7736
SWIDTH 611 0
DWIDTH 20 0
BBX 20 31 -1 -5
BITMAP
0FFE00
0FFE00
000000
07FE00
01F800
01F000
01F000
01F000
03E000
03E000
03E000
03E000
07E000
07C000
07C000
07C000
0F8000
0F8000
0F8000
0F8000
1F0010
1F0030
1F0070
3F00E0
3F03E0
FFFFE0
000000
006000
00F000
00F000
006000
ENDCHAR
STARTCHAR uni1E39
ENCODING 7737
SWIDTH 278 0
DWIDTH 9 0
BBX 11 31 1 -5
BITMAP
FFE0
FFE0
0000
0380
3F80
1F80
0780
0F00
0F00
0F00
1E00
1E00
1E00
1E00
3C00
3C00
3C00
7C00
7800
7800
7800
F200
F600
FC00
F800
7000
0000
3000
7800
7800
3000
ENDCHAR
STARTCHAR uni1E3A
ENCODING 7738
SWIDTH 611 0
DWIDTH 20 0
BBX 20 26 -1 -3
BITMAP
07FE00
01F800
01F000
01F000
01F000
03E000
03E000
03E000
03E000
07E000
07C000
07C000
07C000
0F8000
0F8000
0F8000
0F8000
1F0010
1F0030
1F0070
3F00E0
3F03E0
FFFFE0
000000
0FFE00
0FFE00
ENDCHAR
STARTCHAR uni1E3B
ENCODING 7739
SWIDTH 278 0
DWIDTH 9 0
BBX 11 26 -1 -3
BITMAP
00E0
0FE0
07E0
01E0
03C0
03C0
03C0
0780
0780
0780
0780
0F00
0F00
0F00
1F00
1E00
1E00
1E00
3C80
3D80
3F00
3E00
1C00
0000
FFE0
FFE0
ENDCHAR
STARTCHAR uni1E3C
ENCODING 7740
SWIDTH 611 0
DWIDTH 20 0
BBX 20 30 -1 -7
BITMAP
07FE00
01F800
01F000
01F000
01F000
03E000
03E000
03E000
03E000
07E000
07C000
07C000
07C000
0F8000
0F8000
0F8000
0F8000
1F0010
1F0030
1F0070
3F00E0
3F03E0
FFFFE0
000000
00E000
01F000
03F000
073800
0E1800
0C0C00
ENDCHAR
STARTCHAR uni1E3D
ENCODING 7741
SWIDTH 278 0
DWIDTH 9 0
BBX 11 30 -1 -7
BITMAP
00E0
0FE0
07E0
01E0
03C0
03C0
03C0
0780
0780
0780
0780
0F00
0F00
0F00
1F00
1E00
1E00
1E00
3C80
3D80
3F00
3E00
1C00
0000
0E00
1F00
3F00
7380
E180
C0C0
ENDCHAR
STARTCHAR uni1E3E
ENCODING 7742
SWIDTH 889 0
DWIDTH 29 0
BBX 31 30 -1 0
BITMAP
00001C00
00003C00
00007C00
0000F000
0001C000
00018000
00000000
07F001FE
01F001FC
01F003F8
01F003F8
01F807F0
03F80DF0
03F80DF0
03781BF0
02781BE0
067833E0
067867C0
067867C0
0C78C7C0
0C7D87C0
0C7D8F80
0C7F0F80
187F0F80
183E0F80
183C1F00
383C1F00
30381F00
78303F00
FE30FFC0
ENDCHAR
STARTCHAR uni1E3F
ENCODING 7743
SWIDTH 778 0
DWIDTH 25 0
BBX 23 22 1 0
BITMAP
000380
000780
000F80
001E00
003800
003000
000000
1C7C7C
FDFDFE
3FBFBE
3F1F1E
3E1E1E
3C3C3C
3C3C3C
3C3C3C
787878
787878
787878
F0F0F2
F0F0F6
F0F0FC
F0F078
ENDCHAR
STARTCHAR uni1E40
ENCODING 7744
SWIDTH 889 0
DWIDTH 29 0
BBX 31 28 -1 0
BITMAP
0000C000
0001E000
0001E000
0000C000
00000000
07F001FE
01F001FC
01F003F8
01F003F8
01F807F0
03F80DF0
03F80DF0
03781BF0
02781BE0
067833E0
067867C0
067867C0
0C78C7C0
0C7D87C0
0C7D8F80
0C7F0F80
187F0F80
183E0F80
183C1F00
383C1F00
30381F00
78303F00
FE30FFC0
ENDCHAR
STARTCHAR uni1E41
ENCODING 7745
SWIDTH 778 0
DWIDTH 25 0
BBX 23 20 1 0
BITMAP
001800
003C00
003C00
001800
000000
1C7C7C
FDFDFE
3FBFBE
3F1F1E
3E1E1E
3C3C3C
3C3C3C
3C3C3C
787878
787878
787878
F0F0F2
F0F0F6
F0F0FC
F0F078
ENDCHAR
STARTCHAR uni1E42
ENCODING 7746
SWIDTH 889 0
DWIDTH 29 0
BBX 31 28 -1 -5
BITMAP
07F001FE
01F001FC
01F003F8
01F003F8
01F807F0
03F80DF0
03F80DF0
03781BF0
02781BE0
067833E0
067867C0
067867C0
0C78C7C0
0C7D87C0
0C7D8F80
0C7F0F80
187F0F80
183E0F80
183C1F00
383C1F00
30381F00
78303F00
FE30FFC0
00000000
00030000
00078000
00078000
00030000
ENDCHAR
STARTCHAR uni1E43
ENCODING 7747
SWIDTH 778 0
DWIDTH 25 0
BBX 23 20 1 -5
BITMAP
1C7C7C
FDFDFE
3FBFBE
3F1F1E
3E1E1E
3C3C3C
3C3C3C
3C3C3C
787878
787878
787878
F0F0F2
F0F0F6
F0F0FC
F0F078
000000
003000
007800
007800
003000
ENDCHAR
STARTCHAR uni1E44
ENCODING 7748
SWIDTH 722 0
DWIDTH 24 0
BBX 26 28 -1 0
BITMAP
00060000
000F0000
000F0000
00060000
00000000
07E01FC0
03F00F80
01F00700
01F80700
01F80600
037C0600
037C0600
033E0C00
023E0C00
063F0C00
061F0C00
061F1800
0C0F9800
0C0F9800
0C07D000
0C07F000
1803F000
1803F000
1803F000
3801E000
3801E000
7C00E000
FE00E000
ENDCHAR
STARTCHAR uni1E45
ENCODING 7749
SWIDTH 556 0
DWIDTH 18 0
BBX 15 20 1 0
BITMAP
0180
03C0
03C0
0180
0000
1E3C
FE7E
1CFE
3D9E
3E1E
3C3C
3C3C
3C3C
7878
7878
7878
F0F2
F0F6
F0FC
F078
ENDCHAR
STARTCHAR uni1E46
ENCODING 7750
SWIDTH 722 0
DWIDTH 24 0
BBX 26 28 -1 -5
BITMAP
07E01FC0
03F00F80
01F00700
01F80700
01F80600
037C0600
037C0600
033E0C00
023E0C00
063F0C00
061F0C00
061F1800
0C0F9800
0C0F9800
0C07D000
0C07F000
1803F000
1803F000
1803F000
3801E000
3801E000
7C00E000
FE00E000
00000000
00180000
003C0000
003C0000
00180000
ENDCHAR
STARTCHAR uni1E47
ENCODING 7751
SWIDTH 556 0
DWIDTH 18 0
BBX 15 20 1 -5
BITMAP
1E3C
FE7E
1CFE
3D9E
3E1E
3C3C
3C3C
3C3C
7878
7878
7878
F0F2
F0F6
F0FC
F078
0000
0300
0780
0780
0300
ENDCHAR
STARTCHAR uni1E48
ENCODING 7752
SWIDTH 722 0
DWIDTH 24 0
BBX 26 26 -1 -3
BITMAP
07E01FC0
03F00F80
01F00700
01F80700
01F80600
037C0600
037C0600
033E0C00
023E0C00
063F0C00
061F0C00
061F1800
0C0F9800
0C0F9800
0C07D000
0C07F000
1803F000
1803F000
1803F000
3801E000
3801E000
7C00E000
FE00E000
00000000
03FF8000
03FF8000
ENDCHAR
STARTCHAR uni1E49
ENCODING 7753
SWIDTH 556 0
DWIDTH 18 0
BBX 15 18 1 -3
BITMAP
1E3C
FE7E
1CFE
3D9E
3E1E
3C3C
3C3C
3C3C
7878
7878
7878
F0F2
F0F6
F0FC
F078
0000
3FF8
3FF8
ENDCHAR
STARTCHAR uni1E4A
ENCODING 7754
SWIDTH 722 0
DWIDTH 24 0
BBX 26 30 -1 -7
BITMAP
07E01FC0
03F00F80
01F00700
01F80700
01F80600
037C0600
037C0600
033E0C00
023E0C00
063F0C00
061F0C00
061F1800
0C0F9800
0C0F9800
0C07D000
0C07F000
1803F000
1803F000
1803F000
3801E000
3801E000
7C00E000
FE00E000
00000000
00380000
007C0000
00FC0000
01CE0000
03860000
03030000
ENDCHAR
STARTCHAR uni1E4B
ENCODING 7755
SWIDTH 556 0
DWIDTH 18 0
BBX 15 22 1 -7
BITMAP
1E3C
FE7E
1CFE
3D9E
3E1E
3C3C
3C3C
3C3C
7878
7878
7878
F0F2
F0F6
F0FC
F078
0000
0380
07C0
0FC0
1CE0
3860
3030
ENDCHAR
STARTCHAR uni1E4C
ENCODING 7756
SWIDTH 722 0
DWIDTH 23 0
BBX 22 36 1 0
BITMAP
0000E0
0001E0
0003E0
000780
000E00
000C00
000000
000F8C
001FDC
003BF8
0031F0
000000
000000
001F80
00FFE0
01E0F0
03C078
078078
0F007C
1F007C
3E007C
3E007C
3E007C
7C00FC
7C00F8
FC00F8
F801F0
F801F0
F801F0
F803E0
F803C0
780780
780F00
3C1E00
1FFC00
07E000
ENDCHAR
STARTCHAR uni1E4D
ENCODING 7757
SWIDTH 500 0
DWIDTH 16 0
BBX 17 28 1 0
BITMAP
000E00
001E00
003E00
007800
00E000
00C000
000000
01E180
03F380
073F00
061E00
000000
000000
01F000
073C00
1E1C00
1C1E00
3C1E00
7C1E00
783E00
F83E00
F83C00
F07C00
F07800
F07000
70F000
79E000
1F8000
ENDCHAR
STARTCHAR uni1E4E
ENCODING 7758
SWIDTH 722 0
DWIDTH 23 0
BBX 22 34 1 0
BITMAP
0060C0
00F1E0
00F1E0
0060C0
000000
000F8C
001FDC
003BF8
0031F0
000000
000000
001F80
00FFE0
01E0F0
03C078
078078
0F007C
1F007C
3E007C
3E007C
3E007C
7C00FC
7C00F8
FC00F8
F801F0
F801F0
F801F0
F803E0
F803C0
780780
780F00
3C1E00
1FFC00
07E000
ENDCHAR
STARTCHAR uni1E4F
ENCODING 7759
SWIDTH 500 0
DWIDTH 16 0
BBX 17 26 1 0
BITMAP
030600
078F00
078F00
030600
000000
01E180
03F380
073F00
061E00
000000
000000
01F000
073C00
1E1C00
1C1E00
3C1E00
7C1E00
783E00
F83E00
F83C00
F07C00
F07800
F07000
70F000
79E000
1F8000
ENDCHAR
STARTCHAR uni1E50
ENCODING 7760
SWIDTH 722 0
DWIDTH 23 0
BBX 22 33 1 0
BITMAP
01C000
01E000
01F000
007800
001C00
000C00
000000
01FFC0
01FFC0
000000
001F80
00FFE0
01E0F0
03C078
078078
0F007C
1F007C
3E007C
3E007C
3E007C
7C00FC
7C00F8
FC00F8
F801F0
F801F0
F801F0
F803E0
F803C0
780780
780F00
3C1E00
1FFC00
07E000
ENDCHAR
STARTCHAR uni1E51
ENCODING 7761
SWIDTH 500 0
DWIDTH 16 0
BBX 15 25 1 0
BITMAP
1C00
1E00
1F00
0780
01C0
00C0
0000
1FFC
1FFC
0000
01F0
073C
1E1C
1C1E
3C1E
7C1E
783E
F83E
F83C
F07C
F078
F070
70F0
79E0
1F80
ENDCHAR
STARTCHAR uni1E52
ENCODING 7762
SWIDTH 722 0
DWIDTH 23 0
BBX 22 33 1 0
BITMAP
000380
000780
000F80
001E00
003800
003000
000000
01FFC0
01FFC0
000000
001F80
00FFE0
01E0F0
03C078
078078
0F007C
1F007C
3E007C
3E007C
3E007C
7C00FC
7C00F8
FC00F8
F801F0
F801F0
F801F0
F803E0
F803C0
780780
780F00
3C1E00
1FFC00
07E000
ENDCHAR
STARTCHAR uni1E53
ENCODING 7763
SWIDTH 500 0
DWIDTH 16 0
BBX 15 25 1 0
BITMAP
0038
0078
00F8
01E0
0380
0300
0000
1FFC
1FFC
0000
01F0
073C
1E1C
1C1E
3C1E
7C1E
783E
F83E
F83C
F07C
F078
F070
70F0
79E0
1F80
ENDCHAR
STARTCHAR uni1E54
ENCODING 7764
SWIDTH 611 0
DWIDTH 20 0
BBX 21 30 -1 0
BITMAP
000380
000780
000F80
001E00
003800
003000
000000
07FFC0
01FFF0
01F1F8
01F0F8
03E0F8
03E0F8
03E0F8
03E1F0
07C1F0
07C3E0
07CFC0
07FF00
0F8000
0F8000
0F8000
0F8000
0F8000
0F0000
1F0000
1F0000
1F0000
3F8000
FFC000
ENDCHAR
STARTCHAR uni1E55
ENCODING 7765
SWIDTH 500 0
DWIDTH 16 0
BBX 19 29 -3 -7
BITMAP
000700
000F00
001F00
003C00
007000
006000
000000
01E780
0FEFC0
03EBE0
03F1E0
03E1E0
03C1E0
03C3E0
03C3E0
0783C0
0787C0
078780
078700
0F0E00
0FBC00
0FF000
0F0000
1E0000
1E0000
1E0000
3E0000
3E0000
FF8000
ENDCHAR
STARTCHAR uni1E56
ENCODING 7766
SWIDTH 611 0
DWIDTH 20 0
BBX 21 28 -1 0
BITMAP
001800
003C00
003C00
001800
000000
07FFC0
01FFF0
01F1F8
01F0F8
03E0F8
03E0F8
03E0F8
03E1F0
07C1F0
07C3E0
07CFC0
07FF00
0F8000
0F8000
0F8000
0F8000
0F8000
0F0000
1F0000
1F0000
1F0000
3F8000
FFC000
ENDCHAR
STARTCHAR uni1E57
ENCODING 7767
SWIDTH 500 0
DWIDTH 16 0
BBX 19 27 -3 -7
BITMAP
003000
007800
007800
003000
000000
01E780
0FEFC0
03EBE0
03F1E0
03E1E0
03C1E0
03C3E0
03C3E0
0783C0
0787C0
078780
078700
0F0E00
0FBC00
0FF000
0F0000
1E0000
1E0000
1E0000
3E0000
3E0000
FF8000
ENDCHAR
STARTCHAR uni1E58
ENCODING 7768
SWIDTH 667 0
DWIDTH 22 0
BBX 21 28 -1 0
BITMAP
001800
003C00
003C00
001800
000000
07FFC0
01FFF0
01F1F8
01F0F8
03E0F8
03E0F8
03E0F8
03E1F0
07C1F0
07C3E0
07CFC0
07FF00
0FBE00
0FBF00
0F9F00
0F9F80
0F8F80
0F0F80
1F07C0
1F07C0
1F07E0
3F03E0
FFC3F8
ENDCHAR
STARTCHAR uni1E59
ENCODING 7769
SWIDTH 389 0
DWIDTH 13 0
BBX 14 20 0 0
BITMAP
0180
03C0
03C0
0180
0000
0F18
7F3C
1E7C
1EFC
1F98
1F00
1E00
3E00
3C00
3C00
3C00
7800
7800
7800
F800
ENDCHAR
STARTCHAR uni1E5A
ENCODING 7770
SWIDTH 667 0
DWIDTH 22 0
BBX 21 28 -1 -5
BITMAP
07FFC0
01FFF0
01F1F8
01F0F8
03E0F8
03E0F8
03E0F8
03E1F0
07C1F0
07C3E0
07CFC0
07FF00
0FBE00
0FBF00
0F9F00
0F9F80
0F8F80
0F0F80
1F07C0
1F07C0
1F07E0
3F03E0
FFC3F8
000000
003000
007800
007800
003000
ENDCHAR
STARTCHAR uni1E5B
ENCODING 7771
SWIDTH 389 0
DWIDTH 13 0
BBX 14 20 0 -5
BITMAP
0F18
7F3C
1E7C
1EFC
1F98
1F00
1E00
3E00
3C00
3C00
3C00
7800
7800
7800
F800
0000
1800
3C00
3C00
1800
ENDCHAR
STARTCHAR uni1E5C
ENCODING 7772
SWIDTH 667 0
DWIDTH 22 0
BBX 21 31 -1 -5
BITMAP
01FFC0
01FFC0
000000
07FFC0
01FFF0
01F1F8
01F0F8
03E0F8
03E0F8
03E0F8
03E1F0
07C1F0
07C3E0
07CFC0
07FF00
0FBE00
0FBF00
0F9F00
0F9F80
0F8F80
0F0F80
1F07C0
1F07C0
1F07E0
3F03E0
FFC3F8
000000
003000
007800
007800
003000
ENDCHAR
STARTCHAR uni1E5D
ENCODING 7773
SWIDTH 389 0
DWIDTH 13 0
BBX 14 23 0 -5
BITMAP
3FF8
3FF8
0000
0F18
7F3C
1E7C
1EFC
1F98
1F00
1E00
3E00
3C00
3C00
3C00
7800
7800
7800
F800
0000
1800
3C00
3C00
1800
ENDCHAR
STARTCHAR uni1E5E
ENCODING 7774
SWIDTH 667 0
DWIDTH 22 0
BBX 21 26 -1 -3
BITMAP
07FFC0
01FFF0
01F1F8
01F0F8
03E0F8
03E0F8
03E0F8
03E1F0
07C1F0
07C3E0
07CFC0
07FF00
0FBE00
0FBF00
0F9F00
0F9F80
0F8F80
0F0F80
1F07C0
1F07C0
1F07E0
3F03E0
FFC3F8
000000
07FF00
07FF00
ENDCHAR
STARTCHAR uni1E5F
ENCODING 7775
SWIDTH 389 0
DWIDTH 13 0
BBX 15 18 -1 -3
BITMAP
078C
3F9E
0F3E
0F7E
0FCC
0F80
0F00
1F00
1E00
1E00
1E00
3C00
3C00
3C00
7C00
0000
FFE0
FFE0
ENDCHAR
STARTCHAR uni1E60
ENCODING 7776
SWIDTH 556 0
DWIDTH 18 0
BBX 17 28 1 0
BITMAP
00C000
01E000
01E000
00C000
000000
03F880
0FFD80
1F0F80
1E0700
3C0300
3E0300
3E0200
3F0000
1FC000
1FE000
0FF000
07F800
03FC00
00FC00
007E00
003E00
801E00
C01E00
C01E00
E03C00
F07C00
FFF800
DFE000
ENDCHAR
STARTCHAR uni1E61
ENCODING 7777
SWIDTH 389 0
DWIDTH 13 0
BBX 11 20 1 0
BITMAP
0600
0F00
0F00
0600
0000
0FA0
1DE0
3860
3C60
3C20
3E00
1F00
1F80
0F80
07C0
87C0
C3C0
C380
F700
BE00
ENDCHAR
STARTCHAR uni1E62
ENCODING 7778
SWIDTH 556 0
DWIDTH 18 0
BBX 17 28 1 -5
BITMAP
03F880
0FFD80
1F0F80
1E0700
3C0300
3E0300
3E0200
3F0000
1FC000
1FE000
0FF000
07F800
03FC00
00FC00
007E00
003E00
801E00
C01E00
C01E00
E03C00
F07C00
FFF800
DFE000
000000
018000
03C000
03C000
018000
ENDCHAR
STARTCHAR uni1E63
ENCODING 7779
SWIDTH 389 0
DWIDTH 13 0
BBX 11 20 1 -5
BITMAP
0FA0
1DE0
3860
3C60
3C20
3E00
1F00
1F80
0F80
07C0
87C0
C3C0
C380
F700
BE00
0000
0C00
1E00
1E00
0C00
ENDCHAR
STARTCHAR uni1E64
ENCODING 7780
SWIDTH 556 0
DWIDTH 18 0
BBX 17 35 1 0
BITMAP
006000
00F000
00F000
006000
000000
001C00
003C00
007C00
00F000
01C000
018000
000000
03F880
0FFD80
1F0F80
1E0700
3C0300
3E0300
3E0200
3F0000
1FC000
1FE000
0FF000
07F800
03FC00
00FC00
007E00
003E00
801E00
C01E00
C01E00
E03C00
F07C00
FFF800
DFE000
ENDCHAR
STARTCHAR uni1E65
ENCODING 7781
SWIDTH 389 0
DWIDTH 13 0
BBX 11 27 1 0
BITMAP
0300
0780
0780
0300
0000
00E0
01E0
03E0
0780
0E00
0C00
0000
0FA0
1DE0
3860
3C60
3C20
3E00
1F00
1F80
0F80
07C0
87C0
C3C0
C380
F700
BE00
ENDCHAR
STARTCHAR uni1E66
ENCODING 7782
SWIDTH 556 0
DWIDTH 18 0
BBX 17 32 1 0
BITMAP
018000
03C000
03C000
018000
000000
181800
0C3800
0E7000
07E000
07C000
038000
000000
000000
03F880
0FFD80
1F0F80
1E0700
3C0300
3E0300
3E0200
1FC000
0FF000
03F800
007C00
003E00
801E00
C01E00
C01E00
E03C00
F07C00
FFF800
DFE000
ENDCHAR
STARTCHAR uni1E67
ENCODING 7783
SWIDTH 389 0
DWIDTH 13 0
BBX 11 28 1 0
BITMAP
0C00
1E00
1E00
0C00
0000
C0C0
61C0
7380
3F00
3E00
1C00
0000
0000
0FA0
19E0
3860
3860
3C20
3C00
1E00
1F00
0F00
0780
8780
C380
C380
F700
BE00
ENDCHAR
STARTCHAR uni1E68
ENCODING 7784
SWIDTH 556 0
DWIDTH 18 0
BBX 17 33 1 -5
BITMAP
00C000
01E000
01E000
00C000
000000
03F880
0FFD80
1F0F80
1E0700
3C0300
3E0300
3E0200
3F0000
1FC000
1FE000
0FF000
07F800
03FC00
00FC00
007E00
003E00
801E00
C01E00
C01E00
E03C00
F07C00
FFF800
DFE000
000000
018000
03C000
03C000
018000
ENDCHAR
STARTCHAR uni1E69
ENCODING 7785
SWIDTH 389 0
DWIDTH 13 0
BBX 11 25 1 -5
BITMAP
0600
0F00
0F00
0600
0000
0FA0
1DE0
3860
3C60
3C20
3E00
1F00
1F80
0F80
07C0
87C0
C3C0
C380
F700
BE00
0000
0C00
1E00
1E00
0C00
ENDCHAR
STARTCHAR uni1E6A
ENCODING 7786
SWIDTH 611 0
DWIDTH 20 0
BBX 19 28 2 0
BITMAP
006000
00F000
00F000
006000
000000
3FFFE0
3CF9E0
30F8E0
70F8C0
61F0C0
61F080
41F080
01F000
03E000
03E000
03E000
03E000
07C000
07C000
07C000
078000
0F8000
0F8000
0F8000
1F0000
1F0000
3F8000
FFE000
ENDCHAR
STARTCHAR uni1E6B
ENCODING 7787
SWIDTH 278 0
DWIDTH 9 0
BBX 9 25 1 0
BITMAP
0C00
1E00
1E00
0C00
0000
0100
0300
0700
0E00
3E00
7F80
FF80
3C00
3C00
3C00
7800
7800
7800
7800
F000
F200
F600
FC00
F800
7000
ENDCHAR
STARTCHAR uni1E6C
ENCODING 7788
SWIDTH 611 0
DWIDTH 20 0
BBX 19 28 2 -5
BITMAP
3FFFE0
3CF9E0
30F8E0
70F8C0
61F0C0
61F080
41F080
01F000
03E000
03E000
03E000
03E000
07C000
07C000
07C000
078000
0F8000
0F8000
0F8000
1F0000
1F0000
3F8000
FFE000
000000
030000
078000
078000
030000
ENDCHAR
STARTCHAR uni1E6D
ENCODING 7789
SWIDTH 278 0
DWIDTH 9 0
BBX 9 25 1 -5
BITMAP
0100
0300
0700
0E00
3E00
7F80
FF80
3C00
3C00
3C00
7800
7800
7800
7800
F000
F200
F600
FC00
F800
7000
0000
3000
7800
7800
3000
ENDCHAR
STARTCHAR uni1E6E
ENCODING 7790
SWIDTH 611 0
DWIDTH 20 0
BBX 19 26 2 -3
BITMAP
3FFFE0
3CF9E0
30F8E0
70F8C0
61F0C0
61F080
41F080
01F000
03E000
03E000
03E000
03E000
07C000
07C000
07C000
078000
0F8000
0F8000
0F8000
1F0000
1F0000
3F8000
FFE000
000000
3FF800
3FF800
ENDCHAR
STARTCHAR uni1E6F
ENCODING 7791
SWIDTH 278 0
DWIDTH 9 0
BBX 11 23 -1 -3
BITMAP
0040
00C0
01C0
0380
0F80
1FE0
3FE0
0F00
0F00
0F00
1E00
1E00
1E00
1E00
3C00
3C80
3D80
3F00
3E00
1C00
0000
FFE0
FFE0
ENDCHAR
STARTCHAR uni1E70
ENCODING 7792
SWIDTH 611 0
DWIDTH 20 0
BBX 19 30 2 -7
BITMAP
3FFFE0
3CF9E0
30F8E0
70F8C0
61F0C0
61F080
41F080
01F000
03E000
03E000
03E000
03E000
07C000
07C000
07C000
078000
0F8000
0F8000
0F8000
1F0000
1F0000
3F8000
FFE000
000000
038000
07C000
0FC000
1CE000
386000
303000
ENDCHAR
STARTCHAR uni1E71
ENCODING 7793
SWIDTH 278 0
DWIDTH 9 0
BBX 11 27 -1 -7
BITMAP
0040
00C0
01C0
0380
0F80
1FE0
3FE0
0F00
0F00
0F00
1E00
1E00
1E00
1E00
3C00
3C80
3D80
3F00
3E00
1C00
0000
0E00
1F00
3F00
7380
E180
C0C0
ENDCHAR
STARTCHAR uni1E72
ENCODING 7794
SWIDTH 722 0
DWIDTH 24 0
BBX 23 28 2 -5
BITMAP
7FE07E
1F803C
1F8018
1F0018
1F0030
3F0030
3E0030
3E0060
3E0060
7E0060
7C00C0
7C00C0
7C00C0
F80180
F80180
F80180
F80300
F80300
F80600
7C0E00
7E1C00
3FF800
0FE000
000000
0C1800
1E3C00
1E3C00
0C1800
ENDCHAR
STARTCHAR uni1E73
ENCODING 7795
SWIDTH 556 0
DWIDTH 18 0
BBX 15 20 1 -5
BITMAP
1E1E
FE1E
3C1E
3C3C
3C3C
3C3C
787C
7878
78F8
70F8
F0F0
F1F2
F376
FE7C
7878
0000
1830
3C78
3C78
1830
ENDCHAR
STARTCHAR uni1E74
ENCODING 7796
SWIDTH 722 0
DWIDTH 24 0
BBX 23 28 2 -5
BITMAP
7FE07E
1F803C
1F8018
1F0018
1F0030
3F0030
3E0030
3E0060
3E0060
7E0060
7C00C0
7C00C0
7C00C0
F80180
F80180
F80180
F80300
F80300
F80600
7C0E00
7E1C00
3FF800
0FE000
000000
0F0C00
1F9C00
39F800
30F000
ENDCHAR
STARTCHAR uni1E75
ENCODING 7797
SWIDTH 556 0
DWIDTH 18 0
BBX 15 20 1 -5
BITMAP
1E1E
FE1E
3C1E
3C3C
3C3C
3C3C
787C
7878
78F8
70F8
F0F0
F1F2
F376
FE7C
7878
0000
1E18
3F38
73F0
61E0
ENDCHAR
STARTCHAR uni1E76
ENCODING 7798
SWIDTH 722 0
DWIDTH 24 0
BBX 23 30 2 -7
BITMAP
7FE07E
1F803C
1F8018
1F0018
1F0030
3F0030
3E0030
3E0060
3E0060
7E0060
7C00C0
7C00C0
7C00C0
F80180
F80180
F80180
F80300
F80300
F80600
7C0E00
7E1C00
3FF800
0FE000
000000
01C000
03E000
07E000
0E7000
1C3000
181800
ENDCHAR
STARTCHAR uni1E77
ENCODING 7799
SWIDTH 556 0
DWIDTH 18 0
BBX 15 22 1 -7
BITMAP
1E1E
FE1E
3C1E
3C3C
3C3C
3C3C
787C
7878
78F8
70F8
F0F0
F1F2
F376
FE7C
7878
0000
0380
07C0
0FC0
1CE0
3860
3030
ENDCHAR
STARTCHAR uni1E78
ENCODING 7800
SWIDTH 722 0
DWIDTH 24 0
BBX 23 35 2 0
BITMAP
000700
000F00
001F00
003C00
007000
006000
000000
01E180
03F380
073F00
061E00
000000
7FE07E
1F803C
1F8018
1F0018
1F0030
3F0030
3E0030
3E0060
3E0060
7E0060
7C00C0
7C00C0
7C00C0
F80180
F80180
F80180
F80300
F80300
F80600
7C0E00
7E1C00
3FF800
0FE000
ENDCHAR
STARTCHAR uni1E79
ENCODING 7801
SWIDTH 556 0
DWIDTH 18 0
BBX 15 27 1 0
BITMAP
0038
0078
00F8
01E0
0380
0300
0000
0F0C
1F9C
39F8
30F0
0000
1E1E
FE1E
3C1E
3C3C
3C3C
3C3C
787C
7878
78F8
70F8
F0F0
F1F2
F376
FE7C
7878
ENDCHAR
STARTCHAR uni1E7A
ENCODING 7802
SWIDTH 722 0
DWIDTH 24 0
BBX 23 31 2 0
BITMAP
030600
078F00
078F00
030600
000000
07FF00
07FF00
000000
7FE07E
1F803C
1F8018
1F0018
1F0030
3F0030
3E0030
3E0060
3E0060
7E0060
7C00C0
7C00C0
7C00C0
F80180
F80180
F80180
F80300
F80300
F80600
7C0E00
7E1C00
3FF800
0FE000
ENDCHAR
STARTCHAR uni1E7B
ENCODING 7803
SWIDTH 556 0
DWIDTH 18 0
BBX 15 23 1 0
BITMAP
1830
3C78
3C78
1830
0000
3FF8
3FF8
0000
1E1E
FE1E
3C1E
3C3C
3C3C
3C3C
787C
7878
78F8
70F8
F0F0
F1F2
F376
FE7C
7878
ENDCHAR
STARTCHAR uni1E7C
ENCODING 7804
SWIDTH 667 0
DWIDTH 22 0
BBX 21 28 2 0
BITMAP
03C300
07E700
0E7E00
0C3C00
000000
FFC1F8
3F0070
3E0060
3F00E0
1F00C0
1F0180
1F0180
1F0300
1F0300
1F0600
0F0C00
0F8C00
0F9800
0F9800
0FB000
0FE000
0FE000
07C000
07C000
078000
070000
070000
060000
ENDCHAR
STARTCHAR uni1E7D
ENCODING 7805
SWIDTH 444 0
DWIDTH 15 0
BBX 14 20 1 0
BITMAP
1E18
3F38
73F0
61E0
0000
1C18
FC3C
3C3C
3C18
3C18
3C30
1E30
1E60
1E60
1EC0
1F80
1F00
1E00
1C00
1800
ENDCHAR
STARTCHAR uni1E7E
ENCODING 7806
SWIDTH 667 0
DWIDTH 22 0
BBX 21 28 2 -5
BITMAP
FFC1F8
3F0070
3E0060
3F00E0
1F00C0
1F0180
1F0180
1F0300
1F0300
1F0600
0F0C00
0F8C00
0F9800
0F9800
0FB000
0FE000
0FE000
07C000
07C000
078000
070000
070000
060000
000000
018000
03C000
03C000
018000
ENDCHAR
STARTCHAR uni1E7F
ENCODING 7807
SWIDTH 444 0
DWIDTH 15 0
BBX 14 20 1 -5
BITMAP
1C18
FC3C
3C3C
3C18
3C18
3C30
1E30
1E60
1E60
1EC0
1F80
1F00
1E00
1C00
1800
0000
0600
0F00
0F00
0600
ENDCHAR
STARTCHAR Wgrave
ENCODING 7808
SWIDTH 889 0
DWIDTH 29 0
BBX 28 30 2 0
BITMAP
00E00000
00F00000
00F80000
003C0000
000E0000
00060000
00000000
FF9FF3F0
3F07C0E0
3E07C0C0
3E07C080
3E07C180
1E07C100
1F0FC300
1F0FC300
1F1BC200
1F1BC600
1F33C400
1F33EC00
0F63E800
0F63F800
0F41F000
0FC1F000
0F81F000
0F81E000
0F01E000
0F01C000
0601C000
06018000
04008000
ENDCHAR
STARTCHAR wgrave
ENCODING 7809
SWIDTH 667 0
DWIDTH 22 0
BBX 21 22 1 0
BITMAP
038000
03C000
03E000
00F000
003800
001800
000000
1C0830
FC1878
3C1878
3C3838
1E7C30
1E7C60
1EDC60
1EBCC0
1F3D80
1F3D80
1E3F00
1C3E00
1C3C00
183800
183000
ENDCHAR
STARTCHAR Wacute
ENCODING 7810
SWIDTH 889 0
DWIDTH 29 0
BBX 28 30 2 0
BITMAP
0001C000
0003C000
0007C000
000F0000
001C0000
00180000
00000000
FF9FF3F0
3F07C0E0
3E07C0C0
3E07C080
3E07C180
1E07C100
1F0FC300
1F0FC300
1F1BC200
1F1BC600
1F33C400
1F33EC00
0F63E800
0F63F800
0F41F000
0FC1F000
0F81F000
0F81E000
0F01E000
0F01C000
0601C000
06018000
04008000
ENDCHAR
STARTCHAR wacute
ENCODING 7811
SWIDTH 667 0
DWIDTH 22 0
BBX 21 22 1 0
BITMAP
000700
000F00
001F00
003C00
007000
006000
000000
1C0830
FC1878
3C1878
3C3838
1E7C30
1E7C60
1EDC60
1EBCC0
1F3D80
1F3D80
1E3F00
1C3E00
1C3C00
183800
183000
ENDCHAR
STARTCHAR Wdieresis
ENCODING 7812
SWIDTH 889 0
DWIDTH 29 0
BBX 28 28 2 0
BITMAP
0060C000
00F1E000
00F1E000
0060C000
00000000
FF9FF3F0
3F07C0E0
3E07C0C0
3E07C080
3E07C180
1E07C100
1F0FC300
1F0FC300
1F1BC200
1F1BC600
1F33C400
1F33EC00
0F63E800
0F63F800
0F41F000
0FC1F000
0F81F000
0F81E000
0F01E000
0F01C000
0601C000
06018000
04008000
ENDCHAR
STARTCHAR wdieresis
ENCODING 7813
SWIDTH 667 0
DWIDTH 22 0
BBX 21 20 1 0
BITMAP
030600
078F00
078F00
030600
000000
1C0830
FC1878
3C1878
3C3838
1E7C30
1E7C60
1EDC60
1EBCC0
1F3D80
1F3D80
1E3F00
1C3E00
1C3C00
183800
183000
ENDCHAR
STARTCHAR uni1E86
ENCODING 7814
SWIDTH 889 0
DWIDTH 29 0
BBX 28 28 2 0
BITMAP
000C0000
001E0000
001E0000
000C0000
00000000
FF9FF3F0
3F07C0E0
3E07C0C0
3E07C080
3E07C180
1E07C100
1F0FC300
1F0FC300
1F1BC200
1F1BC600
1F33C400
1F33EC00
0F63E800
0F63F800
0F41F000
0FC1F000
0F81F000
0F81E000
0F01E000
0F01C000
0601C000
06018000
04008000
ENDCHAR
STARTCHAR uni1E87
ENCODING 7815
SWIDTH 667 0
DWIDTH 22 0
BBX 21 20 1 0
BITMAP
003000
007800
007800
003000
000000
1C0830
FC1878
3C1878
3C3838
1E7C30
1E7C60
1EDC60
1EBCC0
1F3D80
1F3D80
1E3F00
1C3E00
1C3C00
183800
183000
ENDCHAR
STARTCHAR uni1E88
ENCODING 7816
SWIDTH 889 0
DWIDTH 29 0
BBX 28 28 2 -5
BITMAP
FF9FF3F0
3F07C0E0
3E07C0C0
3E07C080
3E07C180
1E07C100
1F0FC300
1F0FC300
1F1BC200
1F1BC600
1F33C400
1F33EC00
0F63E800
0F63F800
0F41F000
0FC1F000
0F81F000
0F81E000
0F01E000
0F01C000
0601C000
06018000
04008000
00000000
00180000
003C0000
003C0000
00180000
ENDCHAR
STARTCHAR uni1E89
ENCODING 7817
SWIDTH 667 0
DWIDTH 22 0
BBX 21 20 1 -5
BITMAP
1C0830
FC1878
3C1878
3C3838
1E7C30
1E7C60
1EDC60
1EBCC0
1F3D80
1F3D80
1E3F00
1C3E00
1C3C00
183800
183000
000000
00C000
01E000
01E000
00C000
ENDCHAR
STARTCHAR uni1E8A
ENCODING 7818
SWIDTH 667 0
DWIDTH 22 0
BBX 24 28 -1 0
BITMAP
000C00
001E00
001E00
000C00
000000
0FFC7F
03F01C
01F018
01F030
01F060
00F8C0
00F980
00FB00
007E00
007C00
007C00
007C00
007E00
007E00
00FE00
019F00
031F00
061F00
0C0F80
180F80
300F80
780FE0
FC3FF0
ENDCHAR
STARTCHAR uni1E8B
ENCODING 7819
SWIDTH 500 0
DWIDTH 16 0
BBX 16 20 0 0
BITMAP
00C0
01E0
01E0
00C0
0000
0F06
3F8F
079F
03B6
03E0
03C0
01C0
01C0
03E0
03E0
06E0
6CF6
F8FC
F0F8
6070
ENDCHAR
STARTCHAR uni1E8C
ENCODING 7820
SWIDTH 667 0
DWIDTH 22 0
BBX 24 28 -1 0
BITMAP
00C180
01E3C0
01E3C0
00C180
000000
0FFC7F
03F01C
01F018
01F030
01F060
00F8C0
00F980
00FB00
007E00
007C00
007C00
007C00
007E00
007E00
00FE00
019F00
031F00
061F00
0C0F80
180F80
300F80
780FE0
FC3FF0
ENDCHAR
STARTCHAR uni1E8D
ENCODING 7821
SWIDTH 500 0
DWIDTH 16 0
BBX 16 20 0 0
BITMAP
060C
0F1E
0F1E
060C
0000
0F06
3F8F
079F
03B6
03E0
03C0
01C0
01C0
03E0
03E0
06E0
6CF6
F8FC
F0F8
6070
ENDCHAR
STARTCHAR uni1E8E
ENCODING 7822
SWIDTH 611 0
DWIDTH 20 0
BBX 19 28 2 0
BITMAP
00C000
01E000
01E000
00C000
000000
FF8FE0
7E03C0
3E0380
3E0300
1E0600
1F0600
1F0C00
0F1800
0F9800
0FB000
0FE000
07C000
07C000
07C000
0F8000
0F8000
0F8000
0F8000
1F0000
1F0000
1F0000
3F0000
FFC000
ENDCHAR
STARTCHAR uni1E8F
ENCODING 7823
SWIDTH 444 0
DWIDTH 15 0
BBX 16 27 -2 -7
BITMAP
00C0
01E0
01E0
00C0
0000
0386
1F8F
078F
0787
03C3
03C2
03C6
03C4
03CC
01C8
01D8
01F0
01F0
01E0
01E0
01C0
0180
0180
6300
FE00
FC00
7000
ENDCHAR
STARTCHAR uni1E90
ENCODING 7824
SWIDTH 611 0
DWIDTH 20 0
BBX 20 30 -1 0
BITMAP
001C00
003E00
007E00
00E700
01C300
018180
000000
0FFFF0
0FC3E0
0E07E0
1C07C0
180F80
101F80
003F00
003E00
007E00
00FC00
00F800
01F800
03F000
03E000
07E000
0FC000
0F8000
1F8040
3F00C0
3E01C0
7E0380
FC1F80
FFFF80
ENDCHAR
STARTCHAR uni1E91
ENCODING 7825
SWIDTH 389 0
DWIDTH 13 0
BBX 14 24 -1 -2
BITMAP
01C0
03E0
07E0
0E70
1C30
1818
0000
1FFC
1FFC
3FF8
2030
0060
00C0
0180
0300
0600
0C00
1800
3000
7C10
FF38
EFB8
87F0
01E0
ENDCHAR
STARTCHAR uni1E92
ENCODING 7826
SWIDTH 611 0
DWIDTH 20 0
BBX 20 28 -1 -5
BITMAP
0FFFF0
0FC3E0
0E07E0
1C07C0
180F80
101F80
003F00
003E00
007E00
00FC00
00F800
01F800
03F000
03E000
07E000
0FC000
0F8000
1F8040
3F00C0
3E01C0
7E0380
FC1F80
FFFF80
000000
00C000
01E000
01E000
00C000
ENDCHAR
STARTCHAR uni1E93
ENCODING 7827
SWIDTH 389 0
DWIDTH 13 0
BBX 14 22 -1 -7
BITMAP
1FFC
1FFC
3FF8
2030
0060
00C0
0180
0300
0600
0C00
1800
3000
7C10
FF38
EFB8
87F0
01E0
0000
0300
0780
0780
0300
ENDCHAR
STARTCHAR uni1E94
ENCODING 7828
SWIDTH 611 0
DWIDTH 20 0
BBX 20 26 -1 -3
BITMAP
0FFFF0
0FC3E0
0E07E0
1C07C0
180F80
101F80
003F00
003E00
007E00
00FC00
00F800
01F800
03F000
03E000
07E000
0FC000
0F8000
1F8040
3F00C0
3E01C0
7E0380
FC1F80
FFFF80
000000
1FFC00
1FFC00
ENDCHAR
STARTCHAR uni1E95
ENCODING 7829
SWIDTH 389 0
DWIDTH 13 0
BBX 14 20 -1 -5
BITMAP
1FFC
1FFC
3FF8
2030
0060
00C0
0180
0300
0600
0C00
1800
3000
7C10
FF38
EFB8
87F0
01E0
0000
7FF0
7FF0
ENDCHAR
STARTCHAR uni1E96
ENCODING 7830
SWIDTH 556 0
DWIDTH 18 0
BBX 16 26 1 -3
BITMAP
0380
3F80
1F80
0780
0F00
0F00
0F00
1F00
1E3C
1E7E
1EDE
3F1E
3E1E
3E3C
3C3C
7C3C
7878
7878
7879
F0F3
F0F6
F0FC
F078
0000
3FF8
3FF8
ENDCHAR
STARTCHAR uni1E97
ENCODING 7831
SWIDTH 278 0
DWIDTH 9 0
BBX 11 25 1 0
BITMAP
60C0
F1E0
F1E0
60C0
0000
0100
0300
0700
0E00
3E00
7F80
FF80
3C00
3C00
3C00
7800
7800
7800
7800
F000
F200
F600
FC00
F800
7000
ENDCHAR
STARTCHAR uni1E98
ENCODING 7832
SWIDTH 667 0
DWIDTH 22 0
BBX 21 24 1 0
BITMAP
007000
00F800
01CC00
018C00
018C00
01DC00
00F800
007000
000000
1C0830
FC1878
3C1878
3C3838
1E7C30
1E7C60
1EDC60
1EBCC0
1F3D80
1F3D80
1E3F00
1C3E00
1C3C00
183800
183000
ENDCHAR
STARTCHAR uni1E99
ENCODING 7833
SWIDTH 444 0
DWIDTH 15 0
BBX 16 31 -2 -7
BITMAP
00E0
01F0
0398
0318
0318
03B8
01F0
00E0
0000
0386
1F8F
078F
0787
03C3
03C2
03C6
03C4
03CC
01C8
01D8
01F0
01F0
01E0
01E0
01C0
0180
0180
6300
FE00
FC00
7000
ENDCHAR
STARTCHAR uni1EA0
ENCODING 7840
SWIDTH 667 0
DWIDTH 21 0
BBX 21 28 -1 -5
BITMAP
000200
000600
000700
000F00
001F00
001F00
003F00
002F00
006F80
004F80
00CF80
018F80
018780
030780
0207C0
07FFC0
0FFFC0
0C07C0
1807C0
1803C0
3003E0
7007E0
FC1FF8
000000
003000
007800
007800
003000
ENDCHAR
STARTCHAR uni1EA1
ENCODING 7841
SWIDTH 500 0
DWIDTH 16 0
BBX 14 20 0 -5
BITMAP
039C
0FDC
1E7C
3C3C
7838
7878
F878
F078
F0F0
F0F0
F0F4
F1EC
7F78
7E70
1C60
0000
0300
0780
0780
0300
ENDCHAR
STARTCHAR uni1EA4
ENCODING 7844
SWIDTH 667 0
DWIDTH 21 0
BBX 21 37 -1 0
BITMAP
0001C0
0003C0
0007C0
000F00
001C00
001800
000000
000700
000F80
001F80
0039C0
0070C0
006060
000000
000200
000600
000700
000F00
001F00
001F00
003F00
002F00
006F80
004F80
00CF80
018F80
018780
030780
0207C0
07FFC0
0FFFC0
0C07C0
1807C0
1803C0
3003E0
7007E0
FC1FF8
ENDCHAR
STARTCHAR uni1EA5
ENCODING 7845
SWIDTH 500 0
DWIDTH 16 0
BBX 14 31 0 0
BITMAP
0038
0078
00F8
01E0
0380
0300
0000
00E0
01F0
03F0
0738
0E18
0C0C
0000
0000
0000
039C
0FDC
1E7C
3C3C
7838
7878
F878
F078
F0F0
F0F0
F0F4
F1EC
7F78
7E70
1C60
ENDCHAR
STARTCHAR uni1EA6
ENCODING 7846
SWIDTH 667 0
DWIDTH 21 0
BBX 21 37 -1 0
BITMAP
00E000
00F000
00F800
003C00
000E00
000600
000000
000700
000F80
001F80
0039C0
0070C0
006060
000000
000200
000600
000700
000F00
001F00
001F00
003F00
002F00
006F80
004F80
00CF80
018F80
018780
030780
0207C0
07FFC0
0FFFC0
0C07C0
1807C0
1803C0
3003E0
7007E0
FC1FF8
ENDCHAR
STARTCHAR uni1EA7
ENCODING 7847
SWIDTH 500 0
DWIDTH 16 0
BBX 14 31 0 0
BITMAP
1C00
1E00
1F00
0780
01C0
00C0
0000
00E0
01F0
03F0
0738
0E18
0C0C
0000
0000
0000
039C
0FDC
1E7C
3C3C
7838
7878
F878
F078
F0F0
F0F0
F0F4
F1EC
7F78
7E70
1C60
ENDCHAR
STARTCHAR uni1EAA
ENCODING 7850
SWIDTH 667 0
DWIDTH 21 0
BBX 21 35 -1 0
BITMAP
007860
00FCE0
01CFC0
018780
000000
000700
000F80
001F80
0039C0
0070C0
006060
000000
000200
000600
000700
000F00
001F00
001F00
003F00
002F00
006F80
004F80
00CF80
018F80
018780
030780
0207C0
07FFC0
0FFFC0
0C07C0
1807C0
1803C0
3003E0
7007E0
FC1FF8
ENDCHAR
STARTCHAR uni1EAB
ENCODING 7851
SWIDTH 500 0
DWIDTH 16 0
BBX 14 29 0 0
BITMAP
0F0C
1F9C
39F8
30F0
0000
00E0
01F0
03F0
0738
0E18
0C0C
0000
0000
0000
039C
0FDC
1E7C
3C3C
7838
7878
F878
F078
F0F0
F0F0
F0F4
F1EC
7F78
7E70
1C60
ENDCHAR
STARTCHAR uni1EAC
ENCODING 7852
SWIDTH 667 0
DWIDTH 21 0
BBX 21 35 -1 -5
BITMAP
000E00
001F00
003F00
007380
00E180
00C0C0
000000
000200
000600
000700
000F00
001F00
001F00
003F00
002F00
006F80
004F80
00CF80
018F80
018780
030780
0207C0
07FFC0
0FFFC0
0C07C0
1807C0
1803C0
3003E0
7007E0
FC1FF8
000000
003000
007800
007800
003000
ENDCHAR
STARTCHAR uni1EAD
ENCODING 7853
SWIDTH 500 0
DWIDTH 16 0
BBX 14 27 0 -5
BITMAP
01C0
03E0
07E0
0E70
1C30
1818
0000
039C
0FDC
1E7C
3C3C
7838
7878
F878
F078
F0F0
F0F0
F0F4
F1EC
7F78
7E70
1C60
0000
0300
0780
0780
0300
ENDCHAR
STARTCHAR uni1EAE
ENCODING 7854
SWIDTH 667 0
DWIDTH 21 0
BBX 21 36 -1 0
BITMAP
000380
000780
000F80
001E00
003800
003000
000000
00C0C0
00C0C0
00E1C0
007F80
001E00
000000
000200
000600
000700
000F00
001F00
001F00
003F00
002F00
006F80
004F80
00CF80
018F80
018780
030780
0207C0
07FFC0
0FFFC0
0C07C0
1807C0
1803C0
3003E0
7007E0
FC1FF8
ENDCHAR
STARTCHAR uni1EAF
ENCODING 7855
SWIDTH 500 0
DWIDTH 16 0
BBX 14 28 0 0
BITMAP
0038
0078
00F8
01E0
0380
0300
0000
1818
1818
1C38
0FF0
03C0
0000
039C
0FDC
1E7C
3C3C
7838
7878
F878
F078
F0F0
F0F0
F0F4
F1EC
7F78
7E70
1C60
ENDCHAR
STARTCHAR uni1EB0
ENCODING 7856
SWIDTH 667 0
DWIDTH 21 0
BBX 21 36 -1 0
BITMAP
01C000
01E000
01F000
007800
001C00
000C00
000000
00C0C0
00C0C0
00E1C0
007F80
001E00
000000
000200
000600
000700
000F00
001F00
001F00
003F00
002F00
006F80
004F80
00CF80
018F80
018780
030780
0207C0
07FFC0
0FFFC0
0C07C0
1807C0
1803C0
3003E0
7007E0
FC1FF8
ENDCHAR
STARTCHAR uni1EB1
ENCODING 7857
SWIDTH 500 0
DWIDTH 16 0
BBX 14 28 0 0
BITMAP
1C00
1E00
1F00
0780
01C0
00C0
0000
1818
1818
1C38
0FF0
03C0
0000
039C
0FDC
1E7C
3C3C
7838
7878
F878
F078
F0F0
F0F0
F0F4
F1EC
7F78
7E70
1C60
ENDCHAR
STARTCHAR uni1EB4
ENCODING 7860
SWIDTH 667 0
DWIDTH 21 0
BBX 21 34 -1 0
BITMAP
00F0C0
01F9C0
039F80
030F00
000000
00C0C0
00C0C0
00E1C0
007F80
001E00
000000
000200
000600
000700
000F00
001F00
001F00
003F00
002F00
006F80
004F80
00CF80
018F80
018780
030780
0207C0
07FFC0
0FFFC0
0C07C0
1807C0
1803C0
3003E0
7007E0
FC1FF8
ENDCHAR
STARTCHAR uni1EB5
ENCODING 7861
SWIDTH 500 0
DWIDTH 16 0
BBX 14 26 0 0
BITMAP
0F0C
1F9C
39F8
30F0
0000
1818
1818
1C38
0FF0
03C0
0000
039C
0FDC
1E7C
3C3C
7838
7878
F878
F078
F0F0
F0F0
F0F4
F1EC
7F78
7E70
1C60
ENDCHAR
STARTCHAR uni1EB6
ENCODING 7862
SWIDTH 667 0
DWIDTH 21 0
BBX 21 34 -1 -5
BITMAP
00C0C0
00C0C0
00E1C0
007F80
001E00
000000
000200
000600
000700
000F00
001F00
001F00
003F00
002F00
006F80
004F80
00CF80
018F80
018780
030780
0207C0
07FFC0
0FFFC0
0C07C0
1807C0
1803C0
3003E0
7007E0
FC1FF8
000000
003000
007800
007800
003000
ENDCHAR
STARTCHAR uni1EB7
ENCODING 7863
SWIDTH 500 0
DWIDTH 16 0
BBX 14 26 0 -5
BITMAP
1818
1818
1C38
0FF0
03C0
0000
039C
0FDC
1E7C
3C3C
7838
7878
F878
F078
F0F0
F0F0
F0F4
F1EC
7F78
7E70
1C60
0000
0300
0780
0780
0300
ENDCHAR
STARTCHAR uni1EB8
ENCODING 7864
SWIDTH 667 0
DWIDTH 22 0
BBX 22 28 -1 -5
BITMAP
07FFFC
01F83C
01F01C
01F018
01F018
03E018
03E010
03E080
03E080
07E180
07C780
07FF80
07C700
0F8300
0F8300
0F8200
0F8000
1F0010
1F0030
1F0070
3F00E0
3F03E0
FFFFE0
000000
006000
00F000
00F000
006000
ENDCHAR
STARTCHAR uni1EB9
ENCODING 7865
SWIDTH 444 0
DWIDTH 14 0
BBX 12 20 1 -5
BITMAP
03E0
0FF0
1E70
3C70
38F0
78E0
71C0
F780
FC00
F000
F020
F060
78C0
7F80
1E00
0000
0C00
1E00
1E00
0C00
ENDCHAR
STARTCHAR uni1EBC
ENCODING 7868
SWIDTH 667 0
DWIDTH 22 0
BBX 22 28 -1 0
BITMAP
007860
00FCE0
01CFC0
018780
000000
07FFFC
01F83C
01F01C
01F018
01F018
03E018
03E010
03E080
03E080
07E180
07C780
07FF80
07C700
0F8300
0F8300
0F8200
0F8000
1F0010
1F0030
1F0070
3F00E0
3F03E0
FFFFE0
ENDCHAR
STARTCHAR uni1EBD
ENCODING 7869
SWIDTH 444 0
DWIDTH 14 0
BBX 13 20 1 0
BITMAP
1E18
3F38
73F0
61E0
0000
03E0
0FF0
1E70
3C70
38F0
78E0
71C0
F780
FC00
F000
F020
F060
78C0
7F80
1E00
ENDCHAR
STARTCHAR uni1EBE
ENCODING 7870
SWIDTH 667 0
DWIDTH 22 0
BBX 22 37 -1 0
BITMAP
0001C0
0003C0
0007C0
000F00
001C00
001800
000000
000700
000F80
001F80
0039C0
0070E0
00E070
000000
07FFFC
01F83C
01F01C
01F018
01F018
03E018
03E010
03E080
03E080
07E180
07C780
07FF80
07C700
0F8300
0F8300
0F8200
0F8000
1F0010
1F0030
1F0070
3F00E0
3F03E0
FFFFE0
ENDCHAR
STARTCHAR uni1EBF
ENCODING 7871
SWIDTH 444 0
DWIDTH 14 0
BBX 14 30 1 0
BITMAP
0038
0078
00F8
01E0
0380
0300
0000
00E0
01F0
03F0
0738
0E18
0C0C
0000
0000
03E0
0FF0
1E70
3C70
38F0
78E0
71C0
F780
FC00
F000
F020
F060
78C0
7F80
1E00
ENDCHAR
STARTCHAR uni1EC0
ENCODING 7872
SWIDTH 667 0
DWIDTH 22 0
BBX 22 37 -1 0
BITMAP
00E000
00F000
00F800
003C00
000E00
000600
000000
000700
000F80
001F80
0039C0
0070E0
00E070
000000
07FFFC
01F83C
01F01C
01F018
01F018
03E018
03E010
03E080
03E080
07E180
07C780
07FF80
07C700
0F8300
0F8300
0F8200
0F8000
1F0010
1F0030
1F0070
3F00E0
3F03E0
FFFFE0
ENDCHAR
STARTCHAR uni1EC1
ENCODING 7873
SWIDTH 444 0
DWIDTH 14 0
BBX 14 30 1 0
BITMAP
1C00
1E00
1F00
0780
01C0
00C0
0000
00E0
01F0
03F0
0738
0E18
0C0C
0000
0000
03E0
0FF0
1E70
3C70
38F0
78E0
71C0
F780
FC00
F000
F020
F060
78C0
7F80
1E00
ENDCHAR
STARTCHAR uni1EC4
ENCODING 7876
SWIDTH 667 0
DWIDTH 22 0
BBX 22 35 -1 0
BITMAP
007860
00FCE0
01CFC0
018780
000000
000700
000F80
001F80
0039C0
0070E0
00E070
000000
07FFFC
01F83C
01F01C
01F018
01F018
03E018
03E010
03E080
03E080
07E180
07C780
07FF80
07C700
0F8300
0F8300
0F8200
0F8000
1F0010
1F0030
1F0070
3F00E0
3F03E0
FFFFE0
ENDCHAR
STARTCHAR uni1EC5
ENCODING 7877
SWIDTH 444 0
DWIDTH 14 0
BBX 14 28 1 0
BITMAP
0F0C
1F9C
39F8
30F0
0000
00E0
01F0
03F0
0738
0E18
0C0C
0000
0000
03E0
0FF0
1E70
3C70
38F0
78E0
71C0
F780
FC00
F000
F020
F060
78C0
7F80
1E00
ENDCHAR
STARTCHAR uni1EC6
ENCODING 7878
SWIDTH 667 0
DWIDTH 22 0
BBX 22 35 -1 -5
BITMAP
001C00
003E00
007E00
00E700
01C300
018180
000000
07FFFC
01F83C
01F01C
01F018
01F018
03E018
03E010
03E080
03E080
07E180
07C780
07FF80
07C700
0F8300
0F8300
0F8200
0F8000
1F0010
1F0030
1F0070
3F00E0
3F03E0
FFFFE0
000000
006000
00F000
00F000
006000
ENDCHAR
STARTCHAR uni1EC7
ENCODING 7879
SWIDTH 444 0
DWIDTH 14 0
BBX 12 27 1 -5
BITMAP
0380
07C0
0FC0
1CE0
3860
3030
0000
03E0
0FF0
1E70
3C70
38F0
78E0
71C0
F780
FC00
F000
F020
F060
78C0
7F80
1E00
0000
0C00
1E00
1E00
0C00
ENDCHAR
STARTCHAR uni1ECA
ENCODING 7882
SWIDTH 389 0
DWIDTH 13 0
BBX 15 28 -1 -5
BITMAP
07FE
01F8
01F8
01F0
01F0
01F0
03E0
03E0
03E0
03E0
07C0
07C0
07C0
07C0
0F80
0F80
0F80
0F80
1F00
1F00
1F00
3F00
FFC0
0000
0600
0F00
0F00
0600
ENDCHAR
STARTCHAR uni1ECB
ENCODING 7883
SWIDTH 278 0
DWIDTH 9 0
BBX 8 28 1 -5
BITMAP
06
0F
0F
0F
06
00
00
00
1E
FE
3C
3C
3C
78
78
78
78
F0
F2
F6
FC
F8
70
00
30
78
78
30
ENDCHAR
STARTCHAR uni1ECC
ENCODING 7884
SWIDTH 722 0
DWIDTH 23 0
BBX 22 28 1 -5
BITMAP
001F80
00FFE0
01E0F0
03C078
078078
0F007C
1F007C
3E007C
3E007C
3E007C
7C00FC
7C00F8
FC00F8
F801F0
F801F0
F801F0
F803E0
F803C0
780780
780F00
3C1E00
1FFC00
07E000
000000
00C000
01E000
01E000
00C000
ENDCHAR
STARTCHAR uni1ECD
ENCODING 7885
SWIDTH 500 0
DWIDTH 16 0
BBX 15 20 1 -5
BITMAP
01F0
073C
1E1C
1C1E
3C1E
7C1E
783E
F83E
F83C
F07C
F078
F070
70F0
79E0
1F80
0000
0300
0780
0780
0300
ENDCHAR
STARTCHAR uni1ED0
ENCODING 7888
SWIDTH 722 0
DWIDTH 23 0
BBX 22 37 1 0
BITMAP
0001C0
0003C0
0007C0
000F00
001C00
001800
000000
000700
000F80
001F80
0039C0
0070E0
00E070
000000
001F80
00FFE0
01E0F0
03C078
078078
0F007C
1F007C
3E007C
3E007C
3E007C
7C00FC
7C00F8
FC00F8
F801F0
F801F0
F801F0
F803E0
F803C0
780780
780F00
3C1E00
1FFC00
07E000
ENDCHAR
STARTCHAR uni1ED1
ENCODING 7889
SWIDTH 500 0
DWIDTH 16 0
BBX 16 30 1 0
BITMAP
000E
001E
003E
0078
00E0
00C0
0000
0038
007C
00FC
01CE
0386
0303
0000
0000
01F0
073C
1E1C
1C1E
3C1E
7C1E
783E
F83E
F83C
F07C
F078
F070
70F0
79E0
1F80
ENDCHAR
STARTCHAR uni1ED2
ENCODING 7890
SWIDTH 722 0
DWIDTH 23 0
BBX 22 37 1 0
BITMAP
00E000
00F000
00F800
003C00
000E00
000600
000000
000700
000F80
001F80
0039C0
0070E0
00E070
000000
001F80
00FFE0
01E0F0
03C078
078078
0F007C
1F007C
3E007C
3E007C
3E007C
7C00FC
7C00F8
FC00F8
F801F0
F801F0
F801F0
F803E0
F803C0
780780
780F00
3C1E00
1FFC00
07E000
ENDCHAR
STARTCHAR uni1ED3
ENCODING 7891
SWIDTH 500 0
DWIDTH 16 0
BBX 16 30 1 0
BITMAP
0700
0780
07C0
01E0
0070
0030
0000
0038
007C
00FC
01CE
0386
0303
0000
0000
01F0
073C
1E1C
1C1E
3C1E
7C1E
783E
F83E
F83C
F07C
F078
F070
70F0
79E0
1F80
ENDCHAR
STARTCHAR uni1ED6
ENCODING 7894
SWIDTH 722 0
DWIDTH 23 0
BBX 22 35 1 0
BITMAP
007860
00FCE0
01CFC0
018780
000000
000700
000F80
001F80
0039C0
0070E0
00E070
000000
001F80
00FFE0
01E0F0
03C078
078078
0F007C
1F007C
3E007C
3E007C
3E007C
7C00FC
7C00F8
FC00F8
F801F0
F801F0
F801F0
F803E0
F803C0
780780
780F00
3C1E00
1FFC00
07E000
ENDCHAR
STARTCHAR uni1ED7
ENCODING 7895
SWIDTH 500 0
DWIDTH 16 0
BBX 16 28 1 0
BITMAP
03C3
07E7
0E7E
0C3C
0000
0038
007C
00FC
01CE
0386
0303
0000
0000
01F0
073C
1E1C
1C1E
3C1E
7C1E
783E
F83E
F83C
F07C
F078
F070
70F0
79E0
1F80
ENDCHAR
STARTCHAR uni1ED8
ENCODING 7896
SWIDTH 722 0
DWIDTH 23 0
BBX 22 35 1 -5
BITMAP
000E00
001F00
003F00
007380
00E180
00C0C0
000000
001F80
00FFE0
01E0F0
03C078
078078
0F007C
1F007C
3E007C
3E007C
3E007C
7C00FC
7C00F8
FC00F8
F801F0
F801F0
F801F0
F803E0
F803C0
780780
780F00
3C1E00
1FFC00
07E000
000000
00C000
01E000
01E000
00C000
ENDCHAR
STARTCHAR uni1ED9
ENCODING 7897
SWIDTH 500 0
DWIDTH 16 0
BBX 15 27 1 -5
BITMAP
00E0
01F0
03F0
0738
0E18
0C0C
0000
01F0
073C
1E1C
1C1E
3C1E
7C1E
783E
F83E
F83C
F07C
F078
F070
70F0
79E0
1F80
0000
0300
0780
0780
0300
ENDCHAR
STARTCHAR uni1EDA
ENCODING 7898
SWIDTH 722 0
DWIDTH 23 0
BBX 26 30 1 0
BITMAP
00007000
0000F000
0001F000
0003C000
00070000
00060000
00000000
001F8380
00FFE7C0
01E0F7C0
03C07FC0
07807BC0
0F007D80
1F007D80
3E007F00
3E007E00
3E007C00
7C00FC00
7C00F800
FC00F800
F801F000
F801F000
F801F000
F803E000
F803C000
78078000
780F0000
3C1E0000
1FFC0000
07E00000
ENDCHAR
STARTCHAR uni1EDB
ENCODING 7899
SWIDTH 500 0
DWIDTH 16 0
BBX 20 22 1 0
BITMAP
000380
000780
000F80
001E00
003800
003000
000000
01F0E0
073DF0
1E1DF0
1C1FF0
3C1EF0
7C1E60
783E60
F83EC0
F83D80
F07F00
F07800
F07000
70F000
79E000
1F8000
ENDCHAR
STARTCHAR uni1EDC
ENCODING 7900
SWIDTH 722 0
DWIDTH 23 0
BBX 26 30 1 0
BITMAP
001C0000
001E0000
001F0000
00078000
0001C000
0000C000
00000000
001F8380
00FFE7C0
01E0F7C0
03C07FC0
07807BC0
0F007D80
1F007D80
3E007F00
3E007E00
3E007C00
7C00FC00
7C00F800
FC00F800
F801F000
F801F000
F801F000
F803E000
F803C000
78078000
780F0000
3C1E0000
1FFC0000
07E00000
ENDCHAR
STARTCHAR uni1EDD
ENCODING 7901
SWIDTH 500 0
DWIDTH 16 0
BBX 20 22 1 0
BITMAP
01C000
01E000
01F000
007800
001C00
000C00
000000
01F0E0
073DF0
1E1DF0
1C1FF0
3C1EF0
7C1E60
783E60
F83EC0
F83D80
F07F00
F07800
F07000
70F000
79E000
1F8000
ENDCHAR
STARTCHAR uni1EE0
ENCODING 7904
SWIDTH 722 0
DWIDTH 23 0
BBX 26 28 1 0
BITMAP
000F0C00
001F9C00
0039F800
0030F000
00000000
001F8380
00FFE7C0
01E0F7C0
03C07FC0
07807BC0
0F007D80
1F007D80
3E007F00
3E007E00
3E007C00
7C00FC00
7C00F800
FC00F800
F801F000
F801F000
F801F000
F803E000
F803C000
78078000
780F0000
3C1E0000
1FFC0000
07E00000
ENDCHAR
STARTCHAR uni1EE1
ENCODING 7905
SWIDTH 500 0
DWIDTH 16 0
BBX 20 20 1 0
BITMAP
00F0C0
01F9C0
039F80
030F00
000000
01F0E0
073DF0
1E1DF0
1C1FF0
3C1EF0
7C1E60
783E60
F83EC0
F83D80
F07F00
F07800
F07000
70F000
79E000
1F8000
ENDCHAR
STARTCHAR uni1EE2
ENCODING 7906
SWIDTH 722 0
DWIDTH 23 0
BBX 26 28 1 -5
BITMAP
001F8380
00FFE7C0
01E0F7C0
03C07FC0
07807BC0
0F007D80
1F007D80
3E007F00
3E007E00
3E007C00
7C00FC00
7C00F800
FC00F800
F801F000
F801F000
F801F000
F803E000
F803C000
78078000
780F0000
3C1E0000
1FFC0000
07E00000
00000000
00600000
00F00000
00F00000
00600000
ENDCHAR
STARTCHAR uni1EE3
ENCODING 7907
SWIDTH 500 0
DWIDTH 16 0
BBX 20 20 1 -5
BITMAP
01F0E0
073DF0
1E1DF0
1C1FF0
3C1EF0
7C1E60
783E60
F83EC0
F83D80
F07F00
F07800
F07000
70F000
79E000
1F8000
000000
030000
078000
078000
030000
ENDCHAR
STARTCHAR uni1EE4
ENCODING 7908
SWIDTH 722 0
DWIDTH 24 0
BBX 23 28 2 -5
BITMAP
7FE07E
1F803C
1F8018
1F0018
1F0030
3F0030
3E0030
3E0060
3E0060
7E0060
7C00C0
7C00C0
7C00C0
F80180
F80180
F80180
F80300
F80300
F80600
7C0E00
7E1C00
3FF800
0FE000
000000
018000
03C000
03C000
018000
ENDCHAR
STARTCHAR uni1EE5
ENCODING 7909
SWIDTH 556 0
DWIDTH 18 0
BBX 15 20 1 -5
BITMAP
1E1E
FE1E
3C1E
3C3C
3C3C
3C3C
787C
7878
78F8
70F8
F0F0
F1F2
F376
FE7C
7878
0000
0300
0780
0780
0300
ENDCHAR
STARTCHAR uni1EE8
ENCODING 7912
SWIDTH 722 0
DWIDTH 24 0
BBX 27 30 2 0
BITMAP
0000E000
0001E000
0003E000
00078000
000E0000
000C0000
00000000
7FE07FC0
1F803FE0
1F801BE0
1F001BE0
1F0031E0
3F0030C0
3E0030C0
3E006180
3E006300
7E006600
7C00C000
7C00C000
7C00C000
F8018000
F8018000
F8018000
F8030000
F8030000
F8060000
7C0E0000
7E1C0000
3FF80000
0FE00000
ENDCHAR
STARTCHAR uni1EE9
ENCODING 7913
SWIDTH 556 0
DWIDTH 18 0
BBX 20 22 1 0
BITMAP
000700
000F00
001F00
003C00
007000
006000
000000
1E1EE0
FE1FF0
3C1FF0
3C3DF0
3C3CF0
3C3C60
787C60
7878C0
78F980
70FB00
F0F000
F1F200
F37600
FE7C00
787800
ENDCHAR
STARTCHAR uni1EEA
ENCODING 7914
SWIDTH 722 0
DWIDTH 24 0
BBX 27 30 2 0
BITMAP
00700000
00780000
007C0000
001E0000
00070000
00030000
00000000
7FE07FC0
1F803FE0
1F801BE0
1F001BE0
1F0031E0
3F0030C0
3E0030C0
3E006180
3E006300
7E006600
7C00C000
7C00C000
7C00C000
F8018000
F8018000
F8018000
F8030000
F8030000
F8060000
7C0E0000
7E1C0000
3FF80000
0FE00000
ENDCHAR
STARTCHAR uni1EEB
ENCODING 7915
SWIDTH 556 0
DWIDTH 18 0
BBX 20 22 1 0
BITMAP
038000
03C000
03E000
00F000
003800
001800
000000
1E1EE0
FE1FF0
3C1FF0
3C3DF0
3C3CF0
3C3C60
787C60
7878C0
78F980
70FB00
F0F000
F1F200
F37600
FE7C00
787800
ENDCHAR
STARTCHAR uni1EEE
ENCODING 7918
SWIDTH 722 0
DWIDTH 24 0
BBX 27 28 2 0
BITMAP
003C3000
007E7000
00E7E000
00C3C000
00000000
7FE07FC0
1F803FE0
1F801BE0
1F001BE0
1F0031E0
3F0030C0
3E0030C0
3E006180
3E006300
7E006600
7C00C000
7C00C000
7C00C000
F8018000
F8018000
F8018000
F8030000
F8030000
F8060000
7C0E0000
7E1C0000
3FF80000
0FE00000
ENDCHAR
STARTCHAR uni1EEF
ENCODING 7919
SWIDTH 556 0
DWIDTH 18 0
BBX 20 20 1 0
BITMAP
01E180
03F380
073F00
061E00
000000
1E1EE0
FE1FF0
3C1FF0
3C3DF0
3C3CF0
3C3C60
787C60
7878C0
78F980
70FB00
F0F000
F1F200
F37600
FE7C00
787800
ENDCHAR
STARTCHAR uni1EF0
ENCODING 7920
SWIDTH 722 0
DWIDTH 24 0
BBX 27 28 2 -5
BITMAP
7FE07FC0
1F803FE0
1F801BE0
1F001BE0
1F0031E0
3F0030C0
3E0030C0
3E006180
3E006300
7E006600
7C00C000
7C00C000
7C00C000
F8018000
F8018000
F8018000
F8030000
F8030000
F8060000
7C0E0000
7E1C0000
3FF80000
0FE00000
00000000
00C00000
01E00000
01E00000
00C00000
ENDCHAR
STARTCHAR uni1EF1
ENCODING 7921
SWIDTH 556 0
DWIDTH 18 0
BBX 20 20 1 -5
BITMAP
1E1EE0
FE1FF0
3C1FF0
3C3DF0
3C3CF0
3C3C60
787C60
7878C0
78F980
70FB00
F0F000
F1F200
F37600
FE7C00
787800
000000
018000
03C000
03C000
018000
ENDCHAR
STARTCHAR Ygrave
ENCODING 7922
SWIDTH 611 0
DWIDTH 20 0
BBX 19 30 2 0
BITMAP
0E0000
0F0000
0F8000
03C000
00E000
006000
000000
FF8FE0
7E03C0
3E0380
3E0300
1E0600
1F0600
1F0C00
0F1800
0F9800
0FB000
0FE000
07C000
07C000
07C000
0F8000
0F8000
0F8000
0F8000
1F0000
1F0000
1F0000
3F0000
FFC000
ENDCHAR
STARTCHAR ygrave
ENCODING 7923
SWIDTH 444 0
DWIDTH 15 0
BBX 16 29 -2 -7
BITMAP
0E00
0F00
0F80
03C0
00E0
0060
0000
0386
1F8F
078F
0787
03C3
03C2
03C6
03C4
03CC
01C8
01D8
01F0
01F0
01E0
01E0
01C0
0180
0180
6300
FE00
FC00
7000
ENDCHAR
STARTCHAR uni1EF4
ENCODING 7924
SWIDTH 611 0
DWIDTH 20 0
BBX 19 28 2 -5
BITMAP
FF8FE0
7E03C0
3E0380
3E0300
1E0600
1F0600
1F0C00
0F1800
0F9800
0FB000
0FE000
07C000
07C000
07C000
0F8000
0F8000
0F8000
0F8000
1F0000
1F0000
1F0000
3F0000
FFC000
000000
030000
078000
078000
030000
ENDCHAR
STARTCHAR uni1EF5
ENCODING 7925
SWIDTH 444 0
DWIDTH 15 0
BBX 16 27 -2 -12
BITMAP
0386
1F8F
078F
0787
03C3
03C2
03C6
03C4
03CC
01C8
01D8
01F0
01F0
01E0
01E0
01C0
0180
0180
6300
FE00
FC00
7000
0000
0C00
1E00
1E00
0C00
ENDCHAR
STARTCHAR uni1EF8
ENCODING 7928
SWIDTH 611 0
DWIDTH 20 0
BBX 19 28 2 0
BITMAP
078600
0FCE00
1CFC00
187800
000000
FF8FE0
7E03C0
3E0380
3E0300
1E0600
1F0600
1F0C00
0F1800
0F9800
0FB000
0FE000
07C000
07C000
07C000
0F8000
0F8000
0F8000
0F8000
1F0000
1F0000
1F0000
3F0000
FFC000
ENDCHAR
STARTCHAR uni1EF9
ENCODING 7929
SWIDTH 444 0
DWIDTH 15 0
BBX 16 27 -2 -7
BITMAP
0786
0FCE
1CFC
1878
0000
0386
1F8F
078F
0787
03C3
03C2
03C6
03C4
03CC
01C8
01D8
01F0
01F0
01E0
01E0
01C0
0180
0180
6300
FE00
FC00
7000
ENDCHAR
STARTCHAR uni2000
ENCODING 8192
SWIDTH 500 0
DWIDTH 17 0
BBX 1 1 0 0
BITMAP
00
ENDCHAR
STARTCHAR uni2001
ENCODING 8193
SWIDTH 1000 0
DWIDTH 33 0
BBX 1 1 0 0
BITMAP
00
ENDCHAR
STARTCHAR uni2002
ENCODING 8194
SWIDTH 500 0
DWIDTH 17 0
BBX 1 1 0 0
BITMAP
00
ENDCHAR
STARTCHAR uni2003
ENCODING 8195
SWIDTH 1000 0
DWIDTH 33 0
BBX 1 1 0 0
BITMAP
00
ENDCHAR
STARTCHAR uni2004
ENCODING 8196
SWIDTH 333 0
DWIDTH 11 0
BBX 1 1 0 0
BITMAP
00
ENDCHAR
STARTCHAR uni2005
ENCODING 8197
SWIDTH 250 0
DWIDTH 8 0
BBX 1 1 0 0
BITMAP
00
ENDCHAR
STARTCHAR uni2006
ENCODING 8198
SWIDTH 167 0
DWIDTH 6 0
BBX 1 1 0 0
BITMAP
00
ENDCHAR
STARTCHAR uni2007
ENCODING 8199
SWIDTH 500 0
DWIDTH 16 0
BBX 1 1 0 0
BITMAP
00
ENDCHAR
STARTCHAR uni2008
ENCODING 8200
SWIDTH 250 0
DWIDTH 8 0
BBX 1 1 0 0
BITMAP
00
ENDCHAR
STARTCHAR uni2009
ENCODING 8201
SWIDTH 200 0
DWIDTH 7 0
BBX 1 1 0 0
BITMAP
00
ENDCHAR
STARTCHAR uni200A
ENCODING 8202
SWIDTH 100 0
DWIDTH 3 0
BBX 1 1 0 0
BITMAP
00
ENDCHAR
STARTCHAR uni200B
ENCODING 8203
SWIDTH 0 0
DWIDTH 0 0
BBX 1 1 0 0
BITMAP
00
ENDCHAR
STARTCHAR uni2010
ENCODING 8208
SWIDTH 333 0
DWIDTH 11 0
BBX 9 4 1 5
BITMAP
7F80
FF80
FF80
FF00
ENDCHAR
STARTCHAR uni2011
ENCODING 8209
SWIDTH 333 0
DWIDTH 11 0
BBX 9 4 1 5
BITMAP
7F80
FF80
FF80
FF00
ENDCHAR
STARTCHAR figuredash
ENCODING 8210
SWIDTH 500 0
DWIDTH 16 0
BBX 16 3 0 6
BITMAP
FFFF
FFFF
FFFF
ENDCHAR
STARTCHAR endash
ENCODING 8211
SWIDTH 500 0
DWIDTH 16 0
BBX 16 3 0 6
BITMAP
FFFF
FFFF
FFFF
ENDCHAR
STARTCHAR emdash
ENCODING 8212
SWIDTH 1000 0
DWIDTH 32 0
BBX 32 3 0 6
BITMAP
FFFFFFFF
FFFFFFFF
FFFFFFFF
ENDCHAR
STARTCHAR afii00208
ENCODING 8213
SWIDTH 1000 0
DWIDTH 32 0
BBX 32 3 0 6
BITMAP
FFFFFFFF
FFFFFFFF
FFFFFFFF
ENDCHAR
STARTCHAR quoteleft
ENCODING 8216
SWIDTH 333 0
DWIDTH 11 0
BBX 6 10 4 13
BITMAP
0C
18
30
60
60
F0
F8
F8
F8
70
ENDCHAR
STARTCHAR quoteright
ENCODING 8217
SWIDTH 333 0
DWIDTH 11 0
BBX 6 10 4 13
BITMAP
38
7C
7C
7C
3C
18
18
30
60
C0
ENDCHAR
STARTCHAR quotesinglbase
ENCODING 8218
SWIDTH 333 0
DWIDTH 11 0
BBX 6 10 3 -6
BITMAP
38
7C
7C
7C
3C
18
18
30
60
C0
ENDCHAR
STARTCHAR quotereversed
ENCODING 8219
SWIDTH 333 0
DWIDTH 11 0
BBX 6 10 4 13
BITMAP
70
F8
F8
F8
F0
60
60
30
18
0C
ENDCHAR
STARTCHAR quotedblleft
ENCODING 8220
SWIDTH 500 0
DWIDTH 17 0
BBX 14 10 2 13
BITMAP
0C0C
1818
3030
6060
6060
F0F0
F8F8
F8F8
F8F8
7070
ENDCHAR
STARTCHAR quotedblright
ENCODING 8221
SWIDTH 500 0
DWIDTH 17 0
BBX 14 10 3 13
BITMAP
3838
7C7C
7C7C
7C7C
3C3C
1818
1818
3030
6060
C0C0
ENDCHAR
STARTCHAR quotedblbase
ENCODING 8222
SWIDTH 500 0
DWIDTH 17 0
BBX 14 10 -1 -6
BITMAP
3838
7C7C
7C7C
7C7C
3C3C
1818
1818
3030
6060
C0C0
ENDCHAR
STARTCHAR uni201F
ENCODING 8223
SWIDTH 500 0
DWIDTH 17 0
BBX 14 10 3 13
BITMAP
7070
F8F8
F8F8
F8F8
F0F0
6060
6060
3030
1818
0C0C
ENDCHAR
STARTCHAR dagger
ENCODING 8224
SWIDTH 500 0
DWIDTH 16 0
BBX 13 28 3 -5
BITMAP
0180
03C0
07C0
0780
0780
0700
0300
7278
FFF8
F270
0600
0600
0600
0F00
1F00
1E00
1E00
1C00
1C00
1800
1800
1800
1000
3000
3000
3000
2000
2000
ENDCHAR
STARTCHAR daggerdbl
ENCODING 8225
SWIDTH 500 0
DWIDTH 16 0
BBX 16 28 0 -5
BITMAP
0018
0038
0078
0078
0070
0060
0060
0E4F
1FFF
1E4E
0040
00C0
01C0
03C0
03C0
0380
0300
0200
7278
FFF8
F270
0600
0600
0E00
1E00
1E00
1C00
1800
ENDCHAR
STARTCHAR bullet
ENCODING 8226
SWIDTH 350 0
DWIDTH 12 0
BBX 8 8 2 6
BITMAP
3C
7E
FF
FF
FF
FF
7E
3C
ENDCHAR
STARTCHAR ellipsis
ENCODING 8230
SWIDTH 1000 0
DWIDTH 33 0
BBX 27 5 3 0
BITMAP
700E01C0
F81F03E0
F81F03E0
F81F03E0
700E01C0
ENDCHAR
STARTCHAR perthousand
ENCODING 8240
SWIDTH 1000 0
DWIDTH 33 0
BBX 32 24 0 -1
BITMAP
00004000
0F00C000
3F838000
787F8000
70430000
F0430000
E0460000
E0CC0000
E08C0000
E1980000
73100000
3E300000
0061E03C
0047F0FE
00CF09E1
018E09C1
019E0BC1
031C0B81
061C1B83
061C1382
0C1C3386
080E61CC
1807C0F8
10000000
ENDCHAR
STARTCHAR guilsinglleft
ENCODING 8249
SWIDTH 333 0
DWIDTH 11 0
BBX 9 13 1 1
BITMAP
0180
0380
0700
0E00
1C00
3800
7000
E000
7000
3800
1C00
0E00
0600
ENDCHAR
STARTCHAR guilsinglright
ENCODING 8250
SWIDTH 333 0
DWIDTH 11 0
BBX 9 13 1 1
BITMAP
3000
3800
1C00
0E00
0700
0380
0700
0E00
1C00
3800
7000
E000
C000
ENDCHAR
STARTCHAR fraction
ENCODING 8260
SWIDTH 167 0
DWIDTH 6 0
BBX 15 23 -5 0
BITMAP
0006
0006
000C
000C
0018
0038
0030
0060
0060
00C0
0180
0180
0300
0700
0600
0C00
0C00
1800
3800
3000
6000
6000
C000
ENDCHAR
STARTCHAR oneinferior
ENCODING 8321
SWIDTH 300 0
DWIDTH 10 0
BBX 9 14 0 -7
BITMAP
0180
1F80
0700
0700
0700
0E00
0E00
0E00
1E00
1C00
1C00
1C00
3800
FE00
ENDCHAR
STARTCHAR twoinferior
ENCODING 8322
SWIDTH 300 0
DWIDTH 10 0
BBX 10 14 0 -7
BITMAP
0F00
3F80
33C0
61C0
41C0
01C0
0380
0700
0E00
1C00
3840
7040
FFC0
FFC0
ENDCHAR
STARTCHAR threeinferior
ENCODING 8323
SWIDTH 300 0
DWIDTH 10 0
BBX 10 14 1 -7
BITMAP
0F00
3F80
63C0
41C0
01C0
0380
0F00
0380
01C0
01C0
C1C0
C3C0
6780
3E00
ENDCHAR
STARTCHAR uni20A5
ENCODING 8357
SWIDTH 778 0
DWIDTH 25 0
BBX 23 23 1 -4
BITMAP
000300
000300
000300
000600
1C7E7C
FDFFFE
3FBFBE
3F1F1E
3E1E1E
3C3C3C
3C3C3C
3C3C3C
787878
787878
787878
F0F0F2
F0F0F6
F0F0FC
F0F078
00C000
01C000
018000
018000
ENDCHAR
STARTCHAR uni20A6
ENCODING 8358
SWIDTH 722 0
DWIDTH 24 0
BBX 26 23 -1 0
BITMAP
07E01FC0
03F00F80
01F00700
01F80700
01F80600
037C0600
037C0600
03FFFC00
03FFFC00
07FFFC00
061F0C00
061F1800
0C0F9800
0FFFF800
0FFFF800
0FFFF800
1803F000
1803F000
1803F000
3801E000
3801E000
7C00E000
FE00E000
ENDCHAR
STARTCHAR uni20A9
ENCODING 8361
SWIDTH 889 0
DWIDTH 29 0
BBX 28 23 2 0
BITMAP
FF9FF3F0
3F07C0E0
3E07C0C0
3E07C080
3E07C180
1E07C100
1F0FC300
1FFFFF00
1FFFFE00
1FFFFE00
1F33C400
1F33EC00
0F63E800
0FFFFC00
0FFFFC00
0FFFFC00
0F81F000
0F81E000
0F01E000
0F01C000
0601C000
06018000
04008000
ENDCHAR
STARTCHAR Euro
ENCODING 8364
SWIDTH 667 0
DWIDTH 22 0
BBX 24 23 -1 0
BITMAP
0007F9
001FFF
007E0F
00F806
01F006
03E006
07E004
FFFE04
FFFE00
FFFE00
0F8000
1F0000
1F0000
FFFE00
FFFE00
FFFE00
1F0000
1F0000
0F8008
0F8030
07E0E0
01FF80
007E00
ENDCHAR
STARTCHAR uni20AD
ENCODING 8365
SWIDTH 667 0
DWIDTH 22 0
BBX 24 23 -1 0
BITMAP
07FE7F
01F81C
01F018
01F030
01E060
03E0C0
03E180
03C300
03C600
07DC00
07FC00
FFFFFF
07DE00
0F9F00
0F9F00
0F9F80
0F0F80
1F0FC0
1F07C0
1E07E0
3E03E0
3F03F0
FFCFF8
ENDCHAR
STARTCHAR uni2103
ENCODING 8451
SWIDTH 1047 0
DWIDTH 34 0
BBX 33 23 2 0
BITMAP
1E0003FC80
7F800FFF80
73803F0780
E1C07C0300
C0C0F80300
C0C1F00300
E1C3F00200
7383E00200
7F87E00000
1E07C00000
0007C00000
000F800000
000F800000
000F800000
000F800000
000F800000
000F800000
000F800000
0007C00400
0007C01800
0003F07000
0000FFC000
00003F0000
ENDCHAR
STARTCHAR uni2109
ENCODING 8457
SWIDTH 1047 0
DWIDTH 34 0
BBX 32 23 2 0
BITMAP
1E01FFFF
7F807E0F
73807C07
E1C07C06
C0C07C06
C0C0FC06
E1C0F804
7380F820
7F80F820
1E01F860
0001F1E0
0001FFE0
0001F1C0
0003E0C0
0003E0C0
0003E080
0003E000
0007C000
0007C000
0007C000
000FC000
000FC000
003FF000
ENDCHAR
STARTCHAR trademark
ENCODING 8482
SWIDTH 1000 0
DWIDTH 33 0
BBX 32 14 1 9
BITMAP
FFFBF03F
C718F03C
C708F87C
8708B87C
0700B85C
0700BCDC
07009C9C
07009E9C
07008F9C
07008F1C
07008F1C
0700871C
0700861C
1FC3E27F
ENDCHAR
STARTCHAR uni212A
ENCODING 8490
SWIDTH 667 0
DWIDTH 22 0
BBX 24 23 -1 0
BITMAP
07FE7F
01F81C
01F018
01F030
01E060
03E0C0
03E180
03C300
03C600
07DC00
07FC00
07FE00
07DE00
0F9F00
0F9F00
0F9F80
0F0F80
1F0FC0
1F07C0
1E07E0
3E03E0
3F03F0
FFCFF8
ENDCHAR
STARTCHAR uni212B
ENCODING 8491
SWIDTH 667 0
DWIDTH 21 0
BBX 21 30 -1 0
BITMAP
000700
000F80
001CC0
0018C0
0018C0
001DC0
000F80
000700
000600
000700
000F00
001F00
001F00
003F00
002F00
006F80
004F80
00CF80
018F80
018780
030780
0207C0
07FFC0
0FFFC0
0C07C0
1807C0
1803C0
3003E0
7007E0
FC1FF8
ENDCHAR
STARTCHAR uni2132
ENCODING 8498
SWIDTH 667 0
DWIDTH 22 0
BBX 22 23 0 0
BITMAP
000FFC
0003F0
0003F0
0003E0
0003E0
0003E0
0007C0
0107C0
0307C0
0307C0
038F80
07FF80
078F80
061F80
041F00
041F00
201F00
603F00
603E00
603E00
E03E00
F07E00
FFFF80
ENDCHAR
STARTCHAR minus
ENCODING 8722
SWIDTH 606 0
DWIDTH 20 0
BBX 16 3 2 7
BITMAP
FFFF
FFFF
FFFF
ENDCHAR
STARTCHAR fraction
ENCODING 8725
SWIDTH 167 0
DWIDTH 6 0
BBX 15 23 -5 0
BITMAP
0006
0006
000C
000C
0018
0038
0030
0060
0060
00C0
0180
0180
0300
0700
0600
0C00
0C00
1800
3800
3000
6000
6000
C000
ENDCHAR
STARTCHAR periodcentered
ENCODING 8729
SWIDTH 250 0
DWIDTH 8 0
BBX 5 5 1 6
BITMAP
70
F8
F8
F8
70
ENDCHAR
STARTCHAR uni2236
ENCODING 8758
SWIDTH 333 0
DWIDTH 11 0
BBX 8 15 2 0
BITMAP
0E
1F
1F
1F
0E
00
00
00
00
00
70
F8
F8
F8
70
ENDCHAR
STARTCHAR uni2259
ENCODING 8793
SWIDTH 570 0
DWIDTH 19 0
BBX 15 16 2 4
BITMAP
01C0
03E0
07E0
0E70
1C30
1818
0000
FFFE
FFFE
FFFE
0000
0000
0000
FFFE
FFFE
FFFE
ENDCHAR
STARTCHAR uni225A
ENCODING 8794
SWIDTH 570 0
DWIDTH 19 0
BBX 15 16 2 4
BITMAP
1818
0C38
0E70
07E0
07C0
0380
0000
FFFE
FFFE
FFFE
0000
0000
0000
FFFE
FFFE
FFFE
ENDCHAR
STARTCHAR notequal
ENCODING 8800
SWIDTH 570 0
DWIDTH 19 0
BBX 15 23 2 -3
BITMAP
0030
0030
0030
0060
0060
0060
00C0
FFFE
FFFE
FFFE
0180
0380
0300
FFFE
FFFE
FFFE
0600
0E00
0C00
0C00
1C00
1800
1800
ENDCHAR
STARTCHAR equivalence
ENCODING 8801
SWIDTH 570 0
DWIDTH 19 0
BBX 15 5 0 6
BITMAP
FFFE
0000
FFFE
0000
FFFE
ENDCHAR
STARTCHAR uni2262
ENCODING 8802
SWIDTH 570 0
DWIDTH 19 0
BBX 15 23 0 -3
BITMAP
0030
0030
0030
0060
0060
0060
00C0
00C0
00C0
FFFE
0180
FFFE
0300
FFFE
0700
0600
0600
0E00
0C00
0C00
1C00
1800
1800
ENDCHAR
STARTCHAR lessequal
ENCODING 8804
SWIDTH 570 0
DWIDTH 19 0
BBX 17 19 1 -2
BITMAP
000180
000780
001F80
00FF00
03FC00
0FE000
3F8000
FE0000
F00000
FE0000
3F8000
0FE000
03FC00
00FF00
001F80
000780
000180
000000
FFFF80
ENDCHAR
STARTCHAR greaterequal
ENCODING 8805
SWIDTH 570 0
DWIDTH 19 0
BBX 17 19 1 -2
BITMAP
C00000
F00000
FC0000
7F8000
1FE000
03F800
00FE00
003F80
000780
003F80
00FE00
03F800
1FE000
7F8000
FC0000
F00000
C00000
000000
FFFF80
ENDCHAR
STARTCHAR uni226E
ENCODING 8814
SWIDTH 570 0
DWIDTH 19 0
BBX 17 23 1 -3
BITMAP
001800
001800
001800
003180
003780
003F80
00FF00
03FC00
0FE000
3FC000
FEC000
F1C000
FF8000
3F8000
0FE000
03FC00
03FF00
071F80
060780
060180
0E0000
0C0000
0C0000
ENDCHAR
STARTCHAR uni226F
ENCODING 8815
SWIDTH 570 0
DWIDTH 19 0
BBX 17 23 1 -3
BITMAP
001800
001800
001800
C03000
F03000
FC3000
7FE000
1FE000
03F800
00FE00
00FF80
01C780
01BF80
01FE00
03F800
1FE000
7F8000
FF0000
F60000
C60000
0E0000
0C0000
0C0000
ENDCHAR
STARTCHAR uni2270
ENCODING 8816
SWIDTH 570 0
DWIDTH 19 0
BBX 17 23 1 -4
BITMAP
001800
001800
001980
003780
003F80
00FF00
03FC00
0FE000
3FE000
FEC000
F0C000
FFC000
3F8000
0FE000
03FC00
03FF00
031F80
070780
060180
060000
FFFF80
0C0000
0C0000
ENDCHAR
STARTCHAR uni2271
ENCODING 8817
SWIDTH 570 0
DWIDTH 19 0
BBX 17 23 1 -4
BITMAP
001800
001800
C01800
F03000
FC3000
7FB000
1FE000
03F800
00FE00
00FF80
00C780
01FF80
01FE00
03F800
1FE000
7F8000
FF0000
F70000
C60000
060000
FFFF80
0C0000
0C0000
ENDCHAR
STARTCHAR fi
ENCODING -1
SWIDTH 556 0
DWIDTH 18 0
BBX 23 30 -4 -7
BITMAP
0000F8
0003FE
00079E
000F1E
001E0C
001C00
003C00
003C00
007800
01FFFC
01FFF8
007878
007878
00F0F0
00F0F0
00F0F0
00F0F0
01E1E0
01E1E4
01E1EC
03C1F8
03C1F0
03C0E0
038000
078000
070000
670000
E70000
EE0000
7C0000
ENDCHAR
STARTCHAR fl
ENCODING -1
SWIDTH 556 0
DWIDTH 18 0
BBX 24 30 -5 -7
BITMAP
0003F7
00077F
000E7F
001E3F
001C1E
003C1E
003C1E
00383C
00783C
01FE3C
00783C
007878
00F078
00F078
00F0F8
00F0F0
01E0F0
01E0F0
01E1E4
01E1EC
03C1F8
03C1F0
03C0E0
038000
078000
070000
670000
E70000
EE0000
7C0000
ENDCHAR
ENDFONT
